<svg xmlns="http://www.w3.org/2000/svg" width="50" height="50" viewBox="0 0 153 153" version="1.1"><path d="M 76.500 1 C 76.840 1.550, 77.343 2, 77.618 2 C 77.893 2, 77.840 1.550, 77.500 1 C 77.160 0.450, 76.657 0, 76.382 0 C 76.107 0, 76.160 0.450, 76.500 1 M 73.405 2.155 C 72.962 2.870, 73.130 3.038, 73.845 2.595 C 74.998 1.883, 75.393 1, 74.559 1 C 74.316 1, 73.797 1.520, 73.405 2.155 M 70.405 5.155 C 69.962 5.870, 70.130 6.038, 70.845 5.595 C 71.480 5.203, 72 4.684, 72 4.441 C 72 3.607, 71.117 4.002, 70.405 5.155 M 67.405 8.155 C 66.962 8.870, 67.130 9.038, 67.845 8.595 C 68.998 7.883, 69.393 7, 68.559 7 C 68.316 7, 67.797 7.520, 67.405 8.155 M 59.469 16.250 L 53.500 22.500 59.750 16.531 C 63.188 13.249, 66 10.436, 66 10.281 C 66 9.542, 65.013 10.444, 59.469 16.250 M 51.405 24.155 C 50.962 24.870, 51.130 25.038, 51.845 24.595 C 52.998 23.883, 53.393 23, 52.559 23 C 52.316 23, 51.797 23.520, 51.405 24.155 M 48.405 27.155 C 47.962 27.870, 48.130 28.038, 48.845 27.595 C 49.998 26.883, 50.393 26, 49.559 26 C 49.316 26, 48.797 26.520, 48.405 27.155 M 45.405 30.155 C 44.962 30.870, 45.130 31.038, 45.845 30.595 C 46.998 29.883, 47.393 29, 46.559 29 C 46.316 29, 45.797 29.520, 45.405 30.155 M 69.500 30.004 C 62.852 30.963, 54 33.838, 54 35.039 C 54 35.567, 53.412 36, 52.693 36 C 49.463 36, 36 49.463, 36 52.693 C 36 53.412, 35.635 54, 35.190 54 C 34.744 54, 33.394 56.872, 32.190 60.381 C 29.178 69.156, 29.166 82.124, 32.161 91.056 C 34.883 99.174, 36.087 101.079, 43.255 108.604 C 49.089 114.728, 56.015 118.945, 63.500 120.929 C 68.621 122.286, 83.310 122.298, 88.500 120.949 C 100.397 117.856, 112.480 107.761, 118.240 96.100 C 121.433 89.635, 121.500 89.223, 121.500 76 C 121.500 62.780, 121.433 62.365, 118.259 56 C 115.220 49.907, 110.594 44.170, 104.936 39.481 C 95.848 31.948, 81.893 28.216, 69.500 30.004 M 38.462 37.250 L 33.500 42.500 38.750 37.538 C 41.638 34.808, 44 32.446, 44 32.288 C 44 31.541, 43.074 32.372, 38.462 37.250 M 64.500 35.575 C 56.841 38.321, 51.767 41.450, 46.609 46.609 C 35.650 57.567, 31.539 72.629, 35.625 86.846 C 37.284 92.616, 39.312 97.181, 41.356 99.748 C 44.100 103.191, 52.158 111, 52.968 111 C 53.457 111, 54.452 111.580, 55.179 112.288 C 60.559 117.532, 79.297 119.271, 90.250 115.543 C 93.412 114.467, 96 113.229, 96 112.793 C 96 112.357, 96.516 112, 97.147 112 C 99.119 112, 106.665 105.230, 110.235 100.257 C 115.798 92.509, 117.500 86.828, 117.500 76 C 117.500 62.392, 114.455 55.303, 104.309 45.286 C 99.550 40.588, 96.253 38.667, 88.181 35.890 C 81.616 33.631, 70.339 33.481, 64.500 35.575 M 43.250 66.119 C 40.935 66.787, 40 67.652, 40 69.122 C 40 71.015, 40.402 71.132, 44.820 70.525 C 48.492 70.020, 49.937 70.219, 50.884 71.360 C 51.948 72.642, 51.481 72.955, 47.643 73.531 C 39.754 74.714, 36.495 80.495, 41.113 85.113 C 42.767 86.767, 43.996 87.100, 46.782 86.648 C 48.738 86.331, 50.705 85.492, 51.154 84.785 C 51.788 83.786, 51.973 83.778, 51.985 84.750 C 51.993 85.469, 53.275 86, 55 86 L 58 86 58 78.434 C 58 69.590, 57.174 67.605, 52.872 66.105 C 49.204 64.827, 47.718 64.829, 43.250 66.119 M 66.402 66.905 C 61.702 69.039, 61 70.340, 61 76.907 C 61 82.572, 63.708 85.754, 69.302 86.662 C 75.175 87.615, 78 86.447, 78 83.068 C 78 80.283, 77.890 80.215, 75.070 81.279 C 70.477 83.013, 67 80.994, 67 76.593 C 67 70.743, 71.186 68.341, 75.777 71.557 C 77.924 73.060, 78 73.012, 78 70.155 C 78 67.735, 77.426 66.996, 74.851 66.098 C 70.908 64.723, 71.285 64.687, 66.402 66.905 M 90.750 66.572 C 88.999 67.522, 88 67.666, 88 66.969 C 88 66.335, 86.629 66.005, 84.750 66.187 L 81.500 66.500 81.214 76.250 L 80.928 86 84.420 86 L 87.912 86 88.206 78.761 C 88.456 72.600, 88.780 71.468, 90.380 71.162 C 93.105 70.642, 93.967 72.696, 93.985 79.750 L 94 86 96.956 86 L 99.912 86 100.206 78.761 C 100.456 72.600, 100.780 71.468, 102.380 71.162 C 105.105 70.642, 105.967 72.696, 105.985 79.750 L 106 86 109 86 L 112 86 111.985 77.750 C 111.968 68.820, 111.675 67.919, 108.193 66.084 C 106.267 65.069, 105.350 65.186, 102.627 66.792 C 99.447 68.669, 99.311 68.670, 97.073 66.858 C 94.356 64.658, 94.284 64.655, 90.750 66.572 M 47.250 77.662 C 45.768 78.260, 45.580 81.622, 46.979 82.487 C 48.584 83.479, 52 81.082, 52 78.965 C 52 77.045, 50.082 76.519, 47.250 77.662" stroke="none" fill="#f8fafb" fill-rule="evenodd"/><path d="M 37.526 38.558 L -0.449 76.048 37.776 114.272 L 76 152.497 114.250 114.242 L 152.500 75.987 114.972 38.494 C 94.332 17.872, 77.007 1.015, 76.472 1.034 C 75.938 1.053, 58.412 17.939, 37.526 38.558 M 69.500 30.004 C 62.852 30.963, 54 33.838, 54 35.039 C 54 35.567, 53.412 36, 52.693 36 C 49.463 36, 36 49.463, 36 52.693 C 36 53.412, 35.635 54, 35.190 54 C 34.744 54, 33.394 56.872, 32.190 60.381 C 29.178 69.156, 29.166 82.124, 32.161 91.056 C 34.883 99.174, 36.087 101.079, 43.255 108.604 C 49.089 114.728, 56.015 118.945, 63.500 120.929 C 68.621 122.286, 83.310 122.298, 88.500 120.949 C 100.397 117.856, 112.480 107.761, 118.240 96.100 C 121.433 89.635, 121.500 89.223, 121.500 76 C 121.500 62.780, 121.433 62.365, 118.259 56 C 115.220 49.907, 110.594 44.170, 104.936 39.481 C 95.848 31.948, 81.893 28.216, 69.500 30.004 M 64.500 35.575 C 56.841 38.321, 51.767 41.450, 46.609 46.609 C 35.650 57.567, 31.539 72.629, 35.625 86.846 C 37.284 92.616, 39.312 97.181, 41.356 99.748 C 44.100 103.191, 52.158 111, 52.968 111 C 53.457 111, 54.452 111.580, 55.179 112.288 C 60.559 117.532, 79.297 119.271, 90.250 115.543 C 93.412 114.467, 96 113.229, 96 112.793 C 96 112.357, 96.516 112, 97.147 112 C 99.119 112, 106.665 105.230, 110.235 100.257 C 115.798 92.509, 117.500 86.828, 117.500 76 C 117.500 62.392, 114.455 55.303, 104.309 45.286 C 99.550 40.588, 96.253 38.667, 88.181 35.890 C 81.616 33.631, 70.339 33.481, 64.500 35.575 M 43.250 66.119 C 40.935 66.787, 40 67.652, 40 69.122 C 40 71.015, 40.402 71.132, 44.820 70.525 C 48.492 70.020, 49.937 70.219, 50.884 71.360 C 51.948 72.642, 51.481 72.955, 47.643 73.531 C 39.754 74.714, 36.495 80.495, 41.113 85.113 C 42.767 86.767, 43.996 87.100, 46.782 86.648 C 48.738 86.331, 50.705 85.492, 51.154 84.785 C 51.788 83.786, 51.973 83.778, 51.985 84.750 C 51.993 85.469, 53.275 86, 55 86 L 58 86 58 78.434 C 58 69.590, 57.174 67.605, 52.872 66.105 C 49.204 64.827, 47.718 64.829, 43.250 66.119 M 66.402 66.905 C 61.702 69.039, 61 70.340, 61 76.907 C 61 82.572, 63.708 85.754, 69.302 86.662 C 75.175 87.615, 78 86.447, 78 83.068 C 78 80.283, 77.890 80.215, 75.070 81.279 C 70.477 83.013, 67 80.994, 67 76.593 C 67 70.743, 71.186 68.341, 75.777 71.557 C 77.924 73.060, 78 73.012, 78 70.155 C 78 67.735, 77.426 66.996, 74.851 66.098 C 70.908 64.723, 71.285 64.687, 66.402 66.905 M 90.750 66.572 C 88.999 67.522, 88 67.666, 88 66.969 C 88 66.335, 86.629 66.005, 84.750 66.187 L 81.500 66.500 81.214 76.250 L 80.928 86 84.420 86 L 87.912 86 88.206 78.761 C 88.456 72.600, 88.780 71.468, 90.380 71.162 C 93.105 70.642, 93.967 72.696, 93.985 79.750 L 94 86 96.956 86 L 99.912 86 100.206 78.761 C 100.456 72.600, 100.780 71.468, 102.380 71.162 C 105.105 70.642, 105.967 72.696, 105.985 79.750 L 106 86 109 86 L 112 86 111.985 77.750 C 111.968 68.820, 111.675 67.919, 108.193 66.084 C 106.267 65.069, 105.350 65.186, 102.627 66.792 C 99.447 68.669, 99.311 68.670, 97.073 66.858 C 94.356 64.658, 94.284 64.655, 90.750 66.572 M 47.250 77.662 C 45.768 78.260, 45.580 81.622, 46.979 82.487 C 48.584 83.479, 52 81.082, 52 78.965 C 52 77.045, 50.082 76.519, 47.250 77.662" stroke="none" fill="#5fadda" fill-rule="evenodd"/></svg>