<svg xmlns="http://www.w3.org/2000/svg" width="353" height="98" viewBox="0 0 353 98" version="1.1"><path d="M 0 47.500 L 0 62 14.500 62 L 29 62 29 47.500 L 29 33 14.500 33 L 0 33 0 47.500" stroke="none" fill="#f16524" fill-rule="evenodd"/><path d="M 0 16.500 L 0 33 14.500 33 L 29 33 29 47.500 L 29 62 14.500 62 L 0 62 0 80 L 0 98 15 98 L 30 98 30 80.500 L 30 63 44 63 L 58 63 58 80.500 L 58 98 73 98 L 88 98 88 49 L 88 0 73 0 L 58 0 58 16.500 L 58 33 44 33 L 30 33 30 16.500 L 30 0 15 0 L 0 0 0 16.500 M 100 49 L 100 98 115 98 L 130 98 130.030 76.750 C 130.054 60.387, 130.322 55.960, 131.195 57.500 C 131.819 58.600, 132.631 59.725, 133.001 60 C 133.371 60.275, 134.914 62.638, 136.432 65.250 C 137.949 67.862, 139.518 70, 139.918 70 C 140.318 70, 141.602 71.915, 142.771 74.256 C 143.940 76.597, 145.739 79.416, 146.769 80.521 C 147.798 81.626, 149.940 84.774, 151.529 87.515 C 153.118 90.257, 155.223 93.088, 156.209 93.807 C 157.194 94.525, 158 95.763, 158 96.557 C 158 97.734, 160.210 98, 170 98 C 177.327 98, 182.004 97.611, 182.010 97 C 182.016 96.450, 182.025 74.513, 182.031 48.250 L 182.042 0.500 167.521 0.223 L 153 -0.053 152.994 20.723 C 152.988 40.051, 152.880 41.291, 151.451 38.500 C 150.605 36.850, 149.371 35.041, 148.707 34.480 C 147.531 33.487, 146.994 32.635, 142.795 25.113 C 141.686 23.126, 140.153 21.140, 139.389 20.700 C 138.625 20.260, 138 19.296, 138 18.556 C 138 17.817, 136.762 15.862, 135.250 14.212 C 132.516 11.231, 130.792 8.690, 128.388 4.100 C 127.697 2.779, 126.539 1.324, 125.816 0.865 C 125.092 0.406, 118.987 0.024, 112.250 0.015 L 100 0 100 49 M 190 14.500 L 190 29 200.500 29 L 211 29 211 63.500 L 211 98 226.500 98 L 242 98 242 63.500 L 242 29 253 29 L 264 29 264 14.500 L 264 0 227 0 L 190 0 190 14.500 M 271 48.933 L 271 98 300 98 C 316.998 98, 329 97.619, 329 97.079 C 329 96.573, 330.462 95.850, 332.250 95.472 C 339.529 93.932, 349.100 85.418, 351.500 78.347 C 353.303 73.038, 353.480 59.209, 351.796 55.297 C 351.133 53.759, 349.896 51.768, 349.046 50.873 C 343.764 45.311, 343.726 45.185, 346.154 41.188 C 347.386 39.160, 348.868 37.177, 349.447 36.783 C 350.787 35.870, 350.804 18.147, 349.466 17.198 C 348.924 16.814, 347.242 14.588, 345.726 12.250 C 344.211 9.912, 342.636 8, 342.226 8 C 341.815 8, 340.359 6.984, 338.990 5.742 C 333.427 0.696, 332.393 0.546, 300.750 0.196 L 271 -0.134 271 48.933 M 300 28.887 L 300 36 308.550 36 C 314.404 36, 318.067 35.499, 320.170 34.412 C 323.047 32.924, 323.209 32.544, 322.737 28.363 C 322.461 25.909, 321.930 23.596, 321.557 23.224 C 321.184 22.851, 316.182 22.372, 310.440 22.160 L 300 21.773 300 28.887 M 300 65.917 C 300 71.288, 299.598 74.011, 298.750 74.386 C 298.063 74.690, 302.742 74.840, 309.148 74.720 C 319.005 74.534, 321.119 74.207, 322.898 72.595 C 325.364 70.360, 325.625 66.110, 323.543 62.084 C 321.812 58.735, 318.990 58, 307.875 58 L 300 58 300 65.917" stroke="none" fill="#1b232c" fill-rule="evenodd"/></svg>