<svg xmlns="http://www.w3.org/2000/svg" width="200" height="200" viewBox="0 0 200 200" version="1.1"><path d="M 42.215 40.250 L 42.500 50.500 58.750 50.775 L 75 51.050 75 40.525 L 75 30 58.465 30 L 41.930 30 42.215 40.250 M 42 110.500 L 42 161 58.500 161 L 75 161 75 110.500 L 75 60 58.500 60 L 42 60 42 110.500 M 85.212 69.250 L 85.500 78.500 121.750 78.762 L 158 79.025 158 69.512 L 158 60 121.462 60 L 84.925 60 85.212 69.250 M 107 110.500 L 107 120 132.500 120 L 158 120 158 110.500 L 158 101 132.500 101 L 107 101 107 110.500 M 85.667 142.667 C 85.300 143.033, 85 147.308, 85 152.167 L 85 161 121.500 161 L 158 161 158 151.500 L 158 142 122.167 142 C 102.458 142, 86.033 142.300, 85.667 142.667" stroke="none" fill="#050505" fill-rule="evenodd"/><path d="M -0 100.005 L -0 200.010 100.250 199.755 L 200.500 199.500 200.755 99.750 L 201.010 0 100.505 0 L 0 0 -0 100.005 M 0.481 100.500 C 0.481 155.500, 0.602 178.147, 0.750 150.826 C 0.898 123.506, 0.898 78.506, 0.750 50.826 C 0.602 23.147, 0.481 45.500, 0.481 100.500 M 42.215 40.250 L 42.500 50.500 58.750 50.775 L 75 51.050 75 40.525 L 75 30 58.465 30 L 41.930 30 42.215 40.250 M 42 110.500 L 42 161 58.500 161 L 75 161 75 110.500 L 75 60 58.500 60 L 42 60 42 110.500 M 85.212 69.250 L 85.500 78.500 121.750 78.762 L 158 79.025 158 69.512 L 158 60 121.462 60 L 84.925 60 85.212 69.250 M 107 110.500 L 107 120 132.500 120 L 158 120 158 110.500 L 158 101 132.500 101 L 107 101 107 110.500 M 85.667 142.667 C 85.300 143.033, 85 147.308, 85 152.167 L 85 161 121.500 161 L 158 161 158 151.500 L 158 142 122.167 142 C 102.458 142, 86.033 142.300, 85.667 142.667" stroke="none" fill="#fbfbfb" fill-rule="evenodd"/></svg>