<svg xmlns="http://www.w3.org/2000/svg" width="756" height="172" viewBox="0 0 756 172" version="1.1"><path d="M 558 8.500 C 558 8.775, 558.225 9, 558.500 9 C 558.775 9, 559 8.775, 559 8.500 C 559 8.225, 558.775 8, 558.500 8 C 558.225 8, 558 8.225, 558 8.500 M 234 15.500 C 234 15.775, 234.225 16, 234.500 16 C 234.775 16, 235 15.775, 235 15.500 C 235 15.225, 234.775 15, 234.500 15 C 234.225 15, 234 15.225, 234 15.500 M 18 19.500 C 18 19.775, 18.225 20, 18.500 20 C 18.775 20, 19 19.775, 19 19.500 C 19 19.225, 18.775 19, 18.500 19 C 18.225 19, 18 19.225, 18 19.500 M 22 19.500 C 22 19.775, 22.225 20, 22.500 20 C 22.775 20, 23 19.775, 23 19.500 C 23 19.225, 22.775 19, 22.500 19 C 22.225 19, 22 19.225, 22 19.500 M 39 19.500 C 39 19.775, 39.225 20, 39.500 20 C 39.775 20, 40 19.775, 40 19.500 C 40 19.225, 39.775 19, 39.500 19 C 39.225 19, 39 19.225, 39 19.500 M 81.813 19.683 C 82.534 19.972, 83.397 19.936, 83.729 19.604 C 84.061 19.272, 83.471 19.036, 82.417 19.079 C 81.252 19.127, 81.015 19.364, 81.813 19.683 M 232 19.500 C 232 19.775, 232.225 20, 232.500 20 C 232.775 20, 233 19.775, 233 19.500 C 233 19.225, 232.775 19, 232.500 19 C 232.225 19, 232 19.225, 232 19.500 M 249 19.941 C 249 20.459, 249.445 21.157, 249.989 21.493 C 250.555 21.843, 250.723 21.442, 250.382 20.552 C 249.717 18.820, 249 18.503, 249 19.941 M 111 20.500 C 111 20.775, 111.225 21, 111.500 21 C 111.775 21, 112 20.775, 112 20.500 C 112 20.225, 111.775 20, 111.500 20 C 111.225 20, 111 20.225, 111 20.500 M 82.333 21.667 C 82.700 22.033, 83.300 22.033, 83.667 21.667 C 84.033 21.300, 83.733 21, 83 21 C 82.267 21, 81.967 21.300, 82.333 21.667 M 67 22.500 C 67 22.775, 67.225 23, 67.500 23 C 67.775 23, 68 22.775, 68 22.500 C 68 22.225, 67.775 22, 67.500 22 C 67.225 22, 67 22.225, 67 22.500 M 250 23.500 C 250 23.775, 250.225 24, 250.500 24 C 250.775 24, 251 23.775, 251 23.500 C 251 23.225, 250.775 23, 250.500 23 C 250.225 23, 250 23.225, 250 23.500 M 572 35.500 C 572 41.833, 572.397 46, 573 46 C 573.603 46, 574 41.833, 574 35.500 C 574 29.167, 573.603 25, 573 25 C 572.397 25, 572 29.167, 572 35.500 M 591.813 28.250 C 591.615 30.306, 591.014 31.399, 590.176 31.225 C 589.182 31.019, 589.245 31.511, 590.426 33.198 C 592.235 35.780, 592.474 40.245, 590.957 43.081 C 590.145 44.598, 590.265 45.164, 591.500 45.638 C 592.372 45.973, 593.371 45.963, 593.718 45.615 C 594.436 44.897, 594.788 30.671, 594.172 27.250 C 593.573 23.925, 592.173 24.519, 591.813 28.250 M 202 27.500 C 202 27.775, 202.225 28, 202.500 28 C 202.775 28, 203 27.775, 203 27.500 C 203 27.225, 202.775 27, 202.500 27 C 202.225 27, 202 27.225, 202 27.500 M 596 27.500 C 596 27.775, 596.225 28, 596.500 28 C 596.775 28, 597 27.775, 597 27.500 C 597 27.225, 596.775 27, 596.500 27 C 596.225 27, 596 27.225, 596 27.500 M 637.207 29.041 C 636.506 30.163, 636.195 31.507, 636.517 32.027 C 636.838 32.547, 637.332 35.329, 637.614 38.210 C 638.130 43.480, 639.329 46, 641.322 46 C 642.024 46, 641.982 45.582, 641.200 44.800 C 639.320 42.920, 639.643 33.074, 641.609 32.320 C 643.089 31.752, 643.089 31.629, 641.609 30.801 C 640.724 30.306, 640 29.248, 640 28.450 C 640 26.382, 638.695 26.658, 637.207 29.041 M 206 28.500 C 206 28.775, 206.225 29, 206.500 29 C 206.775 29, 207 28.775, 207 28.500 C 207 28.225, 206.775 28, 206.500 28 C 206.225 28, 206 28.225, 206 28.500 M 596 29.500 C 596 29.775, 596.225 30, 596.500 30 C 596.775 30, 597 29.775, 597 29.500 C 597 29.225, 596.775 29, 596.500 29 C 596.225 29, 596 29.225, 596 29.500 M 581.462 32.681 C 580.185 33.958, 579.894 35.548, 580.254 39.288 C 580.776 44.723, 582.019 46.029, 586.500 45.849 C 589.166 45.741, 589.226 45.676, 587.039 45.267 C 581.738 44.274, 580.284 37.626, 584.455 33.455 C 586.656 31.253, 586.715 31, 585.026 31 C 583.990 31, 582.386 31.757, 581.462 32.681 M 600.615 33.465 C 598.131 37.256, 598.996 42.962, 602.400 45.235 C 604.465 46.614, 605.313 46.004, 603.768 44.250 C 601.411 41.574, 601.777 34.270, 604.359 32.461 L 606.445 31 604.338 31 C 603.178 31, 601.503 32.109, 600.615 33.465 M 609.077 33.077 C 610.220 34.220, 610.909 35.795, 610.609 36.577 C 610.289 37.410, 610.672 38, 611.531 38 C 612.339 38, 613 37.132, 613 36.071 C 613 33.807, 610.469 31, 608.429 31 C 607.399 31, 607.580 31.580, 609.077 33.077 M 620 32.500 C 618.416 34.408, 619.902 34.389, 622.441 32.468 C 623.995 31.293, 624.069 31, 622.814 31 C 621.951 31, 620.685 31.675, 620 32.500 M 627.402 32.544 C 628.537 33.680, 628.836 35.527, 628.529 39.520 C 628.285 42.708, 628.548 45.221, 629.168 45.604 C 630.723 46.565, 631.967 44.008, 631.985 39.815 C 632.007 34.438, 630.435 31, 627.953 31 C 626.063 31, 626.009 31.152, 627.402 32.544 M 649.668 32.253 C 646.818 34.337, 646.462 40.046, 648.982 43.250 C 650.172 44.763, 651.900 45.948, 652.823 45.884 C 654.315 45.781, 654.307 45.717, 652.750 45.311 C 650.749 44.788, 650.836 45.044, 650.504 38.718 C 650.299 34.826, 650.642 33.664, 652.349 32.468 C 653.880 31.396, 654.032 31, 652.914 31 C 652.071 31, 650.611 31.564, 649.668 32.253 M 656.777 33.007 C 657.978 34.126, 658.678 35.675, 658.359 36.507 C 657.997 37.449, 658.379 38, 659.393 38 C 660.403 38, 661 37.146, 661 35.700 C 661 32.873, 659.251 31, 656.611 31 C 654.682 31, 654.687 31.059, 656.777 33.007 M 41 35.500 C 41 35.775, 41.225 36, 41.500 36 C 41.775 36, 42 35.775, 42 35.500 C 42 35.225, 41.775 35, 41.500 35 C 41.225 35, 41 35.225, 41 35.500 M 341.757 36.201 C 337.412 37.355, 333 42.080, 333 45.577 C 333 49.244, 337.117 48.892, 338.804 45.081 C 341.317 39.403, 350.789 38.758, 353.540 44.077 C 356.055 48.941, 351.884 55.141, 346.495 54.549 C 344.847 54.368, 343.997 54.903, 343.616 56.360 C 342.957 58.879, 344.473 59.964, 348.677 59.985 C 350.907 59.995, 352.473 60.786, 353.927 62.635 C 358.665 68.658, 354.723 76.027, 346.795 75.968 C 341.813 75.931, 339.963 74.768, 337.596 70.188 C 334.519 64.233, 330.412 67.751, 333.038 74.092 C 335.572 80.210, 348.714 82.682, 356.033 78.417 C 363.059 74.324, 363.508 62.550, 356.785 58.691 L 353.701 56.921 356.850 53.842 C 360.853 49.929, 361.240 43.927, 357.749 39.917 C 355.977 37.882, 347.593 34.502, 345.807 35.103 C 345.638 35.160, 343.815 35.654, 341.757 36.201 M 41 37.500 C 41 37.775, 41.225 38, 41.500 38 C 41.775 38, 42 37.775, 42 37.500 C 42 37.225, 41.775 37, 41.500 37 C 41.225 37, 41 37.225, 41 37.500 M 663 37.500 C 663 37.775, 663.225 38, 663.500 38 C 663.775 38, 664 37.775, 664 37.500 C 664 37.225, 663.775 37, 663.500 37 C 663.225 37, 663 37.225, 663 37.500 M 619.200 39.200 C 617.141 41.259, 618.439 46, 621.061 46 C 621.425 46, 621.494 44.805, 621.215 43.344 C 620.862 41.498, 621.268 40.277, 622.545 39.344 C 624.309 38.053, 624.303 38, 622.391 38 C 621.296 38, 619.860 38.540, 619.200 39.200 M 616 39.500 C 616 39.775, 616.225 40, 616.500 40 C 616.775 40, 617 39.775, 617 39.500 C 617 39.225, 616.775 39, 616.500 39 C 616.225 39, 616 39.225, 616 39.500 M 360 40.500 C 360 40.775, 360.225 41, 360.500 41 C 360.775 41, 361 40.775, 361 40.500 C 361 40.225, 360.775 40, 360.500 40 C 360.225 40, 360 40.225, 360 40.500 M 597 40.500 C 597 40.775, 597.225 41, 597.500 41 C 597.775 41, 598 40.775, 598 40.500 C 598 40.225, 597.775 40, 597.500 40 C 597.225 40, 597 40.225, 597 40.500 M 192 41.500 C 192 41.775, 192.225 42, 192.500 42 C 192.775 42, 193 41.775, 193 41.500 C 193 41.225, 192.775 41, 192.500 41 C 192.225 41, 192 41.225, 192 41.500 M 408 41.500 C 408 41.775, 408.225 42, 408.500 42 C 408.775 42, 409 41.775, 409 41.500 C 409 41.225, 408.775 41, 408.500 41 C 408.225 41, 408 41.225, 408 41.500 M 349 42.500 C 349 42.775, 349.225 43, 349.500 43 C 349.775 43, 350 42.775, 350 42.500 C 350 42.225, 349.775 42, 349.500 42 C 349.225 42, 349 42.225, 349 42.500 M 501 42.500 C 501 42.775, 501.225 43, 501.500 43 C 501.775 43, 502 42.775, 502 42.500 C 502 42.225, 501.775 42, 501.500 42 C 501.225 42, 501 42.225, 501 42.500 M 606 42.500 C 606 42.775, 606.225 43, 606.500 43 C 606.775 43, 607 42.775, 607 42.500 C 607 42.225, 606.775 42, 606.500 42 C 606.225 42, 606 42.225, 606 42.500 M 610 44 C 609.411 45.100, 609.305 46, 609.765 46 C 610.828 46, 613 43.852, 613 42.800 C 613 41.248, 611.057 42.025, 610 44 M 658.278 43.250 C 657.746 43.938, 656.923 45.175, 656.448 46 C 655.716 47.273, 655.949 47.260, 657.988 45.914 C 660.542 44.228, 661.805 42, 660.206 42 C 659.677 42, 658.810 42.563, 658.278 43.250 M 310.523 44.974 C 308.850 46.823, 308.842 47.109, 310.391 49.474 C 311.402 51.017, 312.983 52, 314.452 52 C 317.088 52, 320 49.638, 320 47.500 C 320 45.404, 317.107 43, 314.584 43 C 313.333 43, 311.506 43.888, 310.523 44.974 M 408.422 44.344 C 408.112 45.150, 408.003 58.564, 408.180 74.154 C 408.577 109.342, 408.791 109.975, 420.827 111.571 L 426 112.258 426 108.629 C 426 105.738, 425.616 105, 424.111 105 C 423.072 105, 421.159 104.140, 419.861 103.090 C 417.501 101.180, 417.500 101.166, 417 72.340 L 416.500 43.500 412.742 43.189 C 410.145 42.974, 408.810 43.331, 408.422 44.344 M 492.237 77.250 L 492.500 111.500 496 111.500 C 498.868 111.500, 499.558 111.094, 499.820 109.250 C 500.225 106.396, 501.161 106.424, 505.771 109.433 C 515.827 115.994, 528.961 112.360, 534.458 101.495 C 536.626 97.211, 537 95.133, 537 87.385 C 537 82.387, 536.488 76.769, 535.862 74.899 C 531.197 60.966, 514.923 56.533, 504.254 66.288 C 503.019 67.417, 501.682 68.016, 501.285 67.618 C 500.887 67.220, 500.679 62.383, 500.823 56.870 C 501.165 43.795, 500.884 43, 495.919 43 L 491.974 43 492.237 77.250 M 361 44.500 C 361 44.775, 361.225 45, 361.500 45 C 361.775 45, 362 44.775, 362 44.500 C 362 44.225, 361.775 44, 361.500 44 C 361.225 44, 361 44.225, 361 44.500 M 633 46.500 C 633 46.775, 633.225 47, 633.500 47 C 633.775 47, 634 46.775, 634 46.500 C 634 46.225, 633.775 46, 633.500 46 C 633.225 46, 633 46.225, 633 46.500 M 339 47.500 C 339 47.775, 339.225 48, 339.500 48 C 339.775 48, 340 47.775, 340 47.500 C 340 47.225, 339.775 47, 339.500 47 C 339.225 47, 339 47.225, 339 47.500 M 581 47.500 C 581 47.775, 581.225 48, 581.500 48 C 581.775 48, 582 47.775, 582 47.500 C 582 47.225, 581.775 47, 581.500 47 C 581.225 47, 581 47.225, 581 47.500 M 612 47.500 C 612 47.775, 612.225 48, 612.500 48 C 612.775 48, 613 47.775, 613 47.500 C 613 47.225, 612.775 47, 612.500 47 C 612.225 47, 612 47.225, 612 47.500 M 651 48.500 C 651 48.775, 651.225 49, 651.500 49 C 651.775 49, 652 48.775, 652 48.500 C 652 48.225, 651.775 48, 651.500 48 C 651.225 48, 651 48.225, 651 48.500 M 361 49.500 C 361 49.775, 361.225 50, 361.500 50 C 361.775 50, 362 49.775, 362 49.500 C 362 49.225, 361.775 49, 361.500 49 C 361.225 49, 361 49.225, 361 49.500 M 320 50.500 C 320 50.775, 320.225 51, 320.500 51 C 320.775 51, 321 50.775, 321 50.500 C 321 50.225, 320.775 50, 320.500 50 C 320.225 50, 320 50.225, 320 50.500 M 63 53.500 C 63 53.775, 63.225 54, 63.500 54 C 63.775 54, 64 53.775, 64 53.500 C 64 53.225, 63.775 53, 63.500 53 C 63.225 53, 63 53.225, 63 53.500 M 311 53.500 C 311 53.775, 311.225 54, 311.500 54 C 311.775 54, 312 53.775, 312 53.500 C 312 53.225, 311.775 53, 311.500 53 C 311.225 53, 311 53.225, 311 53.500 M 28 55.500 C 28 55.775, 28.225 56, 28.500 56 C 28.775 56, 29 55.775, 29 55.500 C 29 55.225, 28.775 55, 28.500 55 C 28.225 55, 28 55.225, 28 55.500 M 341 55.500 C 341 55.775, 341.225 56, 341.500 56 C 341.775 56, 342 55.775, 342 55.500 C 342 55.225, 341.775 55, 341.500 55 C 341.225 55, 341 55.225, 341 55.500 M 357 56.500 C 357 56.775, 357.225 57, 357.500 57 C 357.775 57, 358 56.775, 358 56.500 C 358 56.225, 357.775 56, 357.500 56 C 357.225 56, 357 56.225, 357 56.500 M 123 58.500 C 123 58.775, 123.225 59, 123.500 59 C 123.775 59, 124 58.775, 124 58.500 C 124 58.225, 123.775 58, 123.500 58 C 123.225 58, 123 58.225, 123 58.500 M 359 58.500 C 359 58.775, 359.225 59, 359.500 59 C 359.775 59, 360 58.775, 360 58.500 C 360 58.225, 359.775 58, 359.500 58 C 359.225 58, 359 58.225, 359 58.500 M 28 59.500 C 28 59.775, 28.225 60, 28.500 60 C 28.775 60, 29 59.775, 29 59.500 C 29 59.225, 28.775 59, 28.500 59 C 28.225 59, 28 59.225, 28 59.500 M 514 59.500 C 514 59.775, 514.225 60, 514.500 60 C 514.775 60, 515 59.775, 515 59.500 C 515 59.225, 514.775 59, 514.500 59 C 514.225 59, 514 59.225, 514 59.500 M 521 59.500 C 521 59.775, 521.225 60, 521.500 60 C 521.775 60, 522 59.775, 522 59.500 C 522 59.225, 521.775 59, 521.500 59 C 521.225 59, 521 59.225, 521 59.500 M 122.405 61.155 C 121.962 61.870, 122.130 62.038, 122.845 61.595 C 123.480 61.203, 124 60.684, 124 60.441 C 124 59.607, 123.117 60.002, 122.405 61.155 M 449.380 61.878 C 441.956 63.178, 436.012 69.121, 436.004 75.250 C 436 77.767, 436.321 78, 439.793 78 C 443.185 78, 443.688 77.664, 444.543 74.831 C 445.919 70.275, 449.749 67.842, 455.840 67.656 C 462.645 67.448, 466.272 70.716, 466.409 77.177 L 466.500 81.491 456.696 82.630 C 444.595 84.036, 438.716 86.186, 435.809 90.268 C 433.499 93.512, 431.840 101.915, 433.185 103.554 C 433.612 104.074, 434.982 105.756, 436.230 107.291 C 441.282 113.503, 452.729 114.333, 461.149 109.098 C 466.107 106.016, 468.108 105.318, 467.882 106.750 C 467.255 110.718, 468.112 112, 471.393 112 C 473.565 112, 475.005 111.431, 475.393 110.418 C 476.446 107.674, 476.039 76.683, 474.895 72.500 C 474.293 70.300, 473.058 67.650, 472.151 66.612 C 468.477 62.410, 458.357 60.306, 449.380 61.878 M 310.690 63.365 C 309.907 65.406, 309.810 108.342, 310.585 110.360 C 311.248 112.089, 315.553 112.571, 317.769 111.164 C 318.748 110.543, 318.976 104.906, 318.769 86.430 L 318.500 62.500 314.877 62.197 C 312.399 61.990, 311.076 62.359, 310.690 63.365 M 351.500 63 C 351.840 63.550, 352.343 64, 352.618 64 C 352.893 64, 352.840 63.550, 352.500 63 C 352.160 62.450, 351.657 62, 351.382 62 C 351.107 62, 351.160 62.450, 351.500 63 M 471.500 64 C 471.840 64.550, 472.343 65, 472.618 65 C 472.893 65, 472.840 64.550, 472.500 64 C 472.160 63.450, 471.657 63, 471.382 63 C 471.107 63, 471.160 63.450, 471.500 64 M 308.158 66 C 308.158 67.375, 308.385 67.938, 308.662 67.250 C 308.940 66.563, 308.940 65.438, 308.662 64.750 C 308.385 64.063, 308.158 64.625, 308.158 66 M 531.500 65 C 531.840 65.550, 532.343 66, 532.618 66 C 532.893 66, 532.840 65.550, 532.500 65 C 532.160 64.450, 531.657 64, 531.382 64 C 531.107 64, 531.160 64.450, 531.500 65 M 570 64.500 C 570 64.775, 570.225 65, 570.500 65 C 570.775 65, 571 64.775, 571 64.500 C 571 64.225, 570.775 64, 570.500 64 C 570.225 64, 570 64.225, 570 64.500 M 62 65.500 C 62 65.775, 62.225 66, 62.500 66 C 62.775 66, 63 65.775, 63 65.500 C 63 65.225, 62.775 65, 62.500 65 C 62.225 65, 62 65.225, 62 65.500 M 335 65.500 C 335 65.775, 335.225 66, 335.500 66 C 335.775 66, 336 65.775, 336 65.500 C 336 65.225, 335.775 65, 335.500 65 C 335.225 65, 335 65.225, 335 65.500 M 337 66.500 C 337 66.775, 337.225 67, 337.500 67 C 337.775 67, 338 66.775, 338 66.500 C 338 66.225, 337.775 66, 337.500 66 C 337.225 66, 337 66.225, 337 66.500 M 572 76.500 C 572 82.833, 572.397 87, 573 87 C 573.603 87, 574 82.833, 574 76.500 C 574 70.167, 573.603 66, 573 66 C 572.397 66, 572 70.167, 572 76.500 M 508.411 69.891 C 502.132 73.720, 501 76.285, 501 86.685 C 501 98.122, 502.361 101.353, 508.316 104.057 C 513.505 106.412, 515.958 106.464, 520.467 104.315 C 529.882 99.825, 531.663 80.087, 523.441 71.368 C 520.771 68.538, 519.564 68.001, 515.882 68.004 C 513.356 68.006, 510.192 68.805, 508.411 69.891 M 672.621 69.750 C 671.774 72.632, 672.584 82.354, 673.871 84.759 C 674.531 85.991, 675.785 87, 676.658 87 C 677.949 87, 678.015 86.723, 677.011 85.513 C 675.201 83.332, 675.302 74.843, 677.152 73.676 C 678.442 72.862, 678.344 72.396, 676.462 70.364 C 673.843 67.538, 673.296 67.451, 672.621 69.750 M 581 69.500 C 581 69.775, 581.225 70, 581.500 70 C 581.775 70, 582 69.775, 582 69.500 C 582 69.225, 581.775 69, 581.500 69 C 581.225 69, 581 69.225, 581 69.500 M 601 69.500 C 601 69.775, 601.225 70, 601.500 70 C 601.775 70, 602 69.775, 602 69.500 C 602 69.225, 601.775 69, 601.500 69 C 601.225 69, 601 69.225, 601 69.500 M 653 71 C 652.099 71.582, 651.975 71.975, 652.691 71.985 C 653.346 71.993, 654.160 71.550, 654.500 71 C 655.267 69.758, 654.921 69.758, 653 71 M 60 71.500 C 60 71.775, 60.225 72, 60.500 72 C 60.775 72, 61 71.775, 61 71.500 C 61 71.225, 60.775 71, 60.500 71 C 60.225 71, 60 71.225, 60 71.500 M 476 71.500 C 476 71.775, 476.225 72, 476.500 72 C 476.775 72, 477 71.775, 477 71.500 C 477 71.225, 476.775 71, 476.500 71 C 476.225 71, 476 71.225, 476 71.500 M 647.121 75.333 C 645.954 77.991, 645 80.836, 645 81.656 C 645 85.057, 641.547 82.257, 639.915 77.532 C 638.971 74.801, 637.636 72.379, 636.948 72.149 C 636.121 71.874, 635.896 72.372, 636.283 73.616 C 638.913 82.074, 642.667 88.766, 643.991 87.357 C 645.485 85.767, 650.157 72.971, 649.697 71.730 C 649.446 71.053, 648.287 72.675, 647.121 75.333 M 434 72.500 C 434 72.775, 434.225 73, 434.500 73 C 434.775 73, 435 72.775, 435 72.500 C 435 72.225, 434.775 72, 434.500 72 C 434.225 72, 434 72.225, 434 72.500 M 580.320 73.612 C 579.526 75.676, 580.491 86.021, 581.500 86.262 C 582.050 86.393, 582.732 83.892, 583.016 80.704 C 583.536 74.859, 584.761 73.046, 588.215 73.015 C 590.676 72.993, 592 76.112, 592 81.934 C 592 84.720, 592.450 87, 593 87 C 594.316 87, 594.293 76.416, 592.972 73.948 C 592.119 72.354, 590.990 72.067, 586.346 72.263 C 583.266 72.394, 580.555 73, 580.320 73.612 M 600.598 72.736 C 599.565 73.768, 599.938 87, 601 87 C 601.550 87, 602 85.004, 602 82.565 C 602 80.126, 602.424 77.014, 602.943 75.650 C 603.641 73.813, 603.537 73.036, 602.541 72.654 C 601.801 72.370, 600.927 72.407, 600.598 72.736 M 609.048 73.838 C 610.789 75.248, 611.360 76.822, 611.496 80.588 C 611.727 86.943, 611.804 87.239, 613.039 86.476 C 614.508 85.568, 613.463 73.909, 611.818 72.867 C 611.093 72.407, 609.663 72.024, 608.639 72.015 C 606.976 72.002, 607.019 72.195, 609.048 73.838 M 621.223 73.557 C 616.983 76.526, 619.014 87, 623.829 87 C 624.473 87, 624.100 86.100, 623 85 C 620.131 82.131, 620.258 75.633, 623.223 73.557 C 624.445 72.701, 624.995 72, 624.445 72 C 623.895 72, 622.445 72.701, 621.223 73.557 M 626 72.500 C 626 72.775, 626.225 73, 626.500 73 C 626.775 73, 627 72.775, 627 72.500 C 627 72.225, 626.775 72, 626.500 72 C 626.225 72, 626 72.225, 626 72.500 M 628 72.671 C 628 73.040, 628.633 74.053, 629.408 74.921 C 632.383 78.259, 631.372 84.500, 627.611 86.020 C 625.692 86.795, 625.755 86.879, 628.301 86.937 C 633.331 87.050, 635.234 78.408, 631.204 73.750 C 629.681 71.990, 628 71.424, 628 72.671 M 654.980 73.524 C 654.284 74.362, 653.993 75.327, 654.333 75.667 C 655.060 76.393, 658 74.156, 658 72.878 C 658 71.500, 656.370 71.849, 654.980 73.524 M 662 72.514 C 662 72.796, 662.563 73.935, 663.250 75.044 C 664.264 76.681, 664.244 77.220, 663.143 77.906 C 662.118 78.544, 662.079 78.930, 662.983 79.490 C 663.751 79.964, 663.952 81.440, 663.544 83.615 C 663.048 86.260, 663.243 87, 664.436 87 C 667.369 87, 667.782 76.852, 664.985 73.482 C 663.795 72.048, 662 71.466, 662 72.514 M 685.400 72.767 C 681.473 75.382, 681.297 84.018, 685.129 86.069 C 687.661 87.424, 688.584 86.730, 686.524 85.020 C 684.715 83.518, 684.488 80, 686.200 80 C 687.133 80, 687.133 79.733, 686.200 78.800 C 684.417 77.017, 684.741 75.209, 687.067 73.964 C 688.680 73.101, 689.682 73.217, 691.629 74.493 C 694.056 76.083, 694.431 78.500, 692.250 78.500 C 691.654 78.500, 690.890 78.777, 690.552 79.115 C 690.036 79.631, 692.256 79.637, 695.250 79.128 C 696.672 78.886, 695.996 75.307, 694.250 73.830 C 692.344 72.218, 687.160 71.595, 685.400 72.767 M 696 72.500 C 696 72.775, 696.225 73, 696.500 73 C 696.775 73, 697 72.775, 697 72.500 C 697 72.225, 696.775 72, 696.500 72 C 696.225 72, 696 72.225, 696 72.500 M 330 73.500 C 330 73.775, 330.225 74, 330.500 74 C 330.775 74, 331 73.775, 331 73.500 C 331 73.225, 330.775 73, 330.500 73 C 330.225 73, 330 73.225, 330 73.500 M 351 73.500 C 351 73.775, 351.225 74, 351.500 74 C 351.775 74, 352 73.775, 352 73.500 C 352 73.225, 351.775 73, 351.500 73 C 351.225 73, 351 73.225, 351 73.500 M 31 74.500 C 31 74.775, 31.225 75, 31.500 75 C 31.775 75, 32 74.775, 32 74.500 C 32 74.225, 31.775 74, 31.500 74 C 31.225 74, 31 74.225, 31 74.500 M 348 74.500 C 348 74.775, 348.225 75, 348.500 75 C 348.775 75, 349 74.775, 349 74.500 C 349 74.225, 348.775 74, 348.500 74 C 348.225 74, 348 74.225, 348 74.500 M 617 74.500 C 617 74.775, 617.225 75, 617.500 75 C 617.775 75, 618 74.775, 618 74.500 C 618 74.225, 617.775 74, 617.500 74 C 617.225 74, 617 74.225, 617 74.500 M 658 76.500 C 658 76.775, 658.225 77, 658.500 77 C 658.775 77, 659 76.775, 659 76.500 C 659 76.225, 658.775 76, 658.500 76 C 658.225 76, 658 76.225, 658 76.500 M 689 76.500 C 689 76.775, 689.225 77, 689.500 77 C 689.775 77, 690 76.775, 690 76.500 C 690 76.225, 689.775 76, 689.500 76 C 689.225 76, 689 76.225, 689 76.500 M 188 77.500 C 188 77.775, 188.225 78, 188.500 78 C 188.775 78, 189 77.775, 189 77.500 C 189 77.225, 188.775 77, 188.500 77 C 188.225 77, 188 77.225, 188 77.500 M 615 77.500 C 615 77.775, 615.225 78, 615.500 78 C 615.775 78, 616 77.775, 616 77.500 C 616 77.225, 615.775 77, 615.500 77 C 615.225 77, 615 77.225, 615 77.500 M 642.500 78 C 642.840 78.550, 643.343 79, 643.618 79 C 643.893 79, 643.840 78.550, 643.500 78 C 643.160 77.450, 642.657 77, 642.382 77 C 642.107 77, 642.160 77.450, 642.500 78 M 502 78.500 C 502 78.775, 502.225 79, 502.500 79 C 502.775 79, 503 78.775, 503 78.500 C 503 78.225, 502.775 78, 502.500 78 C 502.225 78, 502 78.225, 502 78.500 M 477.300 84 C 477.300 87.025, 477.487 88.263, 477.716 86.750 C 477.945 85.237, 477.945 82.763, 477.716 81.250 C 477.487 79.737, 477.300 80.975, 477.300 84 M 652 79.500 C 652 79.775, 652.225 80, 652.500 80 C 652.775 80, 653 79.775, 653 79.500 C 653 79.225, 652.775 79, 652.500 79 C 652.225 79, 652 79.225, 652 79.500 M 660 79.500 C 660 79.775, 660.225 80, 660.500 80 C 660.775 80, 661 79.775, 661 79.500 C 661 79.225, 660.775 79, 660.500 79 C 660.225 79, 660 79.225, 660 79.500 M 688 79.500 C 688 79.775, 688.225 80, 688.500 80 C 688.775 80, 689 79.775, 689 79.500 C 689 79.225, 688.775 79, 688.500 79 C 688.225 79, 688 79.225, 688 79.500 M 465 80.500 C 465 80.775, 465.225 81, 465.500 81 C 465.775 81, 466 80.775, 466 80.500 C 466 80.225, 465.775 80, 465.500 80 C 465.225 80, 465 80.225, 465 80.500 M 653.663 81.820 C 652.127 83.517, 652.157 83.791, 654.108 85.886 C 656.351 88.293, 658.098 88.028, 656.073 85.588 C 655.170 84.500, 655.143 83.601, 655.966 82.064 C 657.331 79.513, 655.889 79.360, 653.663 81.820 M 369 81.500 C 369 81.775, 369.225 82, 369.500 82 C 369.775 82, 370 81.775, 370 81.500 C 370 81.225, 369.775 81, 369.500 81 C 369.225 81, 369 81.225, 369 81.500 M 450 81.500 C 450 81.775, 450.225 82, 450.500 82 C 450.775 82, 451 81.775, 451 81.500 C 451 81.225, 450.775 81, 450.500 81 C 450.225 81, 450 81.225, 450 81.500 M 526 81.500 C 526 81.775, 526.225 82, 526.500 82 C 526.775 82, 527 81.775, 527 81.500 C 527 81.225, 526.775 81, 526.500 81 C 526.225 81, 526 81.225, 526 81.500 M 370.184 86.219 L 370.500 89.500 382.500 89.500 L 394.500 89.500 394.500 86.500 L 394.500 83.500 382.184 83.219 L 369.869 82.937 370.184 86.219 M 679 84.500 C 679 84.775, 679.225 85, 679.500 85 C 679.775 85, 680 84.775, 680 84.500 C 680 84.225, 679.775 84, 679.500 84 C 679.225 84, 679 84.225, 679 84.500 M 691.920 85.596 C 690.764 86.990, 690.897 87.148, 692.970 86.846 C 694.275 86.656, 695.529 85.938, 695.755 85.250 C 696.348 83.451, 693.486 83.709, 691.920 85.596 M 50 85.500 C 50 85.775, 50.225 86, 50.500 86 C 50.775 86, 51 85.775, 51 85.500 C 51 85.225, 50.775 85, 50.500 85 C 50.225 85, 50 85.225, 50 85.500 M 458.772 88.108 C 450.047 89.045, 445.369 90.635, 443.503 93.299 C 441.881 95.615, 441.417 100.478, 442.907 99.558 C 443.405 99.249, 443.592 99.845, 443.321 100.882 C 442.635 103.504, 446.536 106, 451.321 106 C 455.830 106, 460.392 104.047, 464.261 100.459 C 466.528 98.356, 467 97.075, 467 93.019 C 467 90.323, 466.663 87.953, 466.250 87.752 C 465.837 87.551, 462.472 87.711, 458.772 88.108 M 673 88.500 C 673 88.775, 673.225 89, 673.500 89 C 673.775 89, 674 88.775, 674 88.500 C 674 88.225, 673.775 88, 673.500 88 C 673.225 88, 673 88.225, 673 88.500 M 641 89.500 C 641 89.775, 641.225 90, 641.500 90 C 641.775 90, 642 89.775, 642 89.500 C 642 89.225, 641.775 89, 641.500 89 C 641.225 89, 641 89.225, 641 89.500 M 654 89.500 C 654 89.775, 654.225 90, 654.500 90 C 654.775 90, 655 89.775, 655 89.500 C 655 89.225, 654.775 89, 654.500 89 C 654.225 89, 654 89.225, 654 89.500 M 526 91.500 C 526 91.775, 526.225 92, 526.500 92 C 526.775 92, 527 91.775, 527 91.500 C 527 91.225, 526.775 91, 526.500 91 C 526.225 91, 526 91.225, 526 91.500 M 538 93.500 C 538 93.775, 538.225 94, 538.500 94 C 538.775 94, 539 93.775, 539 93.500 C 539 93.225, 538.775 93, 538.500 93 C 538.225 93, 538 93.225, 538 93.500 M 537 98.500 C 537 98.775, 537.225 99, 537.500 99 C 537.775 99, 538 98.775, 538 98.500 C 538 98.225, 537.775 98, 537.500 98 C 537.225 98, 537 98.225, 537 98.500 M 535 103.500 C 535 103.775, 535.225 104, 535.500 104 C 535.775 104, 536 103.775, 536 103.500 C 536 103.225, 535.775 103, 535.500 103 C 535.225 103, 535 103.225, 535 103.500 M 450.813 104.683 C 451.534 104.972, 452.397 104.936, 452.729 104.604 C 453.061 104.272, 452.471 104.036, 451.417 104.079 C 450.252 104.127, 450.015 104.364, 450.813 104.683 M 409 107.500 C 409 107.775, 409.225 108, 409.500 108 C 409.775 108, 410 107.775, 410 107.500 C 410 107.225, 409.775 107, 409.500 107 C 409.225 107, 409 107.225, 409 107.500 M 572 119.059 C 572 126.177, 572.356 129.898, 573 129.500 C 573.563 129.152, 574 124.323, 574 118.441 C 574 112.147, 573.603 108, 573 108 C 572.394 108, 572 112.353, 572 119.059 M 638 118.940 C 638 128.810, 638.197 130.138, 639.582 129.607 C 640.452 129.273, 641.647 129, 642.237 129 C 642.827 129, 642.459 128.059, 641.418 126.910 C 640.378 125.760, 639.510 124.073, 639.489 123.160 C 639.434 120.691, 641.873 116.015, 643.276 115.900 C 643.949 115.845, 643.397 115.493, 642.050 115.117 C 640.272 114.621, 639.559 113.683, 639.453 111.704 C 639.373 110.202, 639.013 108.680, 638.654 108.320 C 638.294 107.961, 638 112.740, 638 118.940 M 678 108.500 C 678 108.775, 678.225 109, 678.500 109 C 678.775 109, 679 108.775, 679 108.500 C 679 108.225, 678.775 108, 678.500 108 C 678.225 108, 678 108.225, 678 108.500 M 113 110.500 C 113 110.775, 113.225 111, 113.500 111 C 113.775 111, 114 110.775, 114 110.500 C 114 110.225, 113.775 110, 113.500 110 C 113.225 110, 113 110.225, 113 110.500 M 460 111.500 C 460 111.775, 460.225 112, 460.500 112 C 460.775 112, 461 111.775, 461 111.500 C 461 111.225, 460.775 111, 460.500 111 C 460.225 111, 460 111.225, 460 111.500 M 466 111.500 C 466 111.775, 466.225 112, 466.500 112 C 466.775 112, 467 111.775, 467 111.500 C 467 111.225, 466.775 111, 466.500 111 C 466.225 111, 466 111.225, 466 111.500 M 675.790 112.750 C 675.546 113.713, 675.547 117.550, 675.792 121.278 C 676.141 126.603, 676.640 128.272, 678.118 129.063 C 679.566 129.838, 680 129.730, 680 128.594 C 680 127.782, 679.550 126.840, 679 126.500 C 677.461 125.549, 677.810 118.403, 679.463 117.031 C 680.743 115.968, 680.729 115.516, 679.348 113.408 C 677.478 110.555, 676.397 110.355, 675.790 112.750 M 476 112.500 C 476 112.775, 476.225 113, 476.500 113 C 476.775 113, 477 112.775, 477 112.500 C 477 112.225, 476.775 112, 476.500 112 C 476.225 112, 476 112.225, 476 112.500 M 592 112.500 C 592 112.775, 592.225 113, 592.500 113 C 592.775 113, 593 112.775, 593 112.500 C 593 112.225, 592.775 112, 592.500 112 C 592.225 112, 592 112.225, 592 112.500 M 628 112.500 C 628 112.775, 628.225 113, 628.500 113 C 628.775 113, 629 112.775, 629 112.500 C 629 112.225, 628.775 112, 628.500 112 C 628.225 112, 628 112.225, 628 112.500 M 668 112.500 C 668 112.775, 668.225 113, 668.500 113 C 668.775 113, 669 112.775, 669 112.500 C 669 112.225, 668.775 112, 668.500 112 C 668.225 112, 668 112.225, 668 112.500 M 492 113.500 C 492 113.775, 492.225 114, 492.500 114 C 492.775 114, 493 113.775, 493 113.500 C 493 113.225, 492.775 113, 492.500 113 C 492.225 113, 492 113.225, 492 113.500 M 635 113.500 C 635 113.775, 635.225 114, 635.500 114 C 635.775 114, 636 113.775, 636 113.500 C 636 113.225, 635.775 113, 635.500 113 C 635.225 113, 635 113.225, 635 113.500 M 580.642 116.750 C 579.818 119.679, 580.027 127.426, 580.973 128.956 C 581.944 130.527, 582.533 128.763, 583.299 122 C 583.517 120.075, 584.037 117.713, 584.455 116.750 C 585.037 115.407, 584.739 115, 583.174 115 C 582.053 115, 580.913 115.787, 580.642 116.750 M 586 115.500 C 586 115.775, 586.225 116, 586.500 116 C 586.775 116, 587 115.775, 587 115.500 C 587 115.225, 586.775 115, 586.500 115 C 586.225 115, 586 115.225, 586 115.500 M 590 117 C 591.515 118.515, 592 120.333, 592 124.500 C 592 127.525, 592.450 130, 593 130 C 594.079 130, 594.395 119.194, 593.393 116.582 C 593.059 115.712, 591.709 115, 590.393 115 L 588 115 590 117 M 600.615 117.465 C 599.727 118.820, 599 121.211, 599 122.776 C 599 125.822, 602.495 130.430, 604.067 129.458 C 604.606 129.125, 604.365 128.222, 603.508 127.365 C 601.126 124.983, 601.560 118.421, 604.223 116.557 C 606.431 115.010, 606.432 115, 604.338 115 C 603.178 115, 601.503 116.109, 600.615 117.465 M 609.479 116.976 C 610.462 118.063, 611.679 118.698, 612.182 118.387 C 613.429 117.617, 611.143 115, 609.223 115 C 607.932 115, 607.973 115.312, 609.479 116.976 M 618 119.935 C 618 126.598, 619.396 130, 622.130 130 C 624.179 130, 624.210 129.890, 622.655 128.171 C 621.525 126.922, 621 124.545, 621 120.671 C 621 116.297, 620.657 115, 619.500 115 C 618.369 115, 618 116.215, 618 119.935 M 622 115.500 C 622 115.775, 622.225 116, 622.500 116 C 622.775 116, 623 115.775, 623 115.500 C 623 115.225, 622.775 115, 622.500 115 C 622.225 115, 622 115.225, 622 115.500 M 629.667 115.667 C 629.300 116.033, 629 118.453, 629 121.044 C 629 124.128, 628.451 126.210, 627.412 127.073 C 625.987 128.256, 626.048 128.474, 628.004 129.197 C 631.410 130.457, 632 129.385, 632 121.941 C 632 115.548, 631.400 113.934, 629.667 115.667 M 647.089 116.871 C 649.995 119.224, 650.232 124.981, 647.545 127.950 C 645.522 130.186, 646.067 130.569, 649.023 128.988 C 653.607 126.535, 652.160 115, 647.268 115 L 644.778 115 647.089 116.871 M 658.345 116.543 C 657.414 118.970, 658.505 119.205, 660.494 117.006 C 662.151 115.175, 662.163 115, 660.624 115 C 659.696 115, 658.671 115.694, 658.345 116.543 M 667.057 117.107 C 667.825 118.541, 667.859 119.541, 667.164 120.236 C 666.470 120.930, 666.506 121.837, 667.277 123.072 C 668.180 124.518, 668.032 125.307, 666.551 126.944 C 665.527 128.075, 665.173 129, 665.763 129 C 666.353 129, 667.548 129.273, 668.418 129.607 C 669.759 130.122, 670 129.238, 670 123.807 C 670 120.157, 669.484 116.884, 668.800 116.200 C 666.874 114.274, 665.831 114.816, 667.057 117.107 M 687.557 117.223 C 684.904 121.010, 686.289 129, 689.598 129 C 690.776 129, 690.964 128.644, 690.256 127.750 C 688.542 125.584, 688.964 117.125, 690.840 116.030 C 692.377 115.132, 692.375 115.059, 690.807 115.030 C 689.875 115.014, 688.413 116, 687.557 117.223 M 695.977 116.977 C 697.066 118.066, 697.692 119.639, 697.370 120.477 C 696.996 121.452, 697.365 122, 698.393 122 C 699.277 122, 699.986 121.213, 699.968 120.250 C 699.924 117.815, 697.603 115, 695.640 115 C 694.234 115, 694.282 115.282, 695.977 116.977 M 683 117.500 C 683 117.775, 683.225 118, 683.500 118 C 683.775 118, 684 117.775, 684 117.500 C 684 117.225, 683.775 117, 683.500 117 C 683.225 117, 683 117.225, 683 117.500 M 84 119.500 C 84 119.775, 84.225 120, 84.500 120 C 84.775 120, 85 119.775, 85 119.500 C 85 119.225, 84.775 119, 84.500 119 C 84.225 119, 84 119.225, 84 119.500 M 680 119.500 C 680 119.775, 680.225 120, 680.500 120 C 680.775 120, 681 119.775, 681 119.500 C 681 119.225, 680.775 119, 680.500 119 C 680.225 119, 680 119.225, 680 119.500 M 67 122.500 C 67 122.775, 67.225 123, 67.500 123 C 67.775 123, 68 122.775, 68 122.500 C 68 122.225, 67.775 122, 67.500 122 C 67.225 122, 67 122.225, 67 122.500 M 84 122.500 C 84 122.775, 84.225 123, 84.500 123 C 84.775 123, 85 122.775, 85 122.500 C 85 122.225, 84.775 122, 84.500 122 C 84.225 122, 84 122.225, 84 122.500 M 658.002 123.498 C 656.437 125.383, 657.539 130, 659.554 130 C 660.776 130, 660.856 129.599, 659.966 127.936 C 659.157 126.426, 659.161 125.511, 659.979 124.525 C 660.646 123.722, 660.719 122.945, 660.162 122.600 C 659.647 122.282, 658.675 122.686, 658.002 123.498 M 674 122.500 C 674 122.775, 674.225 123, 674.500 123 C 674.775 123, 675 122.775, 675 122.500 C 675 122.225, 674.775 122, 674.500 122 C 674.225 122, 674 122.225, 674 122.500 M 36 123.500 C 36 123.775, 36.225 124, 36.500 124 C 36.775 124, 37 123.775, 37 123.500 C 37 123.225, 36.775 123, 36.500 123 C 36.225 123, 36 123.225, 36 123.500 M 633.232 126 C 633.232 127.925, 633.438 128.713, 633.689 127.750 C 633.941 126.787, 633.941 125.213, 633.689 124.250 C 633.438 123.287, 633.232 124.075, 633.232 126 M 635 124 C 635 124.733, 635.300 125.033, 635.667 124.667 C 636.033 124.300, 636.033 123.700, 635.667 123.333 C 635.300 122.967, 635 123.267, 635 124 M 674 124.500 C 674 124.775, 674.225 125, 674.500 125 C 674.775 125, 675 124.775, 675 124.500 C 675 124.225, 674.775 124, 674.500 124 C 674.225 124, 674 124.225, 674 124.500 M 609.904 127.615 C 608.744 129.013, 608.818 129.181, 610.449 128.865 C 611.486 128.664, 612.522 127.938, 612.750 127.250 C 613.344 125.466, 611.490 125.704, 609.904 127.615 M 681 126.500 C 681 126.775, 681.225 127, 681.500 127 C 681.775 127, 682 126.775, 682 126.500 C 682 126.225, 681.775 126, 681.500 126 C 681.225 126, 681 126.225, 681 126.500 M 694 126.500 C 694 126.775, 694.225 127, 694.500 127 C 694.775 127, 695 126.775, 695 126.500 C 695 126.225, 694.775 126, 694.500 126 C 694.225 126, 694 126.225, 694 126.500 M 697 127.500 C 695.980 128.729, 696.049 129, 697.378 129 C 698.270 129, 699 128.325, 699 127.500 C 699 126.675, 698.830 126, 698.622 126 C 698.415 126, 697.685 126.675, 697 127.500 M 635 127.500 C 635 127.775, 635.225 128, 635.500 128 C 635.775 128, 636 127.775, 636 127.500 C 636 127.225, 635.775 127, 635.500 127 C 635.225 127, 635 127.225, 635 127.500 M 672 127.500 C 672 127.775, 672.225 128, 672.500 128 C 672.775 128, 673 127.775, 673 127.500 C 673 127.225, 672.775 127, 672.500 127 C 672.225 127, 672 127.225, 672 127.500 M 590 129.500 C 590 129.775, 590.225 130, 590.500 130 C 590.775 130, 591 129.775, 591 129.500 C 591 129.225, 590.775 129, 590.500 129 C 590.225 129, 590 129.225, 590 129.500 M 579 130.500 C 579 130.775, 579.225 131, 579.500 131 C 579.775 131, 580 130.775, 580 130.500 C 580 130.225, 579.775 130, 579.500 130 C 579.225 130, 579 130.225, 579 130.500 M 677 131.500 C 677 131.775, 677.225 132, 677.500 132 C 677.775 132, 678 131.775, 678 131.500 C 678 131.225, 677.775 131, 677.500 131 C 677.225 131, 677 131.225, 677 131.500 M 693 132.500 C 693 132.775, 693.225 133, 693.500 133 C 693.775 133, 694 132.775, 694 132.500 C 694 132.225, 693.775 132, 693.500 132 C 693.225 132, 693 132.225, 693 132.500 M 85 133.500 C 85 133.775, 85.225 134, 85.500 134 C 85.775 134, 86 133.775, 86 133.500 C 86 133.225, 85.775 133, 85.500 133 C 85.225 133, 85 133.225, 85 133.500 M 85 139.500 C 85 139.775, 85.225 140, 85.500 140 C 85.775 140, 86 139.775, 86 139.500 C 86 139.225, 85.775 139, 85.500 139 C 85.225 139, 85 139.225, 85 139.500 M 87 141 C 87 141.733, 87.300 142.033, 87.667 141.667 C 88.033 141.300, 88.033 140.700, 87.667 140.333 C 87.300 139.967, 87 140.267, 87 141 M 108.079 142.200 C 108.036 143.135, 107.213 144.359, 106.250 144.920 C 104.592 145.886, 104.593 145.941, 106.281 145.970 C 108.232 146.003, 109.486 143.807, 108.673 141.783 C 108.342 140.957, 108.130 141.106, 108.079 142.200 M 62.500 145 C 60.870 145.701, 60.812 145.872, 62.191 145.930 C 63.121 145.968, 64.160 145.550, 64.500 145 C 65.211 143.850, 65.176 143.850, 62.500 145 M 248.613 145.183 C 248.902 145.650, 249.557 145.774, 250.069 145.457 C 251.377 144.649, 251.230 144.333, 249.544 144.333 C 248.743 144.333, 248.324 144.716, 248.613 145.183 M 44.333 145.667 C 44.700 146.033, 45.300 146.033, 45.667 145.667 C 46.033 145.300, 45.733 145, 45 145 C 44.267 145, 43.967 145.300, 44.333 145.667 M 47 145.500 C 47 145.775, 47.225 146, 47.500 146 C 47.775 146, 48 145.775, 48 145.500 C 48 145.225, 47.775 145, 47.500 145 C 47.225 145, 47 145.225, 47 145.500 M 88.333 145.667 C 88.700 146.033, 89.300 146.033, 89.667 145.667 C 90.033 145.300, 89.733 145, 89 145 C 88.267 145, 87.967 145.300, 88.333 145.667 M 146.333 145.667 C 146.700 146.033, 147.300 146.033, 147.667 145.667 C 148.033 145.300, 147.733 145, 147 145 C 146.267 145, 145.967 145.300, 146.333 145.667 M 163 145.500 C 163 145.775, 163.225 146, 163.500 146 C 163.775 146, 164 145.775, 164 145.500 C 164 145.225, 163.775 145, 163.500 145 C 163.225 145, 163 145.225, 163 145.500 M 232 145.500 C 232 145.775, 232.225 146, 232.500 146 C 232.775 146, 233 145.775, 233 145.500 C 233 145.225, 232.775 145, 232.500 145 C 232.225 145, 232 145.225, 232 145.500 M 246 145.500 C 246 145.775, 246.225 146, 246.500 146 C 246.775 146, 247 145.775, 247 145.500 C 247 145.225, 246.775 145, 246.500 145 C 246.225 145, 246 145.225, 246 145.500 M 42 148.500 C 42 148.775, 42.225 149, 42.500 149 C 42.775 149, 43 148.775, 43 148.500 C 43 148.225, 42.775 148, 42.500 148 C 42.225 148, 42 148.225, 42 148.500 M 559 148.500 C 559 148.775, 559.225 149, 559.500 149 C 559.775 149, 560 148.775, 560 148.500 C 560 148.225, 559.775 148, 559.500 148 C 559.225 148, 559 148.225, 559 148.500" stroke="none" fill="#fbfbfb" fill-rule="evenodd"/><path d="M 556.493 11.250 C 556.194 12.488, 556.072 43.650, 556.224 80.500 C 556.497 146.741, 556.523 147.500, 558.500 147.500 C 560.477 147.500, 560.503 146.741, 560.776 80.500 C 560.928 43.650, 560.806 12.488, 560.507 11.250 C 560.207 10.012, 559.304 9, 558.500 9 C 557.696 9, 556.793 10.012, 556.493 11.250 M 19.371 17.477 C 18.809 18.941, 20.210 27.553, 30.435 85.500 C 33.346 102, 36.715 121.575, 37.921 129 C 41.272 149.632, 39.430 147.451, 53.785 147.781 C 68.233 148.112, 67.070 149.246, 68.953 133 C 69.622 127.225, 71.257 114.723, 72.585 105.218 C 73.913 95.713, 75 87.726, 75 87.468 C 75 87.211, 75.378 87, 75.840 87 C 76.767 87, 78.588 96.914, 79.514 107 C 79.842 110.575, 80.500 115.750, 80.976 118.500 C 81.452 121.250, 82.417 128.375, 83.122 134.334 C 83.826 140.293, 84.953 145.918, 85.626 146.834 C 86.643 148.219, 88.715 148.493, 97.914 148.461 C 104.788 148.437, 109.408 147.992, 110.114 147.286 C 110.739 146.661, 112.973 135.879, 115.079 123.325 C 118.465 103.143, 124.541 68.352, 131.138 31.365 C 132.329 24.691, 133.024 18.504, 132.683 17.615 C 132.164 16.264, 130.271 16, 121.109 16 L 110.155 16 109.146 19.250 C 108.591 21.037, 107.645 26.550, 107.043 31.500 C 106.441 36.450, 105.297 44.775, 104.499 50 C 101.436 70.075, 98.990 88.633, 98.995 91.750 C 99.001 95.447, 97.289 96.146, 96.546 92.750 C 96.275 91.513, 95.382 84.875, 94.562 78 C 93.742 71.125, 92.365 60.325, 91.502 54 C 90.639 47.675, 89.257 37.126, 88.430 30.558 C 87.603 23.990, 86.438 18.028, 85.841 17.308 C 85.096 16.411, 81.977 16, 75.913 16 C 68.298 16, 66.931 16.260, 66.069 17.870 C 65.519 18.899, 64.114 26.662, 62.948 35.120 C 61.782 43.579, 60.005 56.350, 58.999 63.500 C 57.994 70.650, 56.600 80.670, 55.903 85.768 C 55.206 90.865, 54.302 94.690, 53.895 94.268 C 53.487 93.845, 51.731 82.250, 49.993 68.500 C 45.865 35.857, 43.322 18.330, 42.525 17.041 C 42.143 16.422, 37.431 16, 30.910 16 C 22.156 16, 19.823 16.299, 19.371 17.477 M 144.250 17.141 C 143.276 18.122, 143 32.574, 143 82.578 C 143 138.889, 143.187 146.910, 144.526 148.022 C 145.640 148.946, 148.768 149.138, 156.102 148.734 C 161.630 148.430, 166.456 147.878, 166.826 147.509 C 167.197 147.140, 167.725 136.411, 168 123.669 L 168.500 100.500 179.500 99.956 C 188.456 99.512, 191.522 98.935, 196 96.850 C 203.070 93.559, 209.106 87.973, 213.340 80.805 C 217.837 73.191, 219.381 65.361, 218.793 53.149 C 218.391 44.810, 217.838 42.252, 215.234 36.687 C 211.253 28.179, 204.989 21.930, 197.407 18.903 C 191.911 16.708, 189.900 16.521, 168.500 16.213 C 150.972 15.960, 145.203 16.181, 144.250 17.141 M 230.200 17.200 C 228.466 18.934, 228.466 146.066, 230.200 147.800 C 232.117 149.717, 250.447 149.410, 252.429 147.429 C 253.824 146.033, 254 138.730, 254 82.129 C 254 33.895, 253.708 18.108, 252.800 17.200 C 251.160 15.560, 231.840 15.560, 230.200 17.200 M 22 19.500 C 22 19.775, 22.225 20, 22.500 20 C 22.775 20, 23 19.775, 23 19.500 C 23 19.225, 22.775 19, 22.500 19 C 22.225 19, 22 19.225, 22 19.500 M 39 19.500 C 39 19.775, 39.225 20, 39.500 20 C 39.775 20, 40 19.775, 40 19.500 C 40 19.225, 39.775 19, 39.500 19 C 39.225 19, 39 19.225, 39 19.500 M 81.813 19.683 C 82.534 19.972, 83.397 19.936, 83.729 19.604 C 84.061 19.272, 83.471 19.036, 82.417 19.079 C 81.252 19.127, 81.015 19.364, 81.813 19.683 M 232 19.500 C 232 19.775, 232.225 20, 232.500 20 C 232.775 20, 233 19.775, 233 19.500 C 233 19.225, 232.775 19, 232.500 19 C 232.225 19, 232 19.225, 232 19.500 M 249 19.941 C 249 20.459, 249.445 21.157, 249.989 21.493 C 250.555 21.843, 250.723 21.442, 250.382 20.552 C 249.717 18.820, 249 18.503, 249 19.941 M 111 20.500 C 111 20.775, 111.225 21, 111.500 21 C 111.775 21, 112 20.775, 112 20.500 C 112 20.225, 111.775 20, 111.500 20 C 111.225 20, 111 20.225, 111 20.500 M 82.333 21.667 C 82.700 22.033, 83.300 22.033, 83.667 21.667 C 84.033 21.300, 83.733 21, 83 21 C 82.267 21, 81.967 21.300, 82.333 21.667 M 67 22.500 C 67 22.775, 67.225 23, 67.500 23 C 67.775 23, 68 22.775, 68 22.500 C 68 22.225, 67.775 22, 67.500 22 C 67.225 22, 67 22.225, 67 22.500 M 571.200 23.200 C 569.799 24.601, 569.532 44.713, 570.885 46.848 C 571.355 47.590, 572.586 48.035, 573.620 47.836 C 575.308 47.513, 575.529 46.316, 575.784 36.131 C 575.972 28.623, 575.676 24.315, 574.911 23.393 C 573.496 21.687, 572.752 21.648, 571.200 23.200 M 591.667 22.667 C 591.300 23.033, 591 24.608, 591 26.167 C 591 28.725, 590.668 29, 587.582 29 C 582.785 29, 581.143 29.823, 579.463 33.072 C 575.585 40.571, 580.403 49.536, 587.500 48.024 C 588.050 47.907, 590.075 47.741, 592 47.655 L 595.500 47.500 595.784 36.143 C 595.972 28.626, 595.677 24.315, 594.911 23.393 C 593.641 21.862, 592.685 21.648, 591.667 22.667 M 250 23.500 C 250 23.775, 250.225 24, 250.500 24 C 250.775 24, 251 23.775, 251 23.500 C 251 23.225, 250.775 23, 250.500 23 C 250.225 23, 250 23.225, 250 23.500 M 572 35.500 C 572 41.833, 572.397 46, 573 46 C 573.603 46, 574 41.833, 574 35.500 C 574 29.167, 573.603 25, 573 25 C 572.397 25, 572 29.167, 572 35.500 M 591.813 28.250 C 591.615 30.306, 591.014 31.399, 590.176 31.225 C 589.182 31.019, 589.245 31.511, 590.426 33.198 C 592.235 35.780, 592.474 40.245, 590.957 43.081 C 590.145 44.598, 590.265 45.164, 591.500 45.638 C 592.372 45.973, 593.371 45.963, 593.718 45.615 C 594.436 44.897, 594.788 30.671, 594.172 27.250 C 593.573 23.925, 592.173 24.519, 591.813 28.250 M 635.974 27.250 C 634.474 28.854, 634.053 30.218, 634.504 32 C 634.853 33.375, 635.463 36.816, 635.860 39.646 C 636.736 45.883, 638.323 48, 642.122 48 C 644.348 48, 645 47.540, 645 45.969 C 645 44.851, 644.325 43.678, 643.500 43.362 C 641.767 42.697, 641.332 34, 643.031 34 C 645.395 34, 645.039 30.862, 642.354 28.017 C 638.944 24.404, 638.666 24.371, 635.974 27.250 M 202 27.500 C 202 27.775, 202.225 28, 202.500 28 C 202.775 28, 203 27.775, 203 27.500 C 203 27.225, 202.775 27, 202.500 27 C 202.225 27, 202 27.225, 202 27.500 M 637.207 29.041 C 636.506 30.163, 636.195 31.507, 636.517 32.027 C 636.838 32.547, 637.332 35.329, 637.614 38.210 C 638.130 43.480, 639.329 46, 641.322 46 C 642.024 46, 641.982 45.582, 641.200 44.800 C 639.320 42.920, 639.643 33.074, 641.609 32.320 C 643.089 31.752, 643.089 31.629, 641.609 30.801 C 640.724 30.306, 640 29.248, 640 28.450 C 640 26.382, 638.695 26.658, 637.207 29.041 M 206 28.500 C 206 28.775, 206.225 29, 206.500 29 C 206.775 29, 207 28.775, 207 28.500 C 207 28.225, 206.775 28, 206.500 28 C 206.225 28, 206 28.225, 206 28.500 M 603.655 29.026 C 599.567 30.250, 598.068 32.796, 598.032 38.576 C 597.990 45.254, 600.636 48, 607.114 48 C 609.582 48, 612.140 47.460, 612.800 46.800 C 614.646 44.954, 614.361 32.504, 612.429 30.571 C 611.564 29.707, 610.476 29, 610.010 29 C 609.545 29, 608.564 28.814, 607.832 28.587 C 607.099 28.359, 605.220 28.557, 603.655 29.026 M 622.823 28.783 C 618.809 29.286, 617.607 31.512, 617.309 39 C 617.108 44.049, 617.421 46.104, 618.530 47.025 C 619.997 48.243, 630.284 48.560, 632.091 47.444 C 633.212 46.751, 633.274 32.980, 632.164 31.232 C 631.140 29.618, 626.295 28.348, 622.823 28.783 M 648.039 31.189 C 645.221 34.214, 645.239 41.762, 648.073 45.365 C 649.808 47.572, 650.942 48, 655.050 48 C 659.051 48, 660.214 47.586, 661.365 45.750 C 662.550 43.859, 662.888 38.601, 662.162 33.321 C 661.531 28.732, 651.710 27.248, 648.039 31.189 M 581.462 32.681 C 580.185 33.958, 579.894 35.548, 580.254 39.288 C 580.776 44.723, 582.019 46.029, 586.500 45.849 C 589.166 45.741, 589.226 45.676, 587.039 45.267 C 581.738 44.274, 580.284 37.626, 584.455 33.455 C 586.656 31.253, 586.715 31, 585.026 31 C 583.990 31, 582.386 31.757, 581.462 32.681 M 600.615 33.465 C 598.131 37.256, 598.996 42.962, 602.400 45.235 C 604.465 46.614, 605.313 46.004, 603.768 44.250 C 601.411 41.574, 601.777 34.270, 604.359 32.461 L 606.445 31 604.338 31 C 603.178 31, 601.503 32.109, 600.615 33.465 M 609.077 33.077 C 610.220 34.220, 610.909 35.795, 610.609 36.577 C 610.289 37.410, 610.672 38, 611.531 38 C 612.339 38, 613 37.132, 613 36.071 C 613 33.807, 610.469 31, 608.429 31 C 607.399 31, 607.580 31.580, 609.077 33.077 M 620 32.500 C 618.416 34.408, 619.902 34.389, 622.441 32.468 C 623.995 31.293, 624.069 31, 622.814 31 C 621.951 31, 620.685 31.675, 620 32.500 M 627.402 32.544 C 628.537 33.680, 628.836 35.527, 628.529 39.520 C 628.285 42.708, 628.548 45.221, 629.168 45.604 C 630.723 46.565, 631.967 44.008, 631.985 39.815 C 632.007 34.438, 630.435 31, 627.953 31 C 626.063 31, 626.009 31.152, 627.402 32.544 M 649.668 32.253 C 646.818 34.337, 646.462 40.046, 648.982 43.250 C 650.172 44.763, 651.900 45.948, 652.823 45.884 C 654.315 45.781, 654.307 45.717, 652.750 45.311 C 650.749 44.788, 650.836 45.044, 650.504 38.718 C 650.299 34.826, 650.642 33.664, 652.349 32.468 C 653.880 31.396, 654.032 31, 652.914 31 C 652.071 31, 650.611 31.564, 649.668 32.253 M 656.777 33.007 C 657.978 34.126, 658.678 35.675, 658.359 36.507 C 657.997 37.449, 658.379 38, 659.393 38 C 660.403 38, 661 37.146, 661 35.700 C 661 32.873, 659.251 31, 656.611 31 C 654.682 31, 654.687 31.059, 656.777 33.007 M 624.095 33.941 C 623.376 34.386, 623.194 35.002, 623.691 35.309 C 624.188 35.616, 625.185 35.504, 625.905 35.059 C 626.624 34.614, 626.806 33.998, 626.309 33.691 C 625.812 33.384, 624.815 33.496, 624.095 33.941 M 339.396 35.429 C 336.399 36.734, 333.002 40.625, 331.694 44.250 C 330.670 47.088, 332.004 49, 335.008 49 C 337.142 49, 338.291 48.172, 339.867 45.500 C 341.739 42.329, 342.353 42, 346.410 42 C 351.950 42, 354.459 44.662, 352.867 48.851 C 351.664 52.013, 350.303 52.965, 346.950 52.985 C 343.816 53.004, 342 54.694, 342 57.593 C 342 59.928, 343.722 61, 347.471 61 C 351.180 61, 354.333 64.216, 354.333 68 C 354.333 72.011, 351.126 75, 346.823 75 C 342.550 75, 340.031 73.318, 338.377 69.359 C 337.091 66.282, 336.550 65.915, 333.711 66.190 C 331.125 66.440, 330.447 66.987, 330.229 69 C 329.872 72.298, 333.180 77.516, 337.241 80.061 C 341.627 82.810, 353.133 82.482, 357.217 79.490 C 364.195 74.379, 364.879 65.038, 358.769 58.322 C 356.792 56.150, 356.792 56.140, 358.894 53.884 C 361.425 51.167, 361.744 44.339, 359.538 40.074 C 356.849 34.873, 346.276 32.435, 339.396 35.429 M 584.429 36.428 C 583.589 39.774, 584.786 43, 586.867 43 C 589.210 43, 591 41.050, 591 38.500 C 591 33.932, 585.491 32.195, 584.429 36.428 M 605.813 34.683 C 606.534 34.972, 607.397 34.936, 607.729 34.604 C 608.061 34.272, 607.471 34.036, 606.417 34.079 C 605.252 34.127, 605.015 34.364, 605.813 34.683 M 653.813 34.683 C 654.534 34.972, 655.397 34.936, 655.729 34.604 C 656.061 34.272, 655.471 34.036, 654.417 34.079 C 653.252 34.127, 653.015 34.364, 653.813 34.683 M 41 35.500 C 41 35.775, 41.225 36, 41.500 36 C 41.775 36, 42 35.775, 42 35.500 C 42 35.225, 41.775 35, 41.500 35 C 41.225 35, 41 35.225, 41 35.500 M 341.757 36.201 C 337.412 37.355, 333 42.080, 333 45.577 C 333 49.244, 337.117 48.892, 338.804 45.081 C 341.317 39.403, 350.789 38.758, 353.540 44.077 C 356.055 48.941, 351.884 55.141, 346.495 54.549 C 344.847 54.368, 343.997 54.903, 343.616 56.360 C 342.957 58.879, 344.473 59.964, 348.677 59.985 C 350.907 59.995, 352.473 60.786, 353.927 62.635 C 358.665 68.658, 354.723 76.027, 346.795 75.968 C 341.813 75.931, 339.963 74.768, 337.596 70.188 C 334.519 64.233, 330.412 67.751, 333.038 74.092 C 335.572 80.210, 348.714 82.682, 356.033 78.417 C 363.059 74.324, 363.508 62.550, 356.785 58.691 L 353.701 56.921 356.850 53.842 C 360.853 49.929, 361.240 43.927, 357.749 39.917 C 355.977 37.882, 347.593 34.502, 345.807 35.103 C 345.638 35.160, 343.815 35.654, 341.757 36.201 M 41 37.500 C 41 37.775, 41.225 38, 41.500 38 C 41.775 38, 42 37.775, 42 37.500 C 42 37.225, 41.775 37, 41.500 37 C 41.225 37, 41 37.225, 41 37.500 M 619.200 39.200 C 617.141 41.259, 618.439 46, 621.061 46 C 621.425 46, 621.494 44.805, 621.215 43.344 C 620.862 41.498, 621.268 40.277, 622.545 39.344 C 624.309 38.053, 624.303 38, 622.391 38 C 621.296 38, 619.860 38.540, 619.200 39.200 M 170.227 40.650 C 167.956 41.145, 167.954 41.169, 168.227 58.323 L 168.500 75.500 176.045 75.788 C 182.541 76.037, 184.063 75.758, 186.991 73.785 C 192.579 70.020, 194.500 65.680, 194.500 56.827 C 194.500 48.304, 192.791 44.710, 187.508 42.123 C 184.573 40.685, 174.149 39.797, 170.227 40.650 M 604.250 41.250 C 604.479 41.938, 605.717 42.500, 607 42.500 C 608.283 42.500, 609.521 41.938, 609.750 41.250 C 610.025 40.425, 609.089 40, 607 40 C 604.911 40, 603.975 40.425, 604.250 41.250 M 624.029 40.961 C 623.220 41.473, 622.863 42.196, 623.236 42.569 C 624.151 43.484, 627 42.320, 627 41.031 C 627 39.761, 625.965 39.737, 624.029 40.961 M 652.245 41.250 C 652.861 43.120, 656.654 43.345, 657.341 41.553 C 657.800 40.358, 657.233 40, 654.885 40 C 652.891 40, 651.976 40.433, 652.245 41.250 M 192 41.500 C 192 41.775, 192.225 42, 192.500 42 C 192.775 42, 193 41.775, 193 41.500 C 193 41.225, 192.775 41, 192.500 41 C 192.225 41, 192 41.225, 192 41.500 M 310.326 43.396 C 307.880 45.500, 307.662 46.137, 308.537 48.625 C 310.439 54.033, 318.227 55.163, 320.076 50.300 C 321.518 46.508, 320.213 43.270, 316.759 42.066 C 312.930 40.731, 313.581 40.596, 310.326 43.396 M 408.634 42.278 C 407.026 43.454, 406.911 45.917, 407.193 73.028 C 407.525 104.897, 407.746 106.283, 413.127 110.263 C 414.872 111.554, 417.557 112.256, 421.127 112.353 L 426.500 112.500 426.806 108.283 C 427.089 104.376, 426.906 104.021, 424.306 103.450 C 422.763 103.110, 421.001 102.684, 420.392 102.502 C 418.414 101.912, 418 96.186, 418 69.410 C 418 44.392, 417.903 43.018, 416.066 42.035 C 413.463 40.642, 410.750 40.731, 408.634 42.278 M 493 42 C 491.899 42.711, 492.614 42.973, 495.683 42.985 C 500.916 43.004, 501.168 43.686, 500.823 56.870 C 500.679 62.383, 500.887 67.220, 501.285 67.618 C 501.682 68.016, 503.019 67.417, 504.254 66.288 C 514.923 56.533, 531.197 60.966, 535.862 74.899 C 536.488 76.769, 537.049 82.394, 537.110 87.399 C 537.209 95.630, 537.306 96.070, 538.124 92 C 539.852 83.405, 536.314 69.222, 531.356 64.871 C 524.107 58.508, 510.716 58.422, 503.787 64.693 C 502.081 66.237, 502 65.782, 502 54.630 C 502 43.013, 501.986 42.945, 499.435 41.975 C 496.243 40.762, 494.908 40.767, 493 42 M 610 44 C 609.411 45.100, 609.305 46, 609.765 46 C 610.828 46, 613 43.852, 613 42.800 C 613 41.248, 611.057 42.025, 610 44 M 658.278 43.250 C 657.746 43.938, 656.923 45.175, 656.448 46 C 655.716 47.273, 655.949 47.260, 657.988 45.914 C 660.542 44.228, 661.805 42, 660.206 42 C 659.677 42, 658.810 42.563, 658.278 43.250 M 310.523 44.974 C 308.850 46.823, 308.842 47.109, 310.391 49.474 C 311.402 51.017, 312.983 52, 314.452 52 C 317.088 52, 320 49.638, 320 47.500 C 320 45.404, 317.107 43, 314.584 43 C 313.333 43, 311.506 43.888, 310.523 44.974 M 408.422 44.344 C 408.112 45.150, 408.003 58.564, 408.180 74.154 C 408.577 109.342, 408.791 109.975, 420.827 111.571 L 426 112.258 426 108.629 C 426 105.738, 425.616 105, 424.111 105 C 423.072 105, 421.159 104.140, 419.861 103.090 C 417.501 101.180, 417.500 101.166, 417 72.340 L 416.500 43.500 412.742 43.189 C 410.145 42.974, 408.810 43.331, 408.422 44.344 M 491 48 C 491 48.733, 491.300 49.033, 491.667 48.667 C 492.033 48.300, 492.033 47.700, 491.667 47.333 C 491.300 46.967, 491 47.267, 491 48 M 63 53.500 C 63 53.775, 63.225 54, 63.500 54 C 63.775 54, 64 53.775, 64 53.500 C 64 53.225, 63.775 53, 63.500 53 C 63.225 53, 63 53.225, 63 53.500 M 28 55.500 C 28 55.775, 28.225 56, 28.500 56 C 28.775 56, 29 55.775, 29 55.500 C 29 55.225, 28.775 55, 28.500 55 C 28.225 55, 28 55.225, 28 55.500 M 123 58.500 C 123 58.775, 123.225 59, 123.500 59 C 123.775 59, 124 58.775, 124 58.500 C 124 58.225, 123.775 58, 123.500 58 C 123.225 58, 123 58.225, 123 58.500 M 28 59.500 C 28 59.775, 28.225 60, 28.500 60 C 28.775 60, 29 59.775, 29 59.500 C 29 59.225, 28.775 59, 28.500 59 C 28.225 59, 28 59.225, 28 59.500 M 122.405 61.155 C 121.962 61.870, 122.130 62.038, 122.845 61.595 C 123.480 61.203, 124 60.684, 124 60.441 C 124 59.607, 123.117 60.002, 122.405 61.155 M 444.020 62.250 C 438.919 64.857, 436.197 68.191, 435.062 73.226 C 433.955 78.134, 434.902 79.187, 440.090 78.815 C 443.560 78.566, 444.559 78.080, 444.845 76.500 C 445.344 73.739, 447.935 70.976, 451.500 69.403 C 454.227 68.199, 454.288 68.075, 452.173 68.039 C 449.302 67.991, 444 73.105, 444 75.923 C 444 77.679, 443.383 78, 440 78 C 436.268 78, 436 77.809, 436 75.148 C 436 71.511, 439.609 66.132, 443.622 63.789 C 447.894 61.294, 459.643 60.659, 465.378 62.613 C 470.748 64.443, 473.474 67.274, 474.899 72.500 C 476.040 76.688, 476.444 107.679, 475.393 110.418 C 475.005 111.431, 473.565 112, 471.393 112 C 468.112 112, 467.255 110.718, 467.882 106.750 C 468.110 105.304, 466.088 106.028, 460.913 109.245 C 456.462 112.011, 454.796 112.480, 449.597 112.426 C 442.345 112.351, 437.717 110.225, 434.960 105.701 C 433.886 103.941, 433.006 103.002, 433.004 103.615 C 432.996 105.823, 437.424 110.288, 441.421 112.104 C 448.052 115.115, 455.795 114.272, 462.154 109.847 C 465.579 107.464, 465.862 107.506, 467.022 110.558 C 467.885 112.827, 468.473 113.081, 472.247 112.808 L 476.500 112.500 476.500 92 C 476.500 73.243, 476.328 71.202, 474.477 68 C 471.389 62.658, 465.251 60, 456 60 C 450.115 60, 447.441 60.502, 444.020 62.250 M 309.713 61.621 C 308.707 62.626, 308.851 110.217, 309.864 111.815 C 310.403 112.665, 312.255 113.018, 315.099 112.815 L 319.500 112.500 319.500 87 L 319.500 61.500 314.963 61.204 C 312.467 61.041, 310.105 61.229, 309.713 61.621 M 310.690 63.365 C 309.907 65.406, 309.810 108.342, 310.585 110.360 C 311.248 112.089, 315.553 112.571, 317.769 111.164 C 318.748 110.543, 318.976 104.906, 318.769 86.430 L 318.500 62.500 314.877 62.197 C 312.399 61.990, 311.076 62.359, 310.690 63.365 M 570.627 65.529 C 569.689 67.974, 569.901 86.295, 570.885 87.848 C 571.355 88.590, 572.586 89.034, 573.620 88.835 C 575.335 88.504, 575.500 87.423, 575.500 76.486 C 575.500 65.031, 575.406 64.487, 573.377 64.197 C 572.125 64.018, 570.997 64.565, 570.627 65.529 M 62 65.500 C 62 65.775, 62.225 66, 62.500 66 C 62.775 66, 63 65.775, 63 65.500 C 63 65.225, 62.775 65, 62.500 65 C 62.225 65, 62 65.225, 62 65.500 M 572 76.500 C 572 82.833, 572.397 87, 573 87 C 573.603 87, 574 82.833, 574 76.500 C 574 70.167, 573.603 66, 573 66 C 572.397 66, 572 70.167, 572 76.500 M 672.290 68 C 672.002 69.100, 671.369 70, 670.883 70 C 670.398 70, 670 71.125, 670 72.500 C 670 73.875, 670.417 75, 670.927 75 C 671.436 75, 672.070 75.787, 672.335 76.750 C 672.600 77.713, 672.618 76.700, 672.374 74.500 C 672.130 72.300, 672.369 69.842, 672.905 69.039 C 673.719 67.817, 674.271 68, 676.266 70.153 C 678.304 72.352, 678.434 72.867, 677.152 73.676 C 675.302 74.843, 675.201 83.332, 677.011 85.513 C 678.015 86.723, 677.949 87, 676.654 87 C 675.780 87, 674.393 85.763, 673.572 84.250 L 672.080 81.500 672.040 84.128 C 671.977 88.292, 676.544 90.858, 679.653 88.404 C 681.432 86.999, 681.418 86.888, 679.250 85.351 C 676.150 83.153, 675.970 75.503, 679 74.710 C 681.544 74.045, 681.608 70.972, 679.092 70.314 C 678.043 70.040, 676.960 68.957, 676.686 67.908 C 676.028 65.392, 672.955 65.456, 672.290 68 M 455.404 67.844 C 455.797 68.480, 457.237 69, 458.604 69 C 459.972 69, 462.195 70.105, 463.545 71.455 C 464.895 72.805, 466 73.558, 466 73.129 C 466 72.700, 464.966 71.377, 463.702 70.190 C 461.176 67.817, 454.161 65.834, 455.404 67.844 M 508.411 69.891 C 502.132 73.720, 501 76.285, 501 86.685 C 501 98.122, 502.361 101.353, 508.316 104.057 C 513.505 106.412, 515.958 106.464, 520.467 104.315 C 524.453 102.413, 527.503 97.109, 528.598 90.170 C 529.319 85.603, 527.427 75.382, 525.659 74.289 C 525.024 73.897, 524.964 74.368, 525.496 75.586 C 527.040 79.123, 527.205 92.289, 525.757 96.500 C 524.674 99.652, 523.440 100.971, 519.941 102.720 C 516.049 104.666, 514.972 104.805, 511.233 103.844 C 508.656 103.182, 505.983 101.580, 504.483 99.797 C 502.211 97.098, 502 96.018, 502 87.119 C 502 77.443, 502.017 77.376, 505.250 74.316 C 511.459 68.439, 515.030 67.720, 521.515 71.041 L 525.500 73.083 522.694 70.541 C 519.228 67.401, 512.962 67.116, 508.411 69.891 M 579.566 71.688 C 578.820 73.632, 578.864 83.890, 579.630 86.750 C 580.324 89.338, 583.486 89.782, 584.393 87.418 C 584.727 86.548, 585 83.671, 585 81.025 C 585 77.504, 585.436 76.047, 586.627 75.590 C 589.586 74.454, 591 76.912, 591 83.192 C 591 88.787, 591.133 89.120, 593.250 88.820 C 595.223 88.539, 595.538 87.829, 595.809 83.053 C 596.412 72.432, 594.576 70.010, 586.018 70.130 C 581.810 70.190, 579.971 70.634, 579.566 71.688 M 598.567 71.685 C 598.255 72.498, 598 76.245, 598 80.010 C 598 85.016, 598.440 87.297, 599.636 88.493 C 601.973 90.830, 603.137 89.165, 603.874 82.431 C 604.289 78.639, 605.074 76.350, 606.202 75.641 C 608.680 74.083, 609.440 75.421, 610 82.332 C 610.432 87.667, 610.770 88.500, 612.500 88.500 C 614.268 88.500, 614.530 87.748, 614.757 82 C 614.910 78.159, 614.489 74.477, 613.729 73 C 612.565 70.740, 611.805 70.486, 605.788 70.353 C 600.741 70.242, 598.998 70.564, 598.567 71.685 M 621.442 70.765 C 616.732 74.036, 615.585 82.260, 619.250 86.478 C 624.394 92.399, 632.723 89.993, 635.153 81.885 L 636.353 77.878 638.483 83.189 C 639.957 86.862, 641.240 88.592, 642.644 88.798 C 645.276 89.185, 646.132 87.994, 649.525 79.220 C 651.576 73.915, 652.041 71.641, 651.237 70.837 C 649.432 69.032, 647.116 70.670, 645.397 74.967 C 644.509 77.185, 643.475 79, 643.098 79 C 642.721 79, 641.718 77.088, 640.869 74.750 C 639.790 71.780, 638.674 70.404, 637.162 70.180 C 635.400 69.920, 635 70.361, 635 72.565 L 635 75.270 632.927 72.635 C 631.274 70.533, 630.010 70.003, 626.677 70.015 C 624.380 70.024, 622.024 70.361, 621.442 70.765 M 654.510 71.633 C 653.612 72.531, 652.971 74.443, 653.085 75.883 C 653.199 77.322, 652.765 79.798, 652.120 81.385 C 651.169 83.723, 651.231 84.704, 652.447 86.559 C 654.411 89.557, 656.445 90.093, 662.500 89.211 L 667.500 88.482 667.798 81.639 C 668.197 72.482, 666.651 70, 660.548 70 C 657.806 70, 655.526 70.617, 654.510 71.633 M 683.068 72.904 C 680.217 76.909, 680.355 82.681, 683.392 86.477 C 685.357 88.934, 686.513 89.455, 689.994 89.455 C 695.522 89.455, 697.696 86.882, 697.848 80.161 C 698.005 73.174, 695.396 70, 689.496 70 C 685.825 70, 684.809 70.459, 683.068 72.904 M 60 71.500 C 60 71.775, 60.225 72, 60.500 72 C 60.775 72, 61 71.775, 61 71.500 C 61 71.225, 60.775 71, 60.500 71 C 60.225 71, 60 71.225, 60 71.500 M 647.121 75.333 C 645.954 77.991, 645 80.836, 645 81.656 C 645 85.057, 641.547 82.257, 639.915 77.532 C 638.971 74.801, 637.636 72.379, 636.948 72.149 C 636.121 71.874, 635.896 72.372, 636.283 73.616 C 638.913 82.074, 642.667 88.766, 643.991 87.357 C 645.485 85.767, 650.157 72.971, 649.697 71.730 C 649.446 71.053, 648.287 72.675, 647.121 75.333 M 580.320 73.612 C 579.526 75.676, 580.491 86.021, 581.500 86.262 C 582.050 86.393, 582.732 83.892, 583.016 80.704 C 583.536 74.859, 584.761 73.046, 588.215 73.015 C 590.676 72.993, 592 76.112, 592 81.934 C 592 84.720, 592.450 87, 593 87 C 594.316 87, 594.293 76.416, 592.972 73.948 C 592.119 72.354, 590.990 72.067, 586.346 72.263 C 583.266 72.394, 580.555 73, 580.320 73.612 M 600.598 72.736 C 599.565 73.768, 599.938 87, 601 87 C 601.550 87, 602 85.004, 602 82.565 C 602 80.126, 602.424 77.014, 602.943 75.650 C 603.641 73.813, 603.537 73.036, 602.541 72.654 C 601.801 72.370, 600.927 72.407, 600.598 72.736 M 609.048 73.838 C 610.789 75.248, 611.360 76.822, 611.496 80.588 C 611.727 86.943, 611.804 87.239, 613.039 86.476 C 614.508 85.568, 613.463 73.909, 611.818 72.867 C 611.093 72.407, 609.663 72.024, 608.639 72.015 C 606.976 72.002, 607.019 72.195, 609.048 73.838 M 621.223 73.557 C 616.983 76.526, 619.014 87, 623.829 87 C 624.473 87, 624.100 86.100, 623 85 C 620.131 82.131, 620.258 75.633, 623.223 73.557 C 624.445 72.701, 624.995 72, 624.445 72 C 623.895 72, 622.445 72.701, 621.223 73.557 M 626 72.500 C 626 72.775, 626.225 73, 626.500 73 C 626.775 73, 627 72.775, 627 72.500 C 627 72.225, 626.775 72, 626.500 72 C 626.225 72, 626 72.225, 626 72.500 M 628 72.671 C 628 73.040, 628.633 74.053, 629.408 74.921 C 632.383 78.259, 631.372 84.500, 627.611 86.020 C 625.692 86.795, 625.755 86.879, 628.301 86.937 C 633.331 87.050, 635.234 78.408, 631.204 73.750 C 629.681 71.990, 628 71.424, 628 72.671 M 654.980 73.524 C 654.284 74.362, 653.993 75.327, 654.333 75.667 C 655.060 76.393, 658 74.156, 658 72.878 C 658 71.500, 656.370 71.849, 654.980 73.524 M 662 72.514 C 662 72.796, 662.563 73.935, 663.250 75.044 C 664.264 76.681, 664.244 77.220, 663.143 77.906 C 662.118 78.544, 662.079 78.930, 662.983 79.490 C 663.751 79.964, 663.952 81.440, 663.544 83.615 C 663.048 86.260, 663.243 87, 664.436 87 C 667.369 87, 667.782 76.852, 664.985 73.482 C 663.795 72.048, 662 71.466, 662 72.514 M 685.400 72.767 C 681.473 75.382, 681.297 84.018, 685.129 86.069 C 687.661 87.424, 688.584 86.730, 686.524 85.020 C 684.715 83.518, 684.488 80, 686.200 80 C 687.133 80, 687.133 79.733, 686.200 78.800 C 684.417 77.017, 684.741 75.209, 687.067 73.964 C 688.680 73.101, 689.682 73.217, 691.629 74.493 C 694.056 76.083, 694.431 78.500, 692.250 78.500 C 691.654 78.500, 690.890 78.777, 690.552 79.115 C 690.036 79.631, 692.256 79.637, 695.250 79.128 C 696.672 78.886, 695.996 75.307, 694.250 73.830 C 692.344 72.218, 687.160 71.595, 685.400 72.767 M 31 74.500 C 31 74.775, 31.225 75, 31.500 75 C 31.775 75, 32 74.775, 32 74.500 C 32 74.225, 31.775 74, 31.500 74 C 31.225 74, 31 74.225, 31 74.500 M 466.150 77.601 L 466 80.703 457.642 81.293 C 443.849 82.266, 433 87.327, 433 92.788 C 433 93.832, 433.924 93.105, 435.448 90.861 C 438.618 86.196, 443.952 84.099, 455.993 82.782 C 461.222 82.210, 465.873 81.405, 466.328 80.993 C 466.784 80.581, 466.964 78.951, 466.728 77.372 L 466.300 74.500 466.150 77.601 M 623.667 75.667 C 622.414 76.919, 622.997 82.753, 624.500 84 C 627.454 86.451, 631.074 80.875, 629.020 77.038 C 627.963 75.062, 625.024 74.310, 623.667 75.667 M 658 76 C 658 76.550, 658.900 77, 660 77 C 661.100 77, 662 76.550, 662 76 C 662 75.450, 661.100 75, 660 75 C 658.900 75, 658 75.450, 658 76 M 688 76 C 688 76.550, 688.900 77, 690 77 C 691.100 77, 692 76.550, 692 76 C 692 75.450, 691.100 75, 690 75 C 688.900 75, 688 75.450, 688 76 M 188 77.500 C 188 77.775, 188.225 78, 188.500 78 C 188.775 78, 189 77.775, 189 77.500 C 189 77.225, 188.775 77, 188.500 77 C 188.225 77, 188 77.225, 188 77.500 M 660 79.500 C 660 79.775, 660.225 80, 660.500 80 C 660.775 80, 661 79.775, 661 79.500 C 661 79.225, 660.775 79, 660.500 79 C 660.225 79, 660 79.225, 660 79.500 M 688 79.500 C 688 79.775, 688.225 80, 688.500 80 C 688.775 80, 689 79.775, 689 79.500 C 689 79.225, 688.775 79, 688.500 79 C 688.225 79, 688 79.225, 688 79.500 M 653.663 81.820 C 652.127 83.517, 652.157 83.791, 654.108 85.886 C 656.351 88.293, 658.098 88.028, 656.073 85.588 C 655.170 84.500, 655.143 83.601, 655.966 82.064 C 657.331 79.513, 655.889 79.360, 653.663 81.820 M 672 80.500 C 672 80.775, 672.225 81, 672.500 81 C 672.775 81, 673 80.775, 673 80.500 C 673 80.225, 672.775 80, 672.500 80 C 672.225 80, 672 80.225, 672 80.500 M 370.352 81.765 C 369.250 82.471, 368.656 85.524, 368.889 89.279 C 368.990 90.904, 370.145 91.034, 382.250 90.779 L 395.500 90.500 395.818 87.185 C 396.355 81.593, 395.083 80.998, 382.628 81.015 C 376.507 81.024, 370.984 81.361, 370.352 81.765 M 658 83.573 C 658 84.505, 658.680 85.015, 659.667 84.823 C 662.176 84.337, 662.520 82, 660.083 82 C 658.855 82, 658 82.646, 658 83.573 M 687 83.031 C 687 84.907, 690.127 85.302, 691.792 83.637 C 693.307 82.121, 693.191 82, 690.214 82 C 688.446 82, 687 82.464, 687 83.031 M 370.184 86.219 L 370.500 89.500 382.500 89.500 L 394.500 89.500 394.500 86.500 L 394.500 83.500 382.184 83.219 L 369.869 82.937 370.184 86.219 M 691.920 85.596 C 690.764 86.990, 690.897 87.148, 692.970 86.846 C 694.275 86.656, 695.529 85.938, 695.755 85.250 C 696.348 83.451, 693.486 83.709, 691.920 85.596 M 50 85.500 C 50 85.775, 50.225 86, 50.500 86 C 50.775 86, 51 85.775, 51 85.500 C 51 85.225, 50.775 85, 50.500 85 C 50.225 85, 50 85.225, 50 85.500 M 458.772 88.108 C 446.572 89.418, 441.927 92.159, 442.056 97.973 C 442.106 100.202, 442.253 100.094, 443.306 97.049 C 444.981 92.207, 449.347 89.971, 458.471 89.281 L 466 88.711 466 93.181 C 466 98.275, 463.906 100.888, 457.768 103.452 C 452.712 105.565, 448.771 105.394, 445.635 102.927 C 444.186 101.788, 443 101.312, 443 101.871 C 443 103.792, 447.450 106, 451.321 106 C 455.830 106, 460.392 104.047, 464.261 100.459 C 466.528 98.356, 467 97.075, 467 93.019 C 467 90.323, 466.663 87.953, 466.250 87.752 C 465.837 87.551, 462.472 87.711, 458.772 88.108 M 432.079 98.583 C 432.127 99.748, 432.364 99.985, 432.683 99.188 C 432.972 98.466, 432.936 97.603, 432.604 97.271 C 432.272 96.939, 432.036 97.529, 432.079 98.583 M 534.206 101.929 C 528.999 112.352, 515.646 115.875, 505.771 109.433 C 501.161 106.424, 500.225 106.396, 499.820 109.250 C 499.553 111.127, 498.878 111.500, 495.749 111.500 C 493.686 111.500, 491.999 111.838, 491.999 112.250 C 492 112.662, 493.811 113, 496.025 113 C 499.457 113, 500.198 112.610, 501.055 110.354 L 502.061 107.709 504.281 109.664 C 511.231 115.785, 523.752 115.339, 530.799 108.719 C 533.963 105.747, 537.222 100.316, 536.825 98.679 C 536.646 97.941, 535.468 99.403, 534.206 101.929 M 637.250 106.662 C 636.354 107.024, 636 110.361, 636 118.461 C 636 126.304, 636.382 130.056, 637.250 130.741 C 637.938 131.283, 640.779 131.793, 643.565 131.875 C 650.525 132.079, 653.385 129.158, 653.385 121.845 C 653.385 117.458, 652.977 116.377, 650.532 114.274 C 648.531 112.552, 646.832 111.944, 644.840 112.237 C 642.480 112.583, 642 112.294, 642 110.527 C 642 109.357, 641.460 107.860, 640.800 107.200 C 639.521 105.921, 639.205 105.873, 637.250 106.662 M 570.709 107.624 C 570.319 108.014, 570 113.153, 570 119.044 C 570 127.345, 570.338 130.035, 571.500 131 C 572.698 131.994, 573.308 131.989, 574.531 130.974 C 575.772 129.944, 576.009 127.595, 575.781 118.602 C 575.520 108.296, 575.354 107.479, 573.459 107.208 C 572.336 107.047, 571.099 107.235, 570.709 107.624 M 572 119.059 C 572 126.177, 572.356 129.898, 573 129.500 C 573.563 129.152, 574 124.323, 574 118.441 C 574 112.147, 573.603 108, 573 108 C 572.394 108, 572 112.353, 572 119.059 M 638 118.940 C 638 128.810, 638.197 130.138, 639.582 129.607 C 640.452 129.273, 641.647 129, 642.237 129 C 642.827 129, 642.459 128.059, 641.418 126.910 C 640.378 125.760, 639.510 124.073, 639.489 123.160 C 639.434 120.691, 641.873 116.015, 643.276 115.900 C 643.949 115.845, 643.397 115.493, 642.050 115.117 C 640.272 114.621, 639.559 113.683, 639.453 111.704 C 639.373 110.202, 639.013 108.680, 638.654 108.320 C 638.294 107.961, 638 112.740, 638 118.940 M 674.188 111.960 C 671.610 115.447, 671.465 116.581, 673.500 117.362 C 674.558 117.768, 675 119.419, 675 122.969 C 675 128.500, 677.338 132, 681.031 132 C 684.062 132, 684.791 128.937, 682.175 127.200 C 679.182 125.213, 679.059 118.433, 682 117.500 C 684.294 116.772, 684.743 113, 682.535 113 C 681.730 113, 680.589 112.100, 680 111 C 678.508 108.212, 676.744 108.503, 674.188 111.960 M 113 110.500 C 113 110.775, 113.225 111, 113.500 111 C 113.775 111, 114 110.775, 114 110.500 C 114 110.225, 113.775 110, 113.500 110 C 113.225 110, 113 110.225, 113 110.500 M 675.790 112.750 C 675.546 113.713, 675.547 117.550, 675.792 121.278 C 676.141 126.603, 676.640 128.272, 678.118 129.063 C 679.566 129.838, 680 129.730, 680 128.594 C 680 127.782, 679.550 126.840, 679 126.500 C 677.461 125.549, 677.810 118.403, 679.463 117.031 C 680.743 115.968, 680.729 115.516, 679.348 113.408 C 677.478 110.555, 676.397 110.355, 675.790 112.750 M 580.418 112.917 C 580.188 113.146, 580.036 114.271, 580.079 115.417 C 580.122 116.563, 580.385 116.938, 580.662 116.250 C 580.940 115.563, 582.077 115, 583.190 115 C 584.740 115, 585.036 115.410, 584.455 116.750 C 584.037 117.713, 583.517 120.075, 583.299 122 C 582.528 128.812, 581.947 130.529, 580.947 128.948 C 580.233 127.821, 580.027 127.998, 580.015 129.750 C 579.999 132.185, 582.354 132.827, 583.680 130.750 C 584.120 130.063, 584.709 127.025, 584.989 124 C 585.460 118.936, 585.698 118.500, 588 118.500 C 590.359 118.500, 590.528 118.867, 591 125 C 591.436 130.667, 591.756 131.500, 593.500 131.500 C 595.285 131.500, 595.531 130.736, 595.791 124.411 C 596.189 114.692, 594.480 112.500, 586.506 112.500 C 583.387 112.500, 580.648 112.688, 580.418 112.917 M 600.636 114.636 C 596.955 118.318, 596.862 125.953, 600.455 129.545 C 604.894 133.985, 614 131.899, 614 126.443 C 614 123.523, 611.563 123.180, 608.770 125.708 C 607.341 127.001, 606.472 127.158, 605.191 126.356 C 603.072 125.028, 602.463 121.352, 604.046 119.445 C 605.611 117.559, 608.906 117.591, 609.638 119.500 C 609.955 120.325, 611.066 121, 612.107 121 C 613.536 121, 614 120.278, 614 118.057 C 614 112.015, 605.447 109.826, 600.636 114.636 M 618.250 112.718 C 617.396 113.024, 617 115.625, 617 120.928 C 617 130.849, 618.137 132.133, 626.590 131.757 L 632.500 131.494 632.791 122.588 C 633.093 113.367, 632.506 111.485, 629.667 112.574 C 628.377 113.069, 628 114.520, 628 118.985 C 628 125.046, 626.412 127.756, 623.513 126.643 C 622.399 126.216, 622 124.506, 622 120.154 C 622 114.251, 620.770 111.812, 618.250 112.718 M 658.943 113.845 C 657.265 115.204, 656.700 116.644, 656.800 119.306 C 656.875 121.294, 656.501 123.191, 655.968 123.520 C 654.345 124.523, 654.885 127.885, 657.012 130.012 C 658.618 131.618, 660.081 131.962, 664.275 131.717 C 667.164 131.548, 670.084 131.066, 670.764 130.646 C 671.540 130.166, 672 127.468, 672 123.396 C 672 117.842, 671.647 116.556, 669.545 114.455 C 666.591 111.500, 662.154 111.245, 658.943 113.845 M 687.455 114.455 C 685.491 116.418, 685 117.928, 685 122 C 685 128.602, 687.990 132, 693.800 132 C 698.904 132, 701.005 129.596, 701.612 123.064 C 702.045 118.401, 701.818 117.665, 699.121 114.967 C 695.346 111.193, 690.911 110.998, 687.455 114.455 M 586 115.500 C 586 115.775, 586.225 116, 586.500 116 C 586.775 116, 587 115.775, 587 115.500 C 587 115.225, 586.775 115, 586.500 115 C 586.225 115, 586 115.225, 586 115.500 M 590 117 C 591.515 118.515, 592 120.333, 592 124.500 C 592 127.525, 592.450 130, 593 130 C 594.079 130, 594.395 119.194, 593.393 116.582 C 593.059 115.712, 591.709 115, 590.393 115 L 588 115 590 117 M 600.615 117.465 C 599.727 118.820, 599 121.211, 599 122.776 C 599 125.822, 602.495 130.430, 604.067 129.458 C 604.606 129.125, 604.365 128.222, 603.508 127.365 C 601.126 124.983, 601.560 118.421, 604.223 116.557 C 606.431 115.010, 606.432 115, 604.338 115 C 603.178 115, 601.503 116.109, 600.615 117.465 M 609.479 116.976 C 610.462 118.063, 611.679 118.698, 612.182 118.387 C 613.429 117.617, 611.143 115, 609.223 115 C 607.932 115, 607.973 115.312, 609.479 116.976 M 618 119.935 C 618 126.598, 619.396 130, 622.130 130 C 624.179 130, 624.210 129.890, 622.655 128.171 C 621.525 126.922, 621 124.545, 621 120.671 C 621 116.297, 620.657 115, 619.500 115 C 618.369 115, 618 116.215, 618 119.935 M 629.667 115.667 C 629.300 116.033, 629 118.453, 629 121.044 C 629 124.128, 628.451 126.210, 627.412 127.073 C 625.987 128.256, 626.048 128.474, 628.004 129.197 C 631.410 130.457, 632 129.385, 632 121.941 C 632 115.548, 631.400 113.934, 629.667 115.667 M 647.089 116.871 C 649.995 119.224, 650.232 124.981, 647.545 127.950 C 645.522 130.186, 646.067 130.569, 649.023 128.988 C 653.607 126.535, 652.160 115, 647.268 115 L 644.778 115 647.089 116.871 M 658.345 116.543 C 657.414 118.970, 658.505 119.205, 660.494 117.006 C 662.151 115.175, 662.163 115, 660.624 115 C 659.696 115, 658.671 115.694, 658.345 116.543 M 667.057 117.107 C 667.825 118.541, 667.859 119.541, 667.164 120.236 C 666.470 120.930, 666.506 121.837, 667.277 123.072 C 668.180 124.518, 668.032 125.307, 666.551 126.944 C 665.527 128.075, 665.173 129, 665.763 129 C 666.353 129, 667.548 129.273, 668.418 129.607 C 669.759 130.122, 670 129.238, 670 123.807 C 670 120.157, 669.484 116.884, 668.800 116.200 C 666.874 114.274, 665.831 114.816, 667.057 117.107 M 687.557 117.223 C 684.904 121.010, 686.289 129, 689.598 129 C 690.776 129, 690.964 128.644, 690.256 127.750 C 688.542 125.584, 688.964 117.125, 690.840 116.030 C 692.377 115.132, 692.375 115.059, 690.807 115.030 C 689.875 115.014, 688.413 116, 687.557 117.223 M 695.977 116.977 C 697.066 118.066, 697.692 119.639, 697.370 120.477 C 696.996 121.452, 697.365 122, 698.393 122 C 699.277 122, 699.986 121.213, 699.968 120.250 C 699.924 117.815, 697.603 115, 695.640 115 C 694.234 115, 694.282 115.282, 695.977 116.977 M 642.709 118.624 C 641.350 119.983, 641.958 126.047, 643.513 126.643 C 645.953 127.580, 648.135 125.006, 647.801 121.585 C 647.585 119.366, 646.927 118.418, 645.459 118.208 C 644.336 118.047, 643.099 118.235, 642.709 118.624 M 662.750 118.662 C 663.438 118.940, 664.563 118.940, 665.250 118.662 C 665.938 118.385, 665.375 118.158, 664 118.158 C 662.625 118.158, 662.063 118.385, 662.750 118.662 M 692.813 118.683 C 693.534 118.972, 694.397 118.936, 694.729 118.604 C 695.061 118.272, 694.471 118.036, 693.417 118.079 C 692.252 118.127, 692.015 118.364, 692.813 118.683 M 84 119.500 C 84 119.775, 84.225 120, 84.500 120 C 84.775 120, 85 119.775, 85 119.500 C 85 119.225, 84.775 119, 84.500 119 C 84.225 119, 84 119.225, 84 119.500 M 579 121.559 C 579 122.966, 579.408 123.866, 579.906 123.558 C 580.404 123.250, 580.577 122.098, 580.289 120.999 C 579.570 118.247, 579 118.495, 579 121.559 M 67 122.500 C 67 122.775, 67.225 123, 67.500 123 C 67.775 123, 68 122.775, 68 122.500 C 68 122.225, 67.775 122, 67.500 122 C 67.225 122, 67 122.225, 67 122.500 M 84 122.500 C 84 122.775, 84.225 123, 84.500 123 C 84.775 123, 85 122.775, 85 122.500 C 85 122.225, 84.775 122, 84.500 122 C 84.225 122, 84 122.225, 84 122.500 M 658.002 123.498 C 656.437 125.383, 657.539 130, 659.554 130 C 660.776 130, 660.856 129.599, 659.966 127.936 C 659.157 126.426, 659.161 125.511, 659.979 124.525 C 660.646 123.722, 660.719 122.945, 660.162 122.600 C 659.647 122.282, 658.675 122.686, 658.002 123.498 M 662.459 125.067 C 662.096 125.653, 662.050 126.384, 662.357 126.690 C 663.179 127.513, 666 126.229, 666 125.031 C 666 123.674, 663.303 123.701, 662.459 125.067 M 691.250 125.250 C 691.479 125.938, 692.492 126.500, 693.500 126.500 C 694.508 126.500, 695.521 125.938, 695.750 125.250 C 696.014 124.458, 695.189 124, 693.500 124 C 691.811 124, 690.986 124.458, 691.250 125.250 M 609.904 127.615 C 608.744 129.013, 608.818 129.181, 610.449 128.865 C 611.486 128.664, 612.522 127.938, 612.750 127.250 C 613.344 125.466, 611.490 125.704, 609.904 127.615 M 697 127.500 C 695.980 128.729, 696.049 129, 697.378 129 C 698.270 129, 699 128.325, 699 127.500 C 699 126.675, 698.830 126, 698.622 126 C 698.415 126, 697.685 126.675, 697 127.500 M 85 133.500 C 85 133.775, 85.225 134, 85.500 134 C 85.775 134, 86 133.775, 86 133.500 C 86 133.225, 85.775 133, 85.500 133 C 85.225 133, 85 133.225, 85 133.500 M 85 139.500 C 85 139.775, 85.225 140, 85.500 140 C 85.775 140, 86 139.775, 86 139.500 C 86 139.225, 85.775 139, 85.500 139 C 85.225 139, 85 139.225, 85 139.500 M 87 141 C 87 141.733, 87.300 142.033, 87.667 141.667 C 88.033 141.300, 88.033 140.700, 87.667 140.333 C 87.300 139.967, 87 140.267, 87 141 M 108.079 142.200 C 108.036 143.135, 107.213 144.359, 106.250 144.920 C 104.592 145.886, 104.593 145.941, 106.281 145.970 C 108.232 146.003, 109.486 143.807, 108.673 141.783 C 108.342 140.957, 108.130 141.106, 108.079 142.200 M 62.500 145 C 60.870 145.701, 60.812 145.872, 62.191 145.930 C 63.121 145.968, 64.160 145.550, 64.500 145 C 65.211 143.850, 65.176 143.850, 62.500 145 M 248.613 145.183 C 248.902 145.650, 249.557 145.774, 250.069 145.457 C 251.377 144.649, 251.230 144.333, 249.544 144.333 C 248.743 144.333, 248.324 144.716, 248.613 145.183 M 44.333 145.667 C 44.700 146.033, 45.300 146.033, 45.667 145.667 C 46.033 145.300, 45.733 145, 45 145 C 44.267 145, 43.967 145.300, 44.333 145.667 M 47 145.500 C 47 145.775, 47.225 146, 47.500 146 C 47.775 146, 48 145.775, 48 145.500 C 48 145.225, 47.775 145, 47.500 145 C 47.225 145, 47 145.225, 47 145.500 M 88.333 145.667 C 88.700 146.033, 89.300 146.033, 89.667 145.667 C 90.033 145.300, 89.733 145, 89 145 C 88.267 145, 87.967 145.300, 88.333 145.667 M 146.333 145.667 C 146.700 146.033, 147.300 146.033, 147.667 145.667 C 148.033 145.300, 147.733 145, 147 145 C 146.267 145, 145.967 145.300, 146.333 145.667 M 163 145.500 C 163 145.775, 163.225 146, 163.500 146 C 163.775 146, 164 145.775, 164 145.500 C 164 145.225, 163.775 145, 163.500 145 C 163.225 145, 163 145.225, 163 145.500 M 232 145.500 C 232 145.775, 232.225 146, 232.500 146 C 232.775 146, 233 145.775, 233 145.500 C 233 145.225, 232.775 145, 232.500 145 C 232.225 145, 232 145.225, 232 145.500 M 246 145.500 C 246 145.775, 246.225 146, 246.500 146 C 246.775 146, 247 145.775, 247 145.500 C 247 145.225, 246.775 145, 246.500 145 C 246.225 145, 246 145.225, 246 145.500" stroke="none" fill="#a02839" fill-rule="evenodd"/></svg>