<svg xmlns="http://www.w3.org/2000/svg" width="163" height="163" viewBox="0 0 163 163" version="1.1"><path d="M 73 6 C 73 6.733, 73.300 7.033, 73.667 6.667 C 74.033 6.300, 74.033 5.700, 73.667 5.333 C 73.300 4.967, 73 5.267, 73 6 M 89 6 C 89 6.733, 89.300 7.033, 89.667 6.667 C 90.033 6.300, 90.033 5.700, 89.667 5.333 C 89.300 4.967, 89 5.267, 89 6 M 30.500 20 C 30.840 20.550, 31.343 21, 31.618 21 C 31.893 21, 31.840 20.550, 31.500 20 C 31.160 19.450, 30.657 19, 30.382 19 C 30.107 19, 30.160 19.450, 30.500 20 M 131.405 20.155 C 130.962 20.870, 131.130 21.038, 131.845 20.595 C 132.480 20.203, 133 19.684, 133 19.441 C 133 18.607, 132.117 19.002, 131.405 20.155 M 67.333 20.667 C 67.700 21.033, 68.300 21.033, 68.667 20.667 C 69.033 20.300, 68.733 20, 68 20 C 67.267 20, 66.967 20.300, 67.333 20.667 M 94.333 20.667 C 94.700 21.033, 95.300 21.033, 95.667 20.667 C 96.033 20.300, 95.733 20, 95 20 C 94.267 20, 93.967 20.300, 94.333 20.667 M 76.136 29.250 C 76.211 32.138, 76.467 33.487, 76.706 32.250 C 77.195 29.709, 79.763 29.220, 80.638 31.500 C 80.955 32.325, 81.602 33, 82.076 33 C 82.549 33, 82.676 32.319, 82.357 31.487 C 82.037 30.655, 82.332 29.305, 83.011 28.487 C 84.765 26.373, 82.579 24, 78.878 24 C 76.056 24, 76.003 24.101, 76.136 29.250 M 86.902 25.618 C 85.743 27.014, 85.932 27.534, 88.279 29.406 C 91.455 31.938, 91.648 32.706, 89.250 33.279 C 87.906 33.600, 87.962 33.674, 89.490 33.598 C 92.509 33.449, 92.586 30.224, 89.603 28.865 C 86.409 27.410, 87.325 25.636, 90.859 26.434 C 93.378 27.003, 93.411 26.961, 91.559 25.515 C 89.114 23.607, 88.561 23.619, 86.902 25.618 M 67.750 25.689 C 65.684 26.229, 65.713 25.976, 67.080 31.403 C 68.037 35.205, 68.437 35.639, 70.595 35.227 C 71.934 34.971, 73.315 34.299, 73.664 33.735 C 74.072 33.074, 73.355 32.945, 71.649 33.373 C 67.986 34.293, 68.070 31.536, 71.750 30.074 L 74.500 28.980 71.250 29.465 C 67.120 30.081, 66.748 27.624, 70.750 26.162 C 72.766 25.426, 72.966 25.168, 71.500 25.195 C 70.400 25.215, 68.713 25.438, 67.750 25.689 M 77 27 C 77 29.028, 78.526 29.503, 81.444 28.383 C 82.688 27.906, 82.792 27.454, 81.903 26.383 C 80.140 24.259, 77 24.654, 77 27 M 95.161 28.547 C 93.368 32.481, 93.699 33, 98 33 C 101.527 33, 102 32.723, 102 30.661 C 102 29.124, 101.126 27.923, 99.453 27.161 C 96.206 25.681, 96.511 25.582, 95.161 28.547 M 60.985 29.250 C 60.976 29.938, 60.544 31.173, 60.024 31.995 C 59.212 33.279, 58.853 33.209, 57.477 31.495 C 56.595 30.398, 56.127 30.175, 56.437 31 C 56.746 31.825, 57.276 33.288, 57.616 34.250 C 58.391 36.448, 60 36.539, 60 34.385 C 60 32.915, 60.230 32.920, 62.561 34.448 C 63.970 35.371, 65.641 35.953, 66.275 35.742 C 66.909 35.530, 66.027 34.737, 64.315 33.979 C 61.631 32.791, 61.322 32.283, 62.076 30.300 C 62.618 28.875, 62.580 28, 61.975 28 C 61.439 28, 60.993 28.563, 60.985 29.250 M 96 30 C 96 31.646, 96.518 32.065, 98.250 31.820 C 99.487 31.644, 100.500 30.825, 100.500 30 C 100.500 29.175, 99.487 28.356, 98.250 28.180 C 96.518 27.935, 96 28.354, 96 30 M 45.333 29.667 C 45.700 30.033, 46.300 30.033, 46.667 29.667 C 47.033 29.300, 46.733 29, 46 29 C 45.267 29, 44.967 29.300, 45.333 29.667 M 116.333 29.667 C 116.700 30.033, 117.300 30.033, 117.667 29.667 C 118.033 29.300, 117.733 29, 117 29 C 116.267 29, 115.967 29.300, 116.333 29.667 M 19.500 31 C 19.840 31.550, 20.343 32, 20.618 32 C 20.893 32, 20.840 31.550, 20.500 31 C 20.160 30.450, 19.657 30, 19.382 30 C 19.107 30, 19.160 30.450, 19.500 31 M 142.405 31.155 C 141.962 31.870, 142.130 32.038, 142.845 31.595 C 143.998 30.883, 144.393 30, 143.559 30 C 143.316 30, 142.797 30.520, 142.405 31.155 M 103.417 34.549 C 101.262 36.501, 100.400 37.698, 101.500 37.209 C 103.829 36.175, 107.869 37.893, 107.278 39.666 C 107.067 40.299, 107.368 41.110, 107.947 41.467 C 108.636 41.893, 109 40.196, 109 36.559 C 109 33.502, 108.625 31, 108.167 31 C 107.708 31, 105.571 32.597, 103.417 34.549 M 105.122 33.904 C 103.508 34.925, 104.471 37, 106.559 37 C 107.352 37, 108 36.100, 108 35 C 108 32.829, 107.262 32.548, 105.122 33.904 M 48.597 37.750 C 48.975 39.813, 49.642 42.400, 50.079 43.500 C 50.789 45.289, 50.880 45.307, 50.937 43.679 C 51.033 40.921, 53.625 38.880, 56.616 39.208 C 58.171 39.378, 59.407 38.967, 59.570 38.225 C 59.724 37.524, 59.637 37.363, 59.377 37.869 C 58.733 39.119, 55.017 38.081, 52.115 35.841 C 48.605 33.131, 47.827 33.553, 48.597 37.750 M 50 38.115 C 50 39.254, 50.528 39.991, 51.188 39.771 C 53.039 39.154, 53.249 37.310, 51.542 36.655 C 50.461 36.240, 50 36.677, 50 38.115 M 113.908 37.078 C 112.881 37.728, 113.230 37.974, 115.200 37.985 C 116.704 37.993, 118.352 38.775, 118.920 39.750 C 119.787 41.240, 119.944 41.263, 119.970 39.911 C 120.009 37.860, 115.788 35.888, 113.908 37.078 M 80.269 38.693 C 81.242 38.947, 82.592 38.930, 83.269 38.656 C 83.946 38.382, 83.150 38.175, 81.500 38.195 C 79.850 38.215, 79.296 38.439, 80.269 38.693 M 110.667 38.667 C 108.546 40.788, 111.513 46.014, 114.821 45.985 C 115.981 45.975, 115.727 45.570, 114 44.676 C 112.173 43.729, 111.551 42.657, 111.688 40.690 C 111.886 37.858, 111.749 37.585, 110.667 38.667 M 42 40.326 C 42 41.247, 42.470 42, 43.045 42 C 43.620 42, 45.195 43.105, 46.545 44.455 C 47.895 45.805, 48.993 46.592, 48.985 46.205 C 48.962 45.176, 47.830 43.807, 44.741 41.076 C 42.476 39.073, 42 38.942, 42 40.326 M 118.759 45.750 C 116.152 48.491, 116.150 48.508, 118.072 50.861 C 120.034 53.263, 120.723 52.691, 119.051 50.048 C 117.551 47.676, 119.005 46.773, 121.593 48.469 C 124.344 50.271, 124.902 49.387, 122.250 47.428 C 120.810 46.364, 120.731 45.901, 121.804 44.817 C 122.881 43.729, 123.443 43.935, 125.032 46 C 126.090 47.375, 126.951 48.050, 126.946 47.500 C 126.930 45.807, 124.360 43, 122.827 43 C 122.028 43, 120.197 44.237, 118.759 45.750 M 43 45.079 C 43 45.759, 41.887 45.915, 40 45.500 C 38.350 45.138, 37 45.243, 37 45.733 C 37 46.224, 38.350 47.919, 40 49.500 C 41.650 51.081, 43 51.866, 43 51.244 C 43 50.622, 41.987 49.366, 40.750 48.452 L 38.500 46.790 41.250 47.256 C 43.432 47.626, 44 47.338, 44 45.861 C 44 44.838, 43.775 44, 43.500 44 C 43.225 44, 43 44.486, 43 45.079 M 29 46 C 29 46.733, 29.300 47.033, 29.667 46.667 C 30.033 46.300, 30.033 45.700, 29.667 45.333 C 29.300 44.967, 29 45.267, 29 46 M 133 46 C 133 46.733, 133.300 47.033, 133.667 46.667 C 134.033 46.300, 134.033 45.700, 133.667 45.333 C 133.300 44.967, 133 45.267, 133 46 M 56.405 47.155 C 55.962 47.870, 56.130 48.038, 56.845 47.595 C 57.998 46.883, 58.393 46, 57.559 46 C 57.316 46, 56.797 46.520, 56.405 47.155 M 105.500 47 C 105.840 47.550, 106.343 48, 106.618 48 C 106.893 48, 106.840 47.550, 106.500 47 C 106.160 46.450, 105.657 46, 105.382 46 C 105.107 46, 105.160 46.450, 105.500 47 M 50.872 51.750 C 49.629 53.336, 49.664 53.371, 51.250 52.128 C 52.212 51.373, 53 50.585, 53 50.378 C 53 49.555, 52.179 50.084, 50.872 51.750 M 110 50.378 C 110 50.585, 110.787 51.373, 111.750 52.128 C 113.336 53.371, 113.371 53.336, 112.128 51.750 C 110.821 50.084, 110 49.555, 110 50.378 M 46.405 57.155 C 45.962 57.870, 46.130 58.038, 46.845 57.595 C 47.998 56.883, 48.393 56, 47.559 56 C 47.316 56, 46.797 56.520, 46.405 57.155 M 75 57 C 75 57.733, 75.300 58.033, 75.667 57.667 C 76.033 57.300, 76.033 56.700, 75.667 56.333 C 75.300 55.967, 75 56.267, 75 57 M 87 57 C 87 57.733, 87.300 58.033, 87.667 57.667 C 88.033 57.300, 88.033 56.700, 87.667 56.333 C 87.300 55.967, 87 56.267, 87 57 M 115.500 57 C 115.840 57.550, 116.343 58, 116.618 58 C 116.893 58, 116.840 57.550, 116.500 57 C 116.160 56.450, 115.657 56, 115.382 56 C 115.107 56, 115.160 56.450, 115.500 57 M 77 58 C 77 58.733, 77.300 59.033, 77.667 58.667 C 78.033 58.300, 78.033 57.700, 77.667 57.333 C 77.300 56.967, 77 57.267, 77 58 M 85 58 C 85 58.733, 85.300 59.033, 85.667 58.667 C 86.033 58.300, 86.033 57.700, 85.667 57.333 C 85.300 56.967, 85 57.267, 85 58 M 64.500 60 C 64.840 60.550, 65.343 61, 65.618 61 C 65.893 61, 65.840 60.550, 65.500 60 C 65.160 59.450, 64.657 59, 64.382 59 C 64.107 59, 64.160 59.450, 64.500 60 M 68.333 59.667 C 68.700 60.033, 69.300 60.033, 69.667 59.667 C 70.033 59.300, 69.733 59, 69 59 C 68.267 59, 67.967 59.300, 68.333 59.667 M 93.333 59.667 C 93.700 60.033, 94.300 60.033, 94.667 59.667 C 95.033 59.300, 94.733 59, 94 59 C 93.267 59, 92.967 59.300, 93.333 59.667 M 97.405 60.155 C 96.962 60.870, 97.130 61.038, 97.845 60.595 C 98.480 60.203, 99 59.684, 99 59.441 C 99 58.607, 98.117 59.002, 97.405 60.155 M 59.500 65 C 59.840 65.550, 60.343 66, 60.618 66 C 60.893 66, 60.840 65.550, 60.500 65 C 60.160 64.450, 59.657 64, 59.382 64 C 59.107 64, 59.160 64.450, 59.500 65 M 102.405 65.155 C 101.962 65.870, 102.130 66.038, 102.845 65.595 C 103.998 64.883, 104.393 64, 103.559 64 C 103.316 64, 102.797 64.520, 102.405 65.155 M 20 68 C 20 68.733, 20.300 69.033, 20.667 68.667 C 21.033 68.300, 21.033 67.700, 20.667 67.333 C 20.300 66.967, 20 67.267, 20 68 M 142 68 C 142 68.733, 142.300 69.033, 142.667 68.667 C 143.033 68.300, 143.033 67.700, 142.667 67.333 C 142.300 66.967, 142 67.267, 142 68 M 59 69 C 59 69.733, 59.300 70.033, 59.667 69.667 C 60.033 69.300, 60.033 68.700, 59.667 68.333 C 59.300 67.967, 59 68.267, 59 69 M 103 69 C 103 69.733, 103.300 70.033, 103.667 69.667 C 104.033 69.300, 104.033 68.700, 103.667 68.333 C 103.300 67.967, 103 68.267, 103 69 M 89.333 69.667 C 89.700 70.033, 90.300 70.033, 90.667 69.667 C 91.033 69.300, 90.733 69, 90 69 C 89.267 69, 88.967 69.300, 89.333 69.667 M 68.507 70.989 C 68.157 71.555, 68.558 71.723, 69.448 71.382 C 71.180 70.717, 71.497 70, 70.059 70 C 69.541 70, 68.843 70.445, 68.507 70.989 M 76.333 70.667 C 76.700 71.033, 77.300 71.033, 77.667 70.667 C 78.033 70.300, 77.733 70, 77 70 C 76.267 70, 75.967 70.300, 76.333 70.667 M 89 72 C 89 72.733, 89.300 73.033, 89.667 72.667 C 90.033 72.300, 90.033 71.700, 89.667 71.333 C 89.300 70.967, 89 71.267, 89 72 M 5.333 73.667 C 5.700 74.033, 6.300 74.033, 6.667 73.667 C 7.033 73.300, 6.733 73, 6 73 C 5.267 73, 4.967 73.300, 5.333 73.667 M 67 74 C 67 74.733, 67.300 75.033, 67.667 74.667 C 68.033 74.300, 68.033 73.700, 67.667 73.333 C 67.300 72.967, 67 73.267, 67 74 M 156.333 73.667 C 156.700 74.033, 157.300 74.033, 157.667 73.667 C 158.033 73.300, 157.733 73, 157 73 C 156.267 73, 155.967 73.300, 156.333 73.667 M 56.333 75.667 C 56.700 76.033, 57.300 76.033, 57.667 75.667 C 58.033 75.300, 57.733 75, 57 75 C 56.267 75, 55.967 75.300, 56.333 75.667 M 83 76.559 C 83 77.416, 83.450 77.840, 84 77.500 C 84.550 77.160, 85 76.459, 85 75.941 C 85 75.423, 84.550 75, 84 75 C 83.450 75, 83 75.702, 83 76.559 M 92.603 75.833 C 92.320 76.292, 92.723 76.667, 93.500 76.667 C 94.277 76.667, 94.680 76.292, 94.397 75.833 C 94.114 75.375, 93.710 75, 93.500 75 C 93.290 75, 92.886 75.375, 92.603 75.833 M 105.333 75.667 C 105.700 76.033, 106.300 76.033, 106.667 75.667 C 107.033 75.300, 106.733 75, 106 75 C 105.267 75, 104.967 75.300, 105.333 75.667 M 57.333 77.667 C 57.700 78.033, 58.300 78.033, 58.667 77.667 C 59.033 77.300, 58.733 77, 58 77 C 57.267 77, 56.967 77.300, 57.333 77.667 M 104.333 77.667 C 104.700 78.033, 105.300 78.033, 105.667 77.667 C 106.033 77.300, 105.733 77, 105 77 C 104.267 77, 103.967 77.300, 104.333 77.667 M 38.195 81.500 C 38.215 83.150, 38.439 83.704, 38.693 82.731 C 38.947 81.758, 38.930 80.408, 38.656 79.731 C 38.382 79.054, 38.175 79.850, 38.195 81.500 M 124.195 81.500 C 124.215 83.150, 124.439 83.704, 124.693 82.731 C 124.947 81.758, 124.930 80.408, 124.656 79.731 C 124.382 79.054, 124.175 79.850, 124.195 81.500 M 69.500 81 C 69.840 81.550, 70.343 82, 70.618 82 C 70.893 82, 70.840 81.550, 70.500 81 C 70.160 80.450, 69.657 80, 69.382 80 C 69.107 80, 69.160 80.450, 69.500 81 M 79 81.378 C 79 81.585, 79.787 82.373, 80.750 83.128 C 82.336 84.371, 82.371 84.336, 81.128 82.750 C 79.821 81.084, 79 80.555, 79 81.378 M 86.074 82.411 C 85.177 83.491, 85.185 83.996, 86.106 84.565 C 86.845 85.022, 87.048 84.887, 86.633 84.216 C 86.262 83.615, 86.755 82.659, 87.729 82.092 C 88.703 81.525, 88.993 81.047, 88.372 81.030 C 87.752 81.014, 86.718 81.635, 86.074 82.411 M 72.405 83.155 C 71.962 83.870, 72.130 84.038, 72.845 83.595 C 73.998 82.883, 74.393 82, 73.559 82 C 73.316 82, 72.797 82.520, 72.405 83.155 M 57.333 85.667 C 57.700 86.033, 58.300 86.033, 58.667 85.667 C 59.033 85.300, 58.733 85, 58 85 C 57.267 85, 56.967 85.300, 57.333 85.667 M 74.872 86.750 C 73.629 88.336, 73.664 88.371, 75.250 87.128 C 76.916 85.821, 77.445 85, 76.622 85 C 76.415 85, 75.627 85.787, 74.872 86.750 M 104.333 85.667 C 104.700 86.033, 105.300 86.033, 105.667 85.667 C 106.033 85.300, 105.733 85, 105 85 C 104.267 85, 103.967 85.300, 104.333 85.667 M 84 86.378 C 84 86.585, 84.787 87.373, 85.750 88.128 C 87.336 89.371, 87.371 89.336, 86.128 87.750 C 84.821 86.084, 84 85.555, 84 86.378 M 56.333 87.667 C 56.700 88.033, 57.300 88.033, 57.667 87.667 C 58.033 87.300, 57.733 87, 57 87 C 56.267 87, 55.967 87.300, 56.333 87.667 M 105.333 87.667 C 105.700 88.033, 106.300 88.033, 106.667 87.667 C 107.033 87.300, 106.733 87, 106 87 C 105.267 87, 104.967 87.300, 105.333 87.667 M 5.333 89.667 C 5.700 90.033, 6.300 90.033, 6.667 89.667 C 7.033 89.300, 6.733 89, 6 89 C 5.267 89, 4.967 89.300, 5.333 89.667 M 71.405 90.155 C 70.962 90.870, 71.130 91.038, 71.845 90.595 C 72.998 89.883, 73.393 89, 72.559 89 C 72.316 89, 71.797 89.520, 71.405 90.155 M 80.490 90.016 C 80.144 90.575, 79.503 90.811, 79.065 90.540 C 78.626 90.269, 77.503 90.892, 76.569 91.924 C 75.290 93.337, 75.172 93.988, 76.089 94.555 C 76.821 95.007, 77.051 94.892, 76.666 94.268 C 75.986 93.168, 78.318 90.651, 79.200 91.533 C 79.483 91.816, 80.284 91.362, 80.980 90.524 C 81.676 89.686, 81.991 89, 81.681 89 C 81.372 89, 80.835 89.457, 80.490 90.016 M 156.333 89.667 C 156.700 90.033, 157.300 90.033, 157.667 89.667 C 158.033 89.300, 157.733 89, 157 89 C 156.267 89, 155.967 89.300, 156.333 89.667 M 91.158 92 C 91.158 93.375, 91.385 93.938, 91.662 93.250 C 91.940 92.563, 91.940 91.438, 91.662 90.750 C 91.385 90.063, 91.158 90.625, 91.158 92 M 152.333 90.667 C 152.700 91.033, 153.300 91.033, 153.667 90.667 C 154.033 90.300, 153.733 90, 153 90 C 152.267 90, 151.967 90.300, 152.333 90.667 M 88.336 92.833 C 87.464 94.230, 87.478 94.667, 88.395 94.667 C 89.058 94.667, 89.662 93.842, 89.738 92.833 C 89.814 91.825, 89.787 91, 89.678 91 C 89.570 91, 88.966 91.825, 88.336 92.833 M 59 94 C 59 94.733, 59.300 95.033, 59.667 94.667 C 60.033 94.300, 60.033 93.700, 59.667 93.333 C 59.300 92.967, 59 93.267, 59 94 M 103 94 C 103 94.733, 103.300 95.033, 103.667 94.667 C 104.033 94.300, 104.033 93.700, 103.667 93.333 C 103.300 92.967, 103 93.267, 103 94 M 20 95 C 20 95.733, 20.300 96.033, 20.667 95.667 C 21.033 95.300, 21.033 94.700, 20.667 94.333 C 20.300 93.967, 20 94.267, 20 95 M 142 95 C 142 95.733, 142.300 96.033, 142.667 95.667 C 143.033 95.300, 143.033 94.700, 142.667 94.333 C 142.300 93.967, 142 94.267, 142 95 M 59.405 98.155 C 58.962 98.870, 59.130 99.038, 59.845 98.595 C 60.480 98.203, 61 97.684, 61 97.441 C 61 96.607, 60.117 97.002, 59.405 98.155 M 102.500 98 C 102.840 98.550, 103.343 99, 103.618 99 C 103.893 99, 103.840 98.550, 103.500 98 C 103.160 97.450, 102.657 97, 102.382 97 C 102.107 97, 102.160 97.450, 102.500 98 M 64.405 103.155 C 63.962 103.870, 64.130 104.038, 64.845 103.595 C 65.480 103.203, 66 102.684, 66 102.441 C 66 101.607, 65.117 102.002, 64.405 103.155 M 97.500 103 C 97.840 103.550, 98.343 104, 98.618 104 C 98.893 104, 98.840 103.550, 98.500 103 C 98.160 102.450, 97.657 102, 97.382 102 C 97.107 102, 97.160 102.450, 97.500 103 M 68.333 103.667 C 68.700 104.033, 69.300 104.033, 69.667 103.667 C 70.033 103.300, 69.733 103, 69 103 C 68.267 103, 67.967 103.300, 68.333 103.667 M 93.333 103.667 C 93.700 104.033, 94.300 104.033, 94.667 103.667 C 95.033 103.300, 94.733 103, 94 103 C 93.267 103, 92.967 103.300, 93.333 103.667 M 77 105 C 77 105.733, 77.300 106.033, 77.667 105.667 C 78.033 105.300, 78.033 104.700, 77.667 104.333 C 77.300 103.967, 77 104.267, 77 105 M 85 105 C 85 105.733, 85.300 106.033, 85.667 105.667 C 86.033 105.300, 86.033 104.700, 85.667 104.333 C 85.300 103.967, 85 104.267, 85 105 M 75 106 C 75 106.733, 75.300 107.033, 75.667 106.667 C 76.033 106.300, 76.033 105.700, 75.667 105.333 C 75.300 104.967, 75 105.267, 75 106 M 87 106 C 87 106.733, 87.300 107.033, 87.667 106.667 C 88.033 106.300, 88.033 105.700, 87.667 105.333 C 87.300 104.967, 87 105.267, 87 106 M 50 110.378 C 50 110.585, 50.788 111.373, 51.750 112.128 C 53.336 113.371, 53.371 113.336, 52.128 111.750 C 50.821 110.084, 50 109.555, 50 110.378 M 110.872 111.750 C 109.629 113.336, 109.664 113.371, 111.250 112.128 C 112.916 110.821, 113.445 110, 112.622 110 C 112.415 110, 111.627 110.787, 110.872 111.750 M 29 117 C 29 117.733, 29.300 118.033, 29.667 117.667 C 30.033 117.300, 30.033 116.700, 29.667 116.333 C 29.300 115.967, 29 116.267, 29 117 M 133 117 C 133 117.733, 133.300 118.033, 133.667 117.667 C 134.033 117.300, 134.033 116.700, 133.667 116.333 C 133.300 115.967, 133 116.267, 133 117 M 80.269 124.693 C 81.242 124.947, 82.592 124.930, 83.269 124.656 C 83.946 124.382, 83.150 124.175, 81.500 124.195 C 79.850 124.215, 79.296 124.439, 80.269 124.693 M 19.405 132.155 C 18.962 132.870, 19.130 133.038, 19.845 132.595 C 20.480 132.203, 21 131.684, 21 131.441 C 21 130.607, 20.117 131.002, 19.405 132.155 M 142.500 132 C 142.840 132.550, 143.343 133, 143.618 133 C 143.893 133, 143.840 132.550, 143.500 132 C 143.160 131.450, 142.657 131, 142.382 131 C 142.107 131, 142.160 131.450, 142.500 132 M 45.333 133.667 C 45.700 134.033, 46.300 134.033, 46.667 133.667 C 47.033 133.300, 46.733 133, 46 133 C 45.267 133, 44.967 133.300, 45.333 133.667 M 116.333 133.667 C 116.700 134.033, 117.300 134.033, 117.667 133.667 C 118.033 133.300, 117.733 133, 117 133 C 116.267 133, 115.967 133.300, 116.333 133.667 M 30.405 143.155 C 29.962 143.870, 30.130 144.038, 30.845 143.595 C 31.480 143.203, 32 142.684, 32 142.441 C 32 141.607, 31.117 142.002, 30.405 143.155 M 67.333 142.667 C 67.700 143.033, 68.300 143.033, 68.667 142.667 C 69.033 142.300, 68.733 142, 68 142 C 67.267 142, 66.967 142.300, 67.333 142.667 M 94.333 142.667 C 94.700 143.033, 95.300 143.033, 95.667 142.667 C 96.033 142.300, 95.733 142, 95 142 C 94.267 142, 93.967 142.300, 94.333 142.667 M 131.500 143 C 131.840 143.550, 132.343 144, 132.618 144 C 132.893 144, 132.840 143.550, 132.500 143 C 132.160 142.450, 131.657 142, 131.382 142 C 131.107 142, 131.160 142.450, 131.500 143 M 73 157 C 73 157.733, 73.300 158.033, 73.667 157.667 C 74.033 157.300, 74.033 156.700, 73.667 156.333 C 73.300 155.967, 73 156.267, 73 157 M 89 157 C 89 157.733, 89.300 158.033, 89.667 157.667 C 90.033 157.300, 90.033 156.700, 89.667 156.333 C 89.300 155.967, 89 156.267, 89 157" stroke="none" fill="#f5e4d7" fill-rule="evenodd"/><path d="M 74 2.513 C 74 5.082, 70.639 18.157, 69.509 19.986 C 69.164 20.544, 68.121 21.011, 67.191 21.025 C 64.728 21.060, 53.905 24.806, 52.070 26.258 C 47.374 29.973, 46.165 30.129, 42.081 27.551 C 39.929 26.193, 37.879 24.613, 37.525 24.041 C 37.171 23.468, 36.215 23, 35.399 23 C 34.584 23, 32.950 22.100, 31.770 21 C 30.589 19.900, 29.341 19, 28.996 19 C 28.177 19, 19 28.177, 19 28.996 C 19 29.341, 19.900 30.589, 21 31.770 C 22.100 32.950, 23 34.584, 23 35.399 C 23 36.215, 23.468 37.171, 24.041 37.525 C 24.613 37.879, 26.193 39.929, 27.551 42.081 C 30.129 46.165, 29.973 47.374, 26.258 52.070 C 24.806 53.905, 21.060 64.728, 21.025 67.191 C 21.011 68.121, 20.544 69.164, 19.986 69.509 C 18.157 70.639, 5.082 74, 2.513 74 C 0.052 74, 0 74.157, 0 81.500 C 0 88.843, 0.052 89, 2.513 89 C 5.082 89, 18.157 92.361, 19.986 93.491 C 20.544 93.836, 21.011 94.879, 21.025 95.809 C 21.060 98.272, 24.806 109.095, 26.258 110.930 C 29.973 115.626, 30.129 116.835, 27.551 120.919 C 26.193 123.071, 24.613 125.121, 24.041 125.475 C 23.468 125.829, 23 126.785, 23 127.601 C 23 128.416, 22.100 130.050, 21 131.230 C 19.900 132.411, 19 133.659, 19 134.004 C 19 134.823, 28.177 144, 28.996 144 C 29.341 144, 30.589 143.100, 31.770 142 C 32.950 140.900, 34.584 140, 35.399 140 C 36.215 140, 37.171 139.532, 37.525 138.959 C 37.879 138.387, 39.902 136.824, 42.022 135.486 C 46.136 132.889, 46.575 132.956, 53 137.177 C 54.375 138.080, 58.425 139.602, 62 140.558 C 65.575 141.515, 68.843 142.596, 69.261 142.960 C 70.333 143.893, 74 157.456, 74 160.487 C 74 162.948, 74.157 163, 81.500 163 C 88.843 163, 89 162.948, 89 160.487 C 89 157.456, 92.667 143.893, 93.739 142.960 C 94.157 142.596, 97.425 141.515, 101 140.558 C 104.575 139.602, 108.625 138.080, 110 137.177 C 116.425 132.956, 116.864 132.889, 120.978 135.486 C 123.098 136.824, 125.121 138.387, 125.475 138.959 C 125.829 139.532, 126.785 140, 127.601 140 C 128.416 140, 130.050 140.900, 131.230 142 C 132.411 143.100, 133.659 144, 134.004 144 C 134.823 144, 144 134.823, 144 134.004 C 144 133.659, 143.100 132.411, 142 131.230 C 140.900 130.050, 140 128.416, 140 127.601 C 140 126.785, 139.532 125.829, 138.959 125.475 C 138.387 125.121, 136.829 123.105, 135.497 120.995 C 133.216 117.381, 133.163 116.980, 134.601 114.099 C 135.440 112.416, 136.519 110.797, 137 110.500 C 137.702 110.066, 139.931 103.563, 142.540 94.340 C 142.907 93.041, 152.129 90.122, 159 89.131 L 163.500 88.481 163.790 80.872 L 164.079 73.262 161.552 73.745 C 159.121 74.210, 147.370 71.607, 143.750 69.802 C 142.787 69.322, 141.989 68.158, 141.975 67.215 C 141.940 64.734, 138.201 53.914, 136.742 52.070 C 133.027 47.374, 132.871 46.165, 135.449 42.081 C 136.807 39.929, 138.387 37.879, 138.959 37.525 C 139.532 37.171, 140 36.215, 140 35.399 C 140 34.584, 140.900 32.950, 142 31.770 C 143.100 30.589, 144 29.341, 144 28.996 C 144 28.177, 134.823 19, 134.004 19 C 133.659 19, 132.411 19.900, 131.230 21 C 130.050 22.100, 128.416 23, 127.601 23 C 126.785 23, 125.829 23.468, 125.475 24.041 C 125.121 24.613, 123.071 26.193, 120.919 27.551 C 116.835 30.129, 115.626 29.973, 110.930 26.258 C 109.095 24.806, 98.272 21.060, 95.809 21.025 C 94.879 21.011, 93.836 20.544, 93.491 19.986 C 92.361 18.157, 89 5.082, 89 2.513 C 89 0.052, 88.843 0, 81.500 0 C 74.157 0, 74 0.052, 74 2.513 M 76.136 29.250 C 76.211 32.138, 76.467 33.487, 76.706 32.250 C 77.195 29.709, 79.763 29.220, 80.638 31.500 C 80.955 32.325, 81.602 33, 82.076 33 C 82.549 33, 82.676 32.319, 82.357 31.487 C 82.037 30.655, 82.332 29.305, 83.011 28.487 C 84.765 26.373, 82.579 24, 78.878 24 C 76.056 24, 76.003 24.101, 76.136 29.250 M 86.902 25.618 C 85.743 27.014, 85.932 27.534, 88.279 29.406 C 91.455 31.938, 91.648 32.706, 89.250 33.279 C 87.906 33.600, 87.962 33.674, 89.490 33.598 C 92.509 33.449, 92.586 30.224, 89.603 28.865 C 86.409 27.410, 87.325 25.636, 90.859 26.434 C 93.378 27.003, 93.411 26.961, 91.559 25.515 C 89.114 23.607, 88.561 23.619, 86.902 25.618 M 67.750 25.689 C 65.684 26.229, 65.713 25.976, 67.080 31.403 C 68.037 35.205, 68.437 35.639, 70.595 35.227 C 71.934 34.971, 73.315 34.299, 73.664 33.735 C 74.072 33.074, 73.355 32.945, 71.649 33.373 C 67.986 34.293, 68.070 31.536, 71.750 30.074 L 74.500 28.980 71.250 29.465 C 67.120 30.081, 66.748 27.624, 70.750 26.162 C 72.766 25.426, 72.966 25.168, 71.500 25.195 C 70.400 25.215, 68.713 25.438, 67.750 25.689 M 77 27 C 77 29.028, 78.526 29.503, 81.444 28.383 C 82.688 27.906, 82.792 27.454, 81.903 26.383 C 80.140 24.259, 77 24.654, 77 27 M 95.161 28.547 C 93.368 32.481, 93.699 33, 98 33 C 101.527 33, 102 32.723, 102 30.661 C 102 29.124, 101.126 27.923, 99.453 27.161 C 96.206 25.681, 96.511 25.582, 95.161 28.547 M 60.985 29.250 C 60.976 29.938, 60.544 31.173, 60.024 31.995 C 59.212 33.279, 58.853 33.209, 57.477 31.495 C 56.595 30.398, 56.127 30.175, 56.437 31 C 56.746 31.825, 57.276 33.288, 57.616 34.250 C 58.391 36.448, 60 36.539, 60 34.385 C 60 32.915, 60.230 32.920, 62.561 34.448 C 63.970 35.371, 65.641 35.953, 66.275 35.742 C 66.909 35.530, 66.027 34.737, 64.315 33.979 C 61.631 32.791, 61.322 32.283, 62.076 30.300 C 62.618 28.875, 62.580 28, 61.975 28 C 61.439 28, 60.993 28.563, 60.985 29.250 M 96 30 C 96 31.646, 96.518 32.065, 98.250 31.820 C 99.487 31.644, 100.500 30.825, 100.500 30 C 100.500 29.175, 99.487 28.356, 98.250 28.180 C 96.518 27.935, 96 28.354, 96 30 M 103.417 34.549 C 101.262 36.501, 100.400 37.698, 101.500 37.209 C 103.829 36.175, 107.869 37.893, 107.278 39.666 C 107.067 40.299, 107.368 41.110, 107.947 41.467 C 108.636 41.893, 109 40.196, 109 36.559 C 109 33.502, 108.625 31, 108.167 31 C 107.708 31, 105.571 32.597, 103.417 34.549 M 105.122 33.904 C 103.508 34.925, 104.471 37, 106.559 37 C 107.352 37, 108 36.100, 108 35 C 108 32.829, 107.262 32.548, 105.122 33.904 M 48.597 37.750 C 48.975 39.813, 49.642 42.400, 50.079 43.500 C 50.789 45.289, 50.880 45.307, 50.937 43.679 C 51.033 40.921, 53.625 38.880, 56.616 39.208 C 58.171 39.378, 59.407 38.967, 59.570 38.225 C 59.724 37.524, 59.637 37.363, 59.377 37.869 C 58.733 39.119, 55.017 38.081, 52.115 35.841 C 48.605 33.131, 47.827 33.553, 48.597 37.750 M 50 38.115 C 50 39.254, 50.528 39.991, 51.188 39.771 C 53.039 39.154, 53.249 37.310, 51.542 36.655 C 50.461 36.240, 50 36.677, 50 38.115 M 113.908 37.078 C 112.881 37.728, 113.230 37.974, 115.200 37.985 C 116.704 37.993, 118.352 38.775, 118.920 39.750 C 119.787 41.240, 119.944 41.263, 119.970 39.911 C 120.009 37.860, 115.788 35.888, 113.908 37.078 M 74 39.480 C 61.845 42.379, 53.393 47.667, 47.249 56.214 C 42.909 62.253, 41.348 65.974, 39.349 75.054 C 38.090 80.769, 38.091 82.434, 39.353 88.054 C 41.970 99.704, 44.285 104.128, 51.578 111.422 C 58.908 118.751, 63.379 121.080, 75.054 123.651 C 80.769 124.910, 82.434 124.909, 88.054 123.647 C 99.704 121.030, 104.128 118.715, 111.422 111.422 C 118.715 104.128, 121.030 99.704, 123.647 88.054 C 124.909 82.434, 124.910 80.769, 123.651 75.054 C 121.652 65.974, 120.091 62.253, 115.751 56.214 C 109.486 47.498, 101.074 42.314, 88.500 39.422 C 81.396 37.788, 81.088 37.789, 74 39.480 M 110.667 38.667 C 108.546 40.788, 111.513 46.014, 114.821 45.985 C 115.981 45.975, 115.727 45.570, 114 44.676 C 112.173 43.729, 111.551 42.657, 111.688 40.690 C 111.886 37.858, 111.749 37.585, 110.667 38.667 M 42 40.326 C 42 41.247, 42.470 42, 43.045 42 C 43.620 42, 45.195 43.105, 46.545 44.455 C 47.895 45.805, 48.993 46.592, 48.985 46.205 C 48.962 45.176, 47.830 43.807, 44.741 41.076 C 42.476 39.073, 42 38.942, 42 40.326 M 118.759 45.750 C 116.152 48.491, 116.150 48.508, 118.072 50.861 C 120.034 53.263, 120.723 52.691, 119.051 50.048 C 117.551 47.676, 119.005 46.773, 121.593 48.469 C 124.344 50.271, 124.902 49.387, 122.250 47.428 C 120.810 46.364, 120.731 45.901, 121.804 44.817 C 122.881 43.729, 123.443 43.935, 125.032 46 C 126.090 47.375, 126.951 48.050, 126.946 47.500 C 126.930 45.807, 124.360 43, 122.827 43 C 122.028 43, 120.197 44.237, 118.759 45.750 M 43 45.079 C 43 45.759, 41.887 45.915, 40 45.500 C 38.350 45.138, 37 45.243, 37 45.733 C 37 46.224, 38.350 47.919, 40 49.500 C 41.650 51.081, 43 51.866, 43 51.244 C 43 50.622, 41.987 49.366, 40.750 48.452 L 38.500 46.790 41.250 47.256 C 43.432 47.626, 44 47.338, 44 45.861 C 44 44.838, 43.775 44, 43.500 44 C 43.225 44, 43 44.486, 43 45.079 M 76.386 53.988 C 75.827 57.482, 75.320 58.094, 72.289 58.931 C 68.696 59.923, 64.767 59.050, 63.484 56.975 C 63.012 56.210, 61.646 56.920, 59.399 59.098 C 56.502 61.906, 56.213 62.591, 57.360 63.935 C 59.533 66.480, 59.938 68.642, 58.928 72.300 C 58.094 75.319, 57.479 75.828, 53.988 76.386 C 50.026 77.019, 50 77.053, 50 81.500 C 50 85.947, 50.026 85.981, 53.988 86.614 C 57.482 87.173, 58.094 87.680, 58.931 90.711 C 59.923 94.304, 59.050 98.233, 56.975 99.516 C 56.210 99.988, 56.920 101.354, 59.098 103.601 C 61.906 106.498, 62.591 106.787, 63.935 105.640 C 66.480 103.467, 68.642 103.062, 72.300 104.072 C 75.319 104.906, 75.828 105.521, 76.386 109.012 C 77.019 112.974, 77.053 113, 81.500 113 C 85.947 113, 85.981 112.974, 86.614 109.012 C 87.172 105.521, 87.681 104.906, 90.700 104.072 C 94.358 103.062, 96.520 103.467, 99.065 105.640 C 100.409 106.787, 101.094 106.498, 103.902 103.601 C 106.080 101.354, 106.790 99.988, 106.025 99.516 C 103.950 98.233, 103.077 94.304, 104.069 90.711 C 104.906 87.680, 105.518 87.173, 109.012 86.614 C 112.974 85.981, 113 85.947, 113 81.500 C 113 77.053, 112.974 77.019, 109.012 76.386 C 105.521 75.828, 104.906 75.319, 104.072 72.300 C 103.062 68.642, 103.467 66.480, 105.640 63.935 C 106.787 62.591, 106.498 61.906, 103.601 59.098 C 101.354 56.920, 99.988 56.210, 99.516 56.975 C 98.233 59.050, 94.304 59.923, 90.711 58.931 C 87.680 58.094, 87.173 57.482, 86.614 53.988 C 85.981 50.026, 85.947 50, 81.500 50 C 77.053 50, 77.019 50.026, 76.386 53.988 M 78.733 52.693 C 78.482 53.137, 78.001 54.625, 77.665 56 C 77.243 57.726, 75.767 59.036, 72.898 60.231 C 69.040 61.837, 68.545 61.845, 65.983 60.331 C 60.989 57.381, 57.381 60.989, 60.331 65.983 C 61.845 68.545, 61.837 69.040, 60.231 72.892 C 58.931 76.008, 57.753 77.238, 55.500 77.834 C 53.047 78.483, 52.500 79.151, 52.500 81.500 C 52.500 83.849, 53.047 84.517, 55.500 85.166 C 57.753 85.762, 58.931 86.992, 60.231 90.108 C 61.837 93.960, 61.845 94.455, 60.331 97.017 C 57.381 102.011, 60.989 105.619, 65.983 102.669 C 68.545 101.155, 69.040 101.163, 72.892 102.769 C 76.008 104.069, 77.238 105.247, 77.834 107.500 C 78.483 109.953, 79.151 110.500, 81.500 110.500 C 83.849 110.500, 84.517 109.953, 85.166 107.500 C 85.762 105.247, 86.992 104.069, 90.108 102.769 C 93.960 101.163, 94.455 101.155, 97.017 102.669 C 102.011 105.619, 105.619 102.011, 102.669 97.017 C 101.155 94.455, 101.163 93.960, 102.769 90.108 C 104.069 86.992, 105.247 85.762, 107.500 85.166 C 109.953 84.517, 110.500 83.849, 110.500 81.500 C 110.500 79.151, 109.953 78.483, 107.500 77.834 C 105.247 77.238, 104.069 76.008, 102.769 72.892 C 101.163 69.040, 101.155 68.545, 102.669 65.983 C 104.456 62.959, 103.954 60.303, 101.411 59.328 C 100.512 58.983, 98.535 59.434, 97.017 60.331 C 94.455 61.845, 93.960 61.837, 90.108 60.231 C 86.989 58.929, 85.764 57.756, 85.172 55.500 C 84.587 53.273, 83.715 52.421, 81.787 52.193 C 80.358 52.024, 78.984 52.249, 78.733 52.693 M 73.757 70.228 C 73.532 70.904, 72.257 71.466, 70.924 71.478 C 69.105 71.495, 68.414 72.124, 68.154 74 C 67.964 75.375, 67.384 77.017, 66.865 77.649 C 66.237 78.415, 66.732 79.740, 68.347 81.617 C 70.239 83.817, 71.071 84.186, 72.138 83.300 C 73.171 82.443, 73.981 82.513, 75.447 83.585 C 77.325 84.958, 77.276 85.120, 73.968 88.533 C 71.248 91.339, 70.763 92.400, 71.596 93.721 C 73.346 96.495, 74.652 96.259, 78.291 92.512 L 81.777 88.923 83.638 91.392 C 85.400 93.728, 86.884 94.390, 89.750 94.118 C 91.835 93.921, 91.152 90.077, 88.529 87.248 C 85.937 84.452, 86.642 82.832, 90.062 83.726 C 94.143 84.794, 99.099 75.514, 95.145 74.210 C 94.172 73.889, 93.976 74.349, 94.450 75.844 C 95.478 79.081, 93.379 82, 90.024 82 C 88.426 82, 86.840 82.450, 86.500 83 C 85.031 85.378, 83.764 83.841, 84.328 80.365 C 84.823 77.315, 84.719 77.002, 83.683 78.419 C 82.884 79.511, 81.806 79.863, 80.634 79.413 C 78.802 78.710, 78.802 78.618, 80.664 71.250 C 81.174 69.234, 80.866 69, 77.700 69 C 75.757 69, 73.982 69.553, 73.757 70.228 M 74.790 71.964 C 73.976 73.268, 72.864 73.753, 71.482 73.406 C 69.658 72.948, 69.386 73.355, 69.292 76.686 C 69.154 81.559, 69.785 82.505, 71.900 80.591 C 73.461 79.178, 74.210 79.664, 80.976 86.476 C 87.567 93.111, 90 94.616, 90 92.058 C 90 91.604, 86.779 88.032, 82.843 84.119 C 76.069 77.385, 75.775 76.906, 77.343 75.173 C 78.254 74.166, 79 72.590, 79 71.671 C 79 69.377, 76.288 69.566, 74.790 71.964 M 85.750 71.080 C 84.787 71.641, 84 72.785, 84 73.622 C 84 74.844, 84.524 74.733, 86.653 73.059 C 89.514 70.808, 91.049 71.032, 89.073 73.412 C 88.155 74.518, 88.137 75.388, 88.998 76.996 C 90.193 79.229, 93.041 79.380, 93.751 77.249 C 94.006 76.483, 93.593 76.219, 92.685 76.567 C 90.489 77.410, 89.632 75.226, 91.445 73.412 C 92.311 72.547, 92.763 71.425, 92.450 70.919 C 91.701 69.708, 87.952 69.798, 85.750 71.080 M 0.343 81.500 C 0.346 85.900, 0.522 87.576, 0.733 85.224 C 0.945 82.872, 0.942 79.272, 0.727 77.224 C 0.512 75.176, 0.339 77.100, 0.343 81.500 M 75.626 89.471 C 72.762 92.125, 72.232 94, 74.345 94 C 75.628 94, 77.930 91.854, 79.364 89.319 C 80.685 86.986, 78.198 87.087, 75.626 89.471" stroke="none" fill="#c45707" fill-rule="evenodd"/></svg>