<svg xmlns="http://www.w3.org/2000/svg" width="345" height="85" viewBox="0 0 345 85" version="1.1"><path d="M 203.585 1.044 C 201.982 1.523, 200.407 2.272, 200.085 2.708 C 199.763 3.143, 198.488 4.063, 197.250 4.750 C 190.964 8.242, 189.354 9.644, 180.652 19.198 C 178.206 21.883, 173 31.913, 173 33.938 C 173 34.522, 172.567 35, 172.039 35 C 168.729 35, 165.797 59.315, 167.999 68.494 C 169.585 75.108, 174.943 81.594, 179.993 83.016 C 184.054 84.160, 193.383 84.155, 197 83.008 C 198.459 82.545, 196.683 82.439, 192.737 82.753 C 181.351 83.660, 175.018 79.218, 173.417 69.204 C 173.047 66.892, 172.352 65, 171.872 65 C 171.392 65, 171 62.750, 171 60 C 171 57.250, 171.392 55, 171.871 55 C 172.350 55, 173.050 52.680, 173.426 49.845 C 174.336 42.985, 177.784 33.216, 180.119 30.881 C 181.154 29.846, 182 28.433, 182 27.739 C 182 27.046, 183.569 24.683, 185.487 22.489 C 187.405 20.295, 189.204 17.825, 189.484 17 C 189.765 16.175, 191.234 14.725, 192.747 13.779 C 198.347 10.277, 199.477 9.473, 200.477 8.276 C 201.777 6.721, 209.508 4, 212.626 4 C 213.932 4, 215 3.550, 215 3 C 215 2.450, 215.675 2, 216.500 2 C 217.325 2, 218 2.450, 218 3 C 218 3.550, 218.758 4, 219.684 4 C 222.871 4, 229.778 8.042, 230.354 10.244 C 230.665 11.437, 231.180 12.153, 231.498 11.836 C 232.172 11.161, 229.988 6, 229.028 6 C 228.670 6, 227.505 5.209, 226.439 4.243 C 225.372 3.276, 223.241 1.926, 221.703 1.243 C 218.547 -0.159, 207.996 -0.275, 203.585 1.044 M 216.409 6.657 C 222.424 7.705, 227 14.871, 227 23.243 C 227 25.916, 227.433 27, 228.500 27 C 229.325 27, 230 27.450, 230 28 C 230 28.550, 230.450 29, 231 29 C 232.240 29, 232.310 21.569, 231.110 17.383 C 230.620 15.676, 229.504 13.429, 228.629 12.390 C 227.754 11.350, 226.430 9.654, 225.687 8.619 C 224.708 7.257, 222.842 6.658, 218.918 6.444 C 215.938 6.282, 214.809 6.378, 216.409 6.657 M 214.315 58.750 C 213.972 59.712, 210.822 63.325, 207.315 66.777 C 200.502 73.483, 193.639 77, 187.367 77 C 183.415 77, 178 74.274, 178 72.284 C 178 71.578, 177.550 71, 177 71 C 175.032 71, 176.064 73.064, 180 77 C 183.685 80.685, 184.428 81, 189.435 81 C 195.310 81, 199.283 79.860, 201.647 77.496 C 202.470 76.673, 203.673 75.994, 204.321 75.988 C 205.468 75.976, 217.909 63.794, 219.418 61.206 C 220.310 59.676, 218.356 57, 216.346 57 C 215.571 57, 214.657 57.788, 214.315 58.750" stroke="none" fill="#dc0414" fill-rule="evenodd"/><path d="M 103.315 31.007 C 100.487 32.146, 99 35.009, 99 39.312 C 99 43.075, 100.170 44.503, 104.051 45.477 C 105.447 45.827, 107.102 46.934, 107.728 47.935 C 108.664 49.435, 108.435 50.131, 106.433 51.872 C 105.095 53.035, 103.996 53.652, 103.992 53.243 C 103.988 52.835, 102.889 51.992, 101.550 51.372 C 99.528 50.434, 98.765 50.571, 97.036 52.181 C 94.426 54.612, 95.047 55.634, 100.045 57.132 C 103.185 58.073, 104.836 58.044, 108.017 56.994 C 113.197 55.285, 114.273 53.879, 114.273 48.820 C 114.273 44.639, 112.325 42, 109.237 42 C 107.388 42, 105 39.515, 105 37.590 C 105 35.643, 109.577 34.404, 111.346 35.873 C 112.346 36.702, 113.160 36.402, 114.694 34.637 C 116.650 32.387, 116.657 32.267, 114.874 31.153 C 112.728 29.813, 106.475 29.734, 103.315 31.007 M 134.357 30.746 L 128.214 31.090 127.046 41.295 C 126.404 46.908, 125.645 52.737, 125.360 54.250 L 124.841 57 131.855 57 C 140.392 57, 143.522 55.904, 147.750 51.432 C 150.611 48.407, 151 47.333, 151 42.462 C 151 39.145, 150.378 35.981, 149.447 34.560 C 148.066 32.451, 146.856 31.838, 141.843 30.705 C 141.104 30.538, 137.736 30.556, 134.357 30.746 M 223.034 31.277 C 220.017 32.804, 218.485 37.523, 219.845 41.097 C 220.575 43.012, 222.020 44.026, 225.353 44.959 C 230.193 46.314, 231.341 47.794, 230.414 51.485 C 229.553 54.918, 221.523 56.528, 220.362 53.500 C 219.557 51.403, 216.775 51.591, 217.184 53.716 C 217.711 56.454, 222.126 58.387, 226.134 57.635 C 231.145 56.694, 232.959 55.029, 233.657 50.724 C 234.335 46.548, 232.157 43, 228.916 43 C 227.941 43, 226.468 42.325, 225.643 41.500 C 224.818 40.675, 223.661 40, 223.071 40 C 221.321 40, 221.851 37.149, 224 35 C 226.055 32.945, 232 32.202, 232 34 C 232 34.550, 232.900 35, 234 35 C 236.833 35, 236.482 32.541, 233.453 31.161 C 230.163 29.661, 226.138 29.707, 223.034 31.277 M 305.683 31.409 C 304.134 32.094, 301.999 33.970, 300.940 35.577 C 299.056 38.435, 299.013 38.447, 299.007 36.110 C 298.996 32.439, 296.254 31.067, 288.854 31.032 L 282.208 31 280.922 42.963 C 280.176 49.896, 279.155 55.110, 278.492 55.365 C 277.768 55.642, 276.672 52.718, 275.508 47.402 C 274.495 42.781, 273.331 39, 272.921 39 C 272.511 39, 271.872 37.200, 271.500 35 C 270.951 31.748, 270.412 31, 268.620 31 C 266.899 31, 265.813 32.315, 263.662 37 C 262.147 40.300, 260.589 43, 260.198 43 C 259.808 43, 258.417 45.334, 257.109 48.187 C 255.800 51.040, 254.284 53.853, 253.741 54.437 C 253.155 55.067, 249.703 55.364, 245.268 55.167 L 237.783 54.834 238.392 51.792 C 238.726 50.119, 239 47.906, 239 46.875 C 239 45.234, 239.811 45, 245.500 45 C 250.611 45, 252 44.679, 252 43.500 C 252 42.333, 250.667 42, 246 42 L 240 42 240 38.929 C 240 34.309, 241.972 33, 248.929 33 C 252.310 33, 255 32.557, 255 32 C 255 31.413, 251.543 31, 246.628 31 L 238.256 31 237.669 34.750 C 237.346 36.813, 236.776 41.538, 236.403 45.250 C 236.029 48.962, 235.336 52, 234.862 52 C 234.388 52, 234 53.125, 234 54.500 L 234 57 245.051 57 L 256.102 57 257.564 53.500 C 259.008 50.046, 259.107 50, 265.085 50 C 271.375 50, 273.485 51.064, 274.150 54.571 C 274.418 55.978, 275.493 56.582, 278.128 56.803 C 282.167 57.141, 282.961 55.826, 282.986 48.750 C 282.998 45.531, 283.318 45.001, 285.250 45.004 C 286.993 45.007, 287.938 46.077, 289.444 49.754 C 290.513 52.364, 291.943 55.063, 292.622 55.750 C 293.823 56.965, 296 57.471, 296 56.535 C 296 55.164, 292.643 46.423, 291.947 45.981 C 291.498 45.696, 292.451 44.704, 294.065 43.778 L 297 42.093 297 46.547 C 297 48.996, 297.343 51, 297.763 51 C 298.182 51, 298.970 52.013, 299.513 53.250 C 300.760 56.094, 307.807 58.446, 312.461 57.573 C 316.873 56.746, 320.902 53.551, 319.428 52.049 C 318.656 51.262, 317.705 51.521, 316.025 52.978 C 313.732 54.967, 309.558 55.525, 305.372 54.402 C 302.604 53.659, 301 50.009, 301 44.453 C 301 39.995, 301.591 39.017, 306.861 34.750 C 309.115 32.925, 316 32.310, 316 33.933 C 316 35.459, 320.103 36.299, 321.351 35.028 C 322.220 34.143, 321.925 33.388, 320.139 31.929 C 317.401 29.692, 310.154 29.431, 305.683 31.409 M 3.454 32.288 C 2.594 33.284, -0.026 51.105, -0.006 55.816 C -0.002 56.662, 0.984 57.020, 2.750 56.816 C 4.993 56.558, 5.551 55.947, 5.774 53.500 C 6.623 44.211, 9.070 43.375, 11.632 51.500 C 13.270 56.699, 13.545 57, 16.651 57 C 20.159 57, 20.147 57.070, 17.785 50.750 C 17.220 49.237, 16.362 48, 15.879 48 C 15.395 48, 15 47.325, 15 46.500 C 15 45.675, 15.605 45, 16.345 45 C 18.122 45, 21 41.757, 21 39.755 C 21 38.881, 21.562 37.904, 22.250 37.583 C 23.250 37.117, 23.250 36.883, 22.250 36.417 C 21.563 36.096, 21 35.212, 21 34.452 C 21 33.692, 20.130 32.605, 19.066 32.035 C 16.383 30.600, 4.749 30.788, 3.454 32.288 M 24.676 34.706 C 24.349 36.793, 23.776 41.538, 23.403 45.250 C 23.029 48.962, 22.336 52, 21.862 52 C 21.388 52, 21 53.125, 21 54.500 C 21 56.611, 21.467 57, 24 57 C 26.762 57, 27 56.722, 27 53.500 C 27 51.575, 27.410 50, 27.910 50 C 28.411 50, 29.139 46.175, 29.529 41.500 C 29.918 36.825, 30.591 33, 31.024 33 C 31.458 33, 32.122 35.250, 32.500 38 C 32.878 40.750, 33.523 43, 33.933 43 C 34.344 43, 35.274 46.150, 36 50 C 37.251 56.631, 37.464 57, 40.046 57 C 42.216 57, 43.131 56.235, 44.534 53.250 C 45.503 51.188, 46.582 49.275, 46.932 49 C 47.282 48.725, 48.672 46.138, 50.020 43.250 C 51.369 40.362, 52.772 38, 53.138 38 C 53.505 38, 54.300 36.577, 54.907 34.838 C 56.841 29.290, 57.037 32.343, 55.498 44.017 C 54.674 50.263, 54 55.739, 54 56.186 C 54 56.634, 58.275 57, 63.500 57 C 72.967 57, 73 56.991, 73 54.500 C 73 52.071, 72.800 52, 66 52 C 62 52, 59 51.571, 59 51 C 59 50.450, 59.450 50, 60 50 C 60.550 50, 61 49.100, 61 48 C 61 46.227, 61.667 46, 66.883 46 C 71.647 46, 72.853 45.667, 73.221 44.250 C 74.107 40.831, 72.973 40, 67.417 40 C 62.667 40, 62 39.754, 62 38 C 62 36.205, 62.667 36, 68.500 36 C 74.767 36, 75 35.910, 75 33.500 L 75 31 62.578 31 L 50.155 31 49.021 34.435 C 48.398 36.325, 47.496 38.012, 47.017 38.185 C 46.538 38.358, 45.274 40.730, 44.208 43.455 C 43.142 46.180, 41.846 48.551, 41.327 48.724 C 40.808 48.897, 39.733 45.092, 38.937 40.269 L 37.490 31.500 31.380 31.206 L 25.270 30.912 24.676 34.706 M 78.454 32.262 C 77.594 33.280, 74.974 51.117, 74.994 55.816 C 74.998 56.662, 75.984 57.020, 77.750 56.816 C 80.223 56.532, 80.554 56.026, 81.041 51.792 C 81.339 49.203, 81.880 46.787, 82.244 46.423 C 83.273 45.394, 85.429 48.106, 87.073 52.500 C 88.343 55.891, 89.060 56.548, 91.785 56.813 C 93.553 56.986, 95 56.882, 95 56.584 C 95 54.993, 91.653 48, 90.891 48 C 88.866 48, 90.190 45.169, 92.485 44.593 C 94.018 44.208, 95.208 43.018, 95.593 41.485 C 95.936 40.118, 96.618 39, 97.108 39 C 97.599 39, 98 38.325, 98 37.500 C 98 36.675, 97.657 36, 97.237 36 C 96.818 36, 96.030 34.987, 95.487 33.750 C 94.605 31.739, 93.702 31.475, 87 31.262 C 82.008 31.104, 79.150 31.439, 78.454 32.262 M 119.570 33.250 C 118.501 38.389, 116.807 56.140, 117.335 56.668 C 117.650 56.983, 118.978 56.971, 120.288 56.643 C 122.514 56.084, 122.745 55.342, 123.836 45.272 C 125.412 30.722, 125.438 31, 122.519 31 C 120.752 31, 119.903 31.647, 119.570 33.250 M 154.420 31.765 C 153.425 32.442, 151 48.520, 151 54.442 C 151 56.924, 151.194 57, 157.500 57 C 163.767 57, 164 56.910, 164 54.500 C 164 52.310, 163.567 52, 160.500 52 C 157.278 52, 157 51.762, 157 49 C 157 46.252, 157.287 46, 160.418 46 C 165.360 46, 167 45.101, 167 42.393 C 167 40.218, 166.584 40, 162.427 40 C 158.611 40, 157.909 39.710, 158.186 38.250 C 158.449 36.870, 159.732 36.437, 164.260 36.200 C 167.417 36.035, 170 35.509, 170 35.032 C 170 34.554, 170.273 33.452, 170.607 32.582 C 171.129 31.221, 170.114 31.002, 163.357 31.015 C 159.036 31.024, 155.014 31.361, 154.420 31.765 M 181.649 31.759 C 181.391 32.177, 180.856 36.227, 180.461 40.759 C 180.065 45.292, 179.350 49, 178.871 49 C 178.392 49, 178 50.833, 178 53.073 C 178 56.413, 178.315 57.087, 179.750 56.813 C 180.759 56.621, 181.614 55.426, 181.770 53.990 C 182.628 46.066, 183.090 44.872, 185.174 45.188 C 186.515 45.391, 187.783 46.898, 188.803 49.500 C 189.665 51.700, 190.737 53.650, 191.185 53.833 C 191.633 54.017, 192 54.804, 192 55.583 C 192 56.363, 192.875 57, 193.945 57 C 195.845 57, 195.840 56.881, 193.742 51.750 C 192.561 48.862, 191.206 46.230, 190.730 45.899 C 190.254 45.569, 191.203 44.745, 192.837 44.067 C 196.796 42.428, 198.640 35.040, 195.800 32.200 C 194.490 30.890, 182.418 30.514, 181.649 31.759 M 200.630 32.750 C 200.352 33.712, 199.819 37.987, 199.445 42.250 C 199.071 46.513, 198.368 50, 197.883 50 C 197.397 50, 197 51.575, 197 53.500 L 197 57 206 57 C 211.333 57, 215 56.593, 215 56 C 215 55.429, 212 55, 208 55 C 200.318 55, 200.262 54.940, 201.625 48.125 C 202.247 45.017, 202.285 45, 208.625 45 C 213.625 45, 215 44.676, 215 43.500 C 215 42.318, 213.599 42, 208.393 42 C 202.779 42, 201.877 41.762, 202.393 40.418 C 202.727 39.548, 203 37.523, 203 35.918 L 203 33 210.500 33 C 214.833 33, 218 32.578, 218 32 C 218 31.412, 214.522 31, 209.567 31 C 202.395 31, 201.059 31.262, 200.630 32.750 M 324.642 34.750 C 324.301 36.813, 324.017 39.700, 324.011 41.167 C 324.005 42.633, 323.614 43.983, 323.143 44.167 C 322.672 44.350, 321.974 47.313, 321.593 50.750 C 320.954 56.518, 321.051 57, 322.852 57 C 324.493 57, 324.914 56.046, 325.500 51 L 326.196 45 333.079 45 L 339.962 45 339.396 49.750 C 339.085 52.362, 338.657 55.063, 338.446 55.750 C 338.235 56.438, 338.531 57, 339.103 57 C 341.545 57, 342.673 53.883, 343.807 44 C 345.340 30.639, 345.362 31, 343 31 C 341.413 31, 340.997 31.671, 340.986 34.250 C 340.956 41.473, 340.430 42, 333.246 42 L 326.725 42 327.371 36.500 C 327.879 32.182, 327.721 31, 326.640 31 C 325.824 31, 325.009 32.531, 324.642 34.750 M 183.986 35.250 C 183.979 36.487, 183.701 38.513, 183.370 39.750 C 182.815 41.821, 183.100 42, 186.955 42 C 192.786 42, 195.181 39.241, 193.393 34.582 C 192.967 33.472, 191.476 33, 188.393 33 C 184.508 33, 183.998 33.260, 183.986 35.250 M 286 35 C 286 36.100, 285.550 37, 285 37 C 284.450 37, 284 38.125, 284 39.500 C 284 41.764, 284.391 42, 288.140 42 C 292.271 42, 294.897 40.146, 294.968 37.179 C 295.022 34.935, 292.291 33, 289.071 33 C 286.667 33, 286 33.434, 286 35 M 267.466 36.357 C 266.054 37.919, 262 45.834, 262 47.031 C 262 47.564, 264.076 48, 266.614 48 L 271.227 48 270.532 43.368 C 269.546 36.792, 268.740 34.949, 267.466 36.357 M 7.630 38.250 C 6.683 41.785, 6.819 42, 10 42 C 13.690 42, 18.003 38.250, 15.868 36.897 C 15.116 36.421, 13.090 36.024, 11.367 36.015 C 8.956 36.004, 8.094 36.519, 7.630 38.250 M 82.630 38.250 C 81.683 41.785, 81.819 42, 85 42 C 88.690 42, 93.003 38.250, 90.868 36.897 C 90.116 36.421, 88.090 36.024, 86.367 36.015 C 83.956 36.004, 83.094 36.519, 82.630 38.250 M 132.353 44 L 131.421 52 134.088 52 C 137.128 52, 143.550 49.537, 144.494 48.009 C 144.842 47.447, 145.151 45.112, 145.183 42.818 C 145.253 37.717, 143.306 36, 137.451 36 L 133.284 36 132.353 44" stroke="none" fill="#fcfcfc" fill-rule="evenodd"/></svg>