<?xml version="1.0" encoding="UTF-8"?>
<svg id="Layer_2" data-name="Layer 2" xmlns="http://www.w3.org/2000/svg" viewBox="0 0 406 73.45">
  <defs>
    <style>
      .cls-1 {
        fill: #aa1e2e;
      }

      .cls-2 {
        fill: #231f20;
      }

      .cls-3 {
        fill: #fff;
      }

      .cls-4 {
        fill: #a2a9ad;
      }
    </style>
  </defs>
  <g id="Layer_1-2" data-name="Layer 1">
    <g>
      <path class="cls-4" d="M36.72,0C16.47,0,0,16.47,0,36.72s16.47,36.72,36.72,36.72,36.72-16.47,36.72-36.72S56.97,0,36.72,0h0Z"/>
      <path class="cls-1" d="M54.64,30.7c0-1.1-.07-2.19-.17-3.26-.27.26-1.13.94-2.83.94h-10.07c-4.21,0-4.95,1.47-4.95,1.47,0,0-.74-1.47-4.95-1.47h-10.07c-1.7,0-2.56-.68-2.83-.94-.1,1.08-.17,2.16-.17,3.26,0,2.74.32,5.41.92,7.97h34.19c.6-2.56.92-5.23.92-7.97h0Z"/>
      <path class="cls-1" d="M36.62,61.42c8.28-4.69,14.49-12.57,16.91-21.96H19.72c2.42,9.39,8.62,17.27,16.9,21.96h0Z"/>
      <path class="cls-1" d="M226.79,12.57l.33-.03v-3.34h-24.43v3.34l.33.03c6.1.56,6.77.85,6.77,7.73v32.21c0,6.89-.67,7.18-6.77,7.73l-.33.03v3.34h24.43v-3.34l-.33-.03c-6.12-.56-6.69-.81-6.69-7.73V20.3c0-6.93.57-7.18,6.69-7.73h0Z"/>
      <path class="cls-1" d="M179.27,38.02c-2.14,0-3.81-.41-4.68-.78v-20.74c0-1.52.21-2.35.72-2.8.39-.39,1.47-.8,3.38-.8,6.69,0,10.69,4.56,10.69,12.2,0,12.31-8.44,12.93-10.12,12.93h0ZM194.59,12.49c-3.2-2.24-7.81-3.29-14.5-3.29h-41.16v3.33c3.5.16,6.24,1.9,6.24,4.01,0,.2-.02.38-.07.56-.08.54-.21,1.18-.38,1.88-1.16,4.84-4.81,18.44-8.09,28.93l-13.85-38.14h-4.01l-12.18,37.91-9.12-31.11s-1.32-3.58,5.51-4.05v-3.32h-23.61v3.32s5.61-.18,7.24,4.68l14.48,47.33h4.25l12.55-37.83,13.68,37.83h4.25c7.14-24.15,12-38.81,13.7-43.53,1.08-3.19,1.86-5.08,2.99-6.26,1.24-1.28,3.06-2.08,5.1-2.08,3.71,0,6.72,2.34,6.72,5.3v34.56c0,6.88-.67,7.18-6.77,7.73l-.33.03v3.33h25.26v-3.33l-.34-.03c-6.95-.56-7.59-.82-7.59-7.73v-10.58c.6.11,1.21.21,1.83.28,1.24.18,2.6.18,3.58.18s2.34,0,3.6-.18c8.22-.95,17-6.02,17-17.36,0-5.3-2.03-9.45-6.02-12.36h0Z"/>
      <path class="cls-1" d="M36.59,62.59c-14.25,0-25.85-11.59-25.85-25.85s11.59-25.83,25.85-25.83,25.85,11.59,25.85,25.83-11.59,25.85-25.85,25.85h0ZM36.72,1.75C17.4,1.75,1.74,17.41,1.74,36.73s15.66,34.97,34.98,34.97,34.97-15.66,34.97-34.97S56.05,1.75,36.72,1.75h0Z"/>
      <path class="cls-3" d="M22.8,11.65c-.65.36-1.37-.02-1.85-.87-.46-.83-.43-1.67.25-2.03.67-.38,1.39.08,1.83.87.46.83.43,1.67-.23,2.03h0ZM24.02,9.02c-.65-1.19-1.93-1.78-3.24-1.05-1.28.7-1.55,2.13-.85,3.4.69,1.24,1.98,1.78,3.24,1.08,1.26-.7,1.63-2.03.85-3.43h0Z"/>
      <path class="cls-3" d="M45.5,6c.39.1.67.26.87.41l.44-.78c-.16-.16-.56-.38-1.11-.52-1.44-.36-2.83.23-3.25,1.85-.34,1.36.25,2.6,1.88,3.02.57.15,1.05.15,1.26.11l.07-.88c-.25.03-.6,0-.93-.08-.96-.25-1.37-1-1.13-1.95.28-1.05,1.08-1.39,1.91-1.18h0Z"/>
      <path class="cls-3" d="M63.04,17.05c-.92-1.18-2.39-1.54-3.69-.51-1.11.87-1.41,2.21-.36,3.55.38.46.75.75.95.85l.59-.67c-.21-.11-.49-.36-.7-.64-.6-.77-.47-1.6.29-2.21.85-.69,1.7-.47,2.24.21.25.33.38.62.43.85l.83-.36c-.03-.21-.21-.64-.57-1.08h0Z"/>
      <path class="cls-3" d="M17.12,13.35l-.92-1.13c.05-.07.16-.16.33-.31.44-.34.85-.33,1.13.02.33.38.23.85-.23,1.23-.13.1-.23.16-.31.2h0ZM17.97,13.81c.51-.42.83-.9.92-1.41.07-.41-.08-.82-.39-1.19-.29-.38-.72-.56-1.11-.56-.42,0-.88.21-1.42.64-.52.43-.87.77-1.1,1.03l3.04,3.78c.28-.25.56-.49.83-.72l-1.08-1.36c.1-.05.2-.13.31-.21h0Z"/>
      <path class="cls-3" d="M28.99,9.91l-.33-.9-1.84.65-1.35-3.81c-.35.13-.69.27-1.03.4l1.66,4.65c.94-.39,1.9-.72,2.89-1h0Z"/>
      <path class="cls-3" d="M30.43,9.53c.36-.08.72-.16,1.08-.23l-.42-1.97.95-3.12c-.39.06-.78.12-1.17.19l-.25,1.3c-.07.37-.13.67-.17,1h-.02c-.18-.29-.34-.52-.56-.84l-.78-1.09c-.39.09-.78.19-1.17.3l2.08,2.52.41,1.94h0Z"/>
      <path class="cls-3" d="M52.33,13.58l.85-1.18c.47-.65.87-1.22,1.23-1.77l.02.02c-.15.6-.26,1.31-.33,1.9l-.27,2.12c.31.24.62.49.92.75l2.92-4c-.26-.22-.53-.42-.79-.63l-.87,1.18c-.44.6-.81,1.15-1.14,1.71h-.01c.14-.59.27-1.25.34-1.84l.23-2.13c-.34-.24-.69-.46-1.03-.69l-2.91,4c.29.18.58.36.86.55h0Z"/>
      <path class="cls-3" d="M56.63,17.16l3.44-3.54c-.26-.26-.53-.52-.8-.77l-3.44,3.53c.27.25.53.51.79.77h0Z"/>
      <path class="cls-3" d="M41.02,9.14s0,0,0,0l.08-.92s-1.14-.15-2-.23l.11-1.14c.47.04,1.2.11,1.8.2l.08-.9c-.63-.08-1.31-.16-1.79-.21l.09-.98s1.05.09,1.91.21l.08-.95c-1.01-.14-2.01-.25-3.01-.3l-.45,4.92c1.03.04,2.06.14,3.1.3h0Z"/>
      <path class="cls-3" d="M33.09,4.09l.05,1c.45-.05.97-.09,1.32-.12l.21,3.93c.37-.03.74-.05,1.1-.06l-.21-3.94s.6-.02,1.33-.02l-.05-1c-1.26,0-2.51.07-3.77.21h0Z"/>
      <path class="cls-3" d="M51.42,7.35l-.83,1.79c-.66-.33-1.25-.6-1.65-.78l.82-1.78c-.34-.15-.68-.28-1.03-.42l-2.09,4.48c.35.13.69.27,1.03.41l.88-1.85c.66.29,1.24.57,1.66.77l-.88,1.86c.33.17.66.34.98.52l2.09-4.49c-.32-.18-.66-.34-.98-.51h0Z"/>
      <path class="cls-2" d="M29,30.63c.94-.66,1.87-.34,2.63-.09,1.11.36,1.95-.23,1.95-.23l.91.77v6.19c-.54.24-1.04.4-2.12.07-.93-.29-1.77-.39-2.45-.34v.21c0,.12-.41.21-.92.21s-.92-.1-.92-.21v-.21c-.68-.05-1.52.05-2.45.34-1.07.33-1.57.17-2.12-.07v-6.19l.91-.77s.84.59,1.95.23c.76-.25,1.69-.57,2.63.09h0Z"/>
      <path class="cls-4" d="M31.25,31.16c.86.3,1.6.16,2.15-.07v5.21c-.5.2-.92.23-1.72-.05-.93-.32-1.93-.38-2.4-.2v-4.81c.28-.24.9-.45,1.98-.07h0Z"/>
      <path class="cls-4" d="M26.69,31.15c-.88.31-1.64.17-2.21-.07v5.22c.52.21.94.23,1.77-.05.96-.33,1.99-.39,2.47-.21v-4.81c-.29-.24-.93-.46-2.04-.07h0Z"/>
      <path class="cls-2" d="M44.24,30.63c.94-.66,1.87-.34,2.63-.09,1.11.36,1.95-.23,1.95-.23l.91.77v6.19c-.54.24-1.04.4-2.12.07-.93-.29-1.77-.39-2.45-.34v.21c0,.12-.41.21-.92.21s-.92-.1-.92-.21v-.21c-.68-.05-1.52.05-2.45.34-1.07.33-1.57.17-2.12-.07v-6.19l.91-.77s.84.59,1.95.23c.76-.25,1.69-.57,2.63.09h0Z"/>
      <path class="cls-4" d="M46.55,31.15c.88.31,1.65.17,2.21-.07v5.22c-.51.21-.94.23-1.77-.05-.96-.33-1.99-.39-2.47-.21v-4.81c.29-.24.93-.46,2.03-.07h0Z"/>
      <path class="cls-4" d="M41.99,31.16c-.86.3-1.6.16-2.15-.07v5.21c.5.2.92.23,1.72-.05.93-.32,1.93-.38,2.4-.2v-4.81c-.28-.24-.9-.45-1.98-.07h0Z"/>
      <path class="cls-3" d="M38.46,47.92c1.43-.6,1.53-2.04,1.53-2.04l.4-.26v-.25c-.4-.96-1.4-2.01-2.28-2.69-.59-.45-.6-.94-.54-1.23l.2-.09c.2-.09.31-.14.48-.05.17.1.22.03.22.03.14-.06.13-.35-.01-.64-.14-.29-.37-.49-.51-.43,0,0-.08,0-.12.18-.04.19-.16.23-.35.32l-.21.09s-.07-.04-.07-.04c-.46-.21-.55.07-.55.07-.46-.2-.54.14-.54.14-.49-.11-.52.21-.52.21-.68,0-.56.43-.5.57l-.78.34-.36-.75-1.36.59.91,1.93.59.25.57-.25.19-.59-.28-.59.62-.27c.07.19.25.41.64.44.62.04.79-.1,1.25.95.45,1.05,1.13,1.44,1.13,1.44-1.07-.11-1.36.75-1.36.75-1.71-.07-2.09,1.19-2.17,1.87h-2.37c.14.28.29.55.44.81h7.71c.15-.26.3-.53.44-.81h-2.47Z"/>
      <path class="cls-3" d="M67.95,33.17c-.7.05-1.13.62-1.37,1.45-.16.59-.33.83-.62.85-.33.03-.56-.23-.59-.74-.03-.47.1-.95.23-1.24l-.92-.18c-.15.29-.26.85-.23,1.41.08,1.34.82,1.93,1.65,1.88.69-.05,1.11-.47,1.37-1.36.21-.65.33-.93.64-.95.25-.02.49.2.52.69.03.47-.1.83-.18,1.03l.9.2c.13-.29.21-.7.18-1.28-.07-1.14-.75-1.81-1.59-1.77h0Z"/>
      <path class="cls-3" d="M61.02,50.23c-.62,1.12-.37,2.14.95,2.88l2.41,1.34c.2-.31.39-.62.59-.94l-2.51-1.4c-.76-.43-.96-.91-.68-1.41.27-.49.81-.56,1.55-.15l2.5,1.4c.17-.33.34-.65.5-.99l-2.39-1.34c-1.36-.76-2.32-.47-2.92.61h0Z"/>
      <path class="cls-3" d="M62.77,26.69l4.57-1.87c-.13-.35-.27-.69-.41-1.03l-4.57,1.87c.15.34.28.68.42,1.03h0Z"/>
      <path class="cls-3" d="M63.57,29.07l1.42-.35c.78-.19,1.45-.37,2.07-.56v.03c-.49.36-1.03.83-1.47,1.24l-1.57,1.46c.08.38.15.77.22,1.16l4.8-1.18c-.06-.34-.12-.67-.19-1.01l-1.43.35c-.72.18-1.36.36-1.97.58h0c.48-.37,1.01-.79,1.44-1.19l1.55-1.46c-.11-.41-.22-.81-.35-1.21l-4.81,1.18c.11.32.2.65.3.98h0Z"/>
      <path class="cls-3" d="M64.11,42.15c-.07.36-.15.72-.24,1.08l4.82,1.04c.08-.36.17-.72.24-1.08l-4.83-1.04h0Z"/>
      <path class="cls-3" d="M63.42,55.85l-.78-.63c-.26.36-.58.78-.8,1.06l-3.06-2.47c-.22.29-.46.58-.69.86l3.07,2.48s-.38.46-.88,1l.77.63c.84-.93,1.63-1.92,2.36-2.94h0Z"/>
      <path class="cls-3" d="M54.23,58.46s0,0,0,0l.62.68s.88-.75,1.52-1.33l.77.85c-.35.32-.89.81-1.36,1.2l.61.67c.49-.41,1-.86,1.36-1.19l.66.73s-.77.71-1.44,1.27l.65.7c.78-.65,1.54-1.32,2.25-2.03l-3.34-3.65c-.72.73-1.49,1.43-2.31,2.09h0Z"/>
      <path class="cls-3" d="M68.29,45.82l-.94-.33c-.13.43-.29.93-.39,1.27l-3.71-1.31c-.12.35-.24.7-.36,1.05l3.72,1.31s-.2.56-.49,1.24l.94.34c.49-1.16.9-2.35,1.24-3.56h0Z"/>
      <path class="cls-3" d="M69.54,37.87l-.99-.09c-.02.45-.05.98-.07,1.33l-3.92-.35c-.03.37-.05.74-.09,1.1l3.93.35s-.06.6-.17,1.32l.99.09c.18-1.24.29-2.5.33-3.76h0Z"/>
      <path class="cls-3" d="M9.46,42.17c-.13-.59-.34-1.01-.47-1.18l-.82.34c.13.2.28.54.36.87.21.96-.28,1.67-1.23,1.88-1.08.25-1.73-.31-1.93-1.16-.08-.39-.07-.72-.03-.95l-.9-.05c-.07.21-.08.67.05,1.23.33,1.45,1.49,2.42,3.12,2.06,1.37-.31,2.22-1.39,1.85-3.04h0Z"/>
      <path class="cls-3" d="M7.33,49.27c-.05-.07-.13-.2-.23-.46-.2-.47-.08-.83.33-1,.39-.16.77.03.98.54l.16.41-1.24.51h0ZM11.08,47.75l-1.77.72-.11-.31c-.16-.42-.1-.69.43-1.05.34-.25.6-.44.92-.7-.13-.36-.26-.74-.38-1.11-.43.38-.83.65-1.18.92-.38.28-.59.57-.59.95h-.03c-.29-.33-.87-.57-1.44-.34-.41.16-.67.44-.78.82-.11.42-.03.93.25,1.62.23.54.46,1.01.65,1.32l4.5-1.83c-.16-.33-.31-.65-.46-1h0Z"/>
      <path class="cls-3" d="M8.81,36.72h0s-.92.05-.92.05c0,0,.03,1.15.08,2.02l-1.14.07c-.03-.47-.07-1.2-.08-1.81l-.91.06c.01.64.04,1.31.07,1.81l-.98.06s-.07-1.05-.08-1.92l-.96.07c.01,1.02.06,2.03.17,3.02l4.93-.31c-.11-1.02-.17-2.05-.17-3.11h0Z"/>
      <path class="cls-3" d="M11.81,54.08c-.8.51-1.63.52-2.04-.11-.41-.64,0-1.41.75-1.88.8-.52,1.63-.54,2.04.1.39.62.07,1.37-.75,1.9h0ZM13.33,51.74c-.78-1.21-2.13-1.5-3.48-.62-1.14.74-1.65,2.03-.83,3.3.78,1.23,2.21,1.42,3.45.62,1.19-.75,1.65-2.08.87-3.3h0Z"/>
      <path class="cls-3" d="M7.71,32.19c-.69-.07-1.18.29-1.59,1.13-.29.6-.46.87-.77.83-.25-.03-.46-.28-.41-.75.05-.47.21-.82.33-1l-.85-.33c-.16.26-.31.65-.38,1.21-.11,1.14.46,1.91,1.29,1.99.7.07,1.21-.43,1.57-1.21.26-.56.46-.78.77-.75.31.03.51.33.46.83-.05.47-.25.92-.43,1.19l.88.31c.18-.26.38-.8.44-1.36.13-1.34-.51-2.03-1.32-2.11h0Z"/>
      <path class="cls-3" d="M10.98,20.17l-.25.36-1.13-.74c.03-.07.1-.21.25-.44.28-.43.64-.56,1.01-.31.36.25.41.67.11,1.13h0ZM12.69,20.45c.44.16.77.26,1.11.36.21-.33.44-.64.69-.95-.46-.13-.95-.29-1.42-.44-.44-.15-.82-.16-1.13.05l-.02-.02c.1-.44-.02-1.05-.52-1.37-.39-.25-.77-.31-1.13-.18-.43.13-.78.51-1.19,1.11-.31.51-.57.96-.72,1.29l4.09,2.65c.18-.31.36-.64.56-.95l-1.6-1.03.18-.28c.26-.38.51-.46,1.11-.25h0Z"/>
      <path class="cls-3" d="M17.43,56.89l-1.81,1.14c-.43.26-.82.54-1.28.86h-.01c.36-.45.63-.83.91-1.24l1.19-1.76c-.28-.29-.54-.59-.8-.89l-4.33,2.53c.24.29.48.56.72.85l1.7-1.12c.49-.34.98-.67,1.42-1h0c-.34.45-.65.87-.99,1.35l-1.23,1.77c.26.28.53.55.8.82l1.78-1.13c.52-.34,1.02-.68,1.46-.99h.01c-.3.42-.67.94-1.02,1.43l-1.17,1.69c.28.26.57.5.86.75l2.66-4.22c-.3-.27-.6-.54-.9-.82h0Z"/>
      <path class="cls-3" d="M11.87,24.05s0,0,0,0l-.84-.37s-.51,1.04-.86,1.83l-1.05-.47c.19-.43.49-1.1.76-1.64l-.83-.36c-.28.57-.57,1.19-.77,1.64l-.9-.4s.42-.96.81-1.74l-.88-.38c-.46.91-.88,1.83-1.24,2.76l4.52,2c.37-.96.79-1.9,1.27-2.84h0Z"/>
      <path class="cls-3" d="M4.52,30.26l.97.25c.09-.44.21-.95.29-1.3l3.81,1c.09-.36.18-.72.28-1.07l-3.81-1s.16-.58.39-1.28l-.96-.26c-.39,1.2-.7,2.41-.95,3.65h0Z"/>
      <polygon class="cls-3" points="30.28 64.08 28.93 64.36 28.93 65.21 29.89 65 29.91 65 29.07 68.66 30.12 68.89 31.17 64.28 30.28 64.08 30.28 64.08"/>
      <path class="cls-3" d="M34.14,66.56c-.36-.15-.64-.38-.6-.7.03-.29.25-.52.62-.49.39.03.54.34.51.64-.02.29-.26.51-.52.56h0ZM33.88,68.74c-.43-.03-.65-.38-.62-.72.03-.34.28-.59.64-.65.43.15.72.43.67.83-.02.34-.31.57-.69.54h0ZM34.94,66.97v-.02c.49-.2.74-.57.78-.98.05-.57-.36-1.26-1.45-1.36-.95-.08-1.72.39-1.78,1.19-.03.41.15.82.59,1.1v.02c-.54.18-.9.54-.95,1.1-.05.65.44,1.37,1.63,1.47,1.1.1,1.86-.41,1.95-1.28.05-.6-.33-1.03-.77-1.24h0Z"/>
      <path class="cls-3" d="M39,68.74c-.51.03-.78-.41-.83-.9-.02-.13,0-.23.03-.29.08-.25.31-.44.62-.46.46-.03.72.33.75.77.03.47-.2.85-.57.88h0ZM39.13,66.29c-.44.02-.77.18-.98.43h-.03c.1-.54.49-1.08,1.47-1.23.18-.02.31-.03.43-.03l-.05-.85c-.1,0-.25,0-.44.03-.74.08-1.34.34-1.78.8-.47.52-.75,1.29-.7,2.17.08,1.13.75,2.03,2.03,1.93,1.01-.07,1.68-.88,1.62-1.81-.07-.98-.77-1.5-1.55-1.44h0Z"/>
      <path class="cls-3" d="M44.28,65.85c-.38-.16-.85-.16-1.29-.07-.11.02-.2.05-.29.08l-.07-.74,1.8-.39-.2-.88-2.55.56.25,2.48c.16-.07.34-.11.6-.18.92-.2,1.36,0,1.47.49.1.49-.33.8-.77.9-.42.1-.87.07-1.1,0l-.02.87c.28.07.78.1,1.34-.03,1.24-.26,1.81-1.19,1.63-2.06-.13-.54-.42-.87-.82-1.03h0Z"/>
      <path class="cls-3" d="M23.38,63.6c0,.54-.43.97-.97.97s-.97-.43-.97-.97.43-.97.97-.97.97.43.97.97h0Z"/>
      <path class="cls-3" d="M49.81,63.6c0,.54.43.97.97.97s.97-.43.97-.97-.43-.97-.97-.97-.97.43-.97.97h0Z"/>
      <path class="cls-2" d="M24.7,20.75l-.88-2.06c-2.73.58-4.11,2.86-4.11,2.86,0,0,1.73.49,4.99-.8h0Z"/>
      <path class="cls-3" d="M23.82,18.69h-4.43l1.11,1.88c.68-.69,1.78-1.56,3.32-1.88h0Z"/>
      <path class="cls-3" d="M52.95,20.57l1.11-1.88h-4.43c1.54.33,2.64,1.19,3.32,1.88h0Z"/>
      <path class="cls-2" d="M30.8,21.17c0,.55,1.46,1.03,3.56,1.24v-3.49c0,1.15-3.56.88-3.56,2.25h0Z"/>
      <path class="cls-3" d="M29.74,49.63c.17-.49.14-1.05-.09-1.54-.39.16-.69.46-.87.84.19.45.39.88.59,1.28.15-.16.29-.35.37-.57h0Z"/>
      <path class="cls-3" d="M31.08,51.63c.11-.56-.02-1.15-.34-1.65-.43.26-.72.69-.84,1.2.27.46.54.89.79,1.26.18-.24.32-.5.38-.81h0Z"/>
      <path class="cls-3" d="M28.77,47.19c.23-.46.27-1.01.1-1.53-.4.1-.73.34-.96.68.11.47.26.93.41,1.38.18-.14.35-.31.46-.52h0Z"/>
      <path class="cls-3" d="M28.2,44.59c.29-.41.41-.95.31-1.48-.37.03-.7.19-.96.42.01.51.05,1.01.12,1.5.2-.11.39-.25.53-.44h0Z"/>
      <path class="cls-3" d="M31.52,54c-3.86-4.11-4.45-8.72-4.44-11.14l.07-.06s0,0,0,0c.3-.29.52-.67.59-1.11.1-.58-.04-1.2-.38-1.71-.46.29-.78.78-.87,1.35-.09.51.02,1.05.28,1.52-.07.4-.11.8-.12,1.19-.04-.13-.09-.26-.16-.38-.28-.5-.74-.87-1.26-1.03-.12.53-.04,1.11.25,1.61.23.4.76.84,1.2,1.06.03.42.08.84.15,1.25-.05-.07-.08-.13-.14-.2-.37-.44-.87-.71-1.41-.76-.02.56.17,1.12.54,1.56.35.42.83.68,1.33.75.13.44.28.87.45,1.29-.06-.06-.12-.13-.19-.18-.43-.36-.97-.53-1.49-.47.08.56.38,1.08.82,1.44.42.34.94.51,1.45.46.2.38.41.76.63,1.12-.08-.06-.16-.12-.24-.16-.51-.28-1.1-.33-1.62-.15.2.58.6,1.06,1.13,1.35.35.19.74.28,1.12.25.14,0,.28-.04.41-.07.6.84,1.24,1.62,1.88,2.34-.04-.42,0-.8.04-1.1h0Z"/>
      <path class="cls-3" d="M43.5,49.63c-.17-.49-.14-1.05.09-1.54.39.16.69.46.87.84-.19.45-.39.88-.59,1.28-.15-.16-.29-.35-.37-.57h0Z"/>
      <path class="cls-3" d="M42.16,51.63c-.1-.56.02-1.15.34-1.65.42.26.72.69.84,1.2-.27.46-.54.89-.79,1.26-.18-.24-.32-.5-.38-.81h0Z"/>
      <path class="cls-3" d="M44.47,47.19c-.23-.46-.27-1.01-.1-1.53.4.1.73.34.96.68-.11.47-.25.93-.41,1.38-.18-.14-.35-.31-.45-.52h0Z"/>
      <path class="cls-3" d="M45.04,44.59c-.29-.41-.41-.95-.31-1.48.37.03.7.19.96.42-.01.51-.05,1.01-.12,1.5-.2-.11-.39-.25-.53-.44h0Z"/>
      <path class="cls-3" d="M41.73,54c3.86-4.11,4.45-8.72,4.44-11.14l-.07-.06s0,0,0,0c-.3-.29-.52-.67-.59-1.11-.1-.58.04-1.2.38-1.71.46.29.78.78.87,1.35.09.51-.02,1.05-.28,1.52.06.4.11.8.12,1.19.04-.13.09-.26.16-.38.28-.5.74-.87,1.26-1.03.12.53.04,1.11-.25,1.61-.23.4-.76.84-1.2,1.06-.03.42-.08.84-.15,1.25.05-.07.08-.13.14-.2.37-.44.87-.71,1.41-.76.02.56-.17,1.12-.54,1.56-.35.42-.83.68-1.33.75-.13.44-.28.87-.45,1.29.06-.06.12-.13.19-.18.43-.36.97-.53,1.49-.47-.08.56-.38,1.08-.82,1.44-.42.34-.94.51-1.45.46-.2.38-.41.76-.63,1.12.08-.06.16-.12.24-.16.51-.28,1.1-.33,1.62-.15-.2.58-.6,1.06-1.13,1.35-.35.19-.74.28-1.12.25-.14,0-.28-.04-.41-.07-.6.84-1.24,1.62-1.88,2.34.04-.42,0-.8-.04-1.1h0Z"/>
      <path class="cls-2" d="M40.57,50.82c-.55-.59-1.28-.92-2.06-.92-.7,0-1.36.26-1.88.74-1.1-1.01-2.9-.94-3.93.18-.59.64-.88,1.52-.81,2.42,0,.05.01.08.01.08,0,.04.01.09.02.14.02.12.05.25.1.46.02.06.03.11.05.16.17.49.39.95.66,1.4.74,1.19,1.9,2.33,3.45,3.39l.44.3.44-.3c.63-.43,1.2-.88,1.73-1.36,1.08-1.09,1.88-1.97,2.39-3.44l.03-.08c.08-.27.13-.54.16-.8.06-.88-.24-1.74-.81-2.36h0Z"/>
      <path class="cls-4" d="M32.81,53.24c.01.09.04.2.07.31.02.06.03.11.05.17.16.45.35.85.57,1.21.54.87,1.49,1.94,3.14,3.06.62-.42,1.13-.83,1.57-1.23.93-.93,1.69-1.74,2.14-3.06,0-.02.01-.03.01-.05.08-.26.11-.47.12-.61.04-.62-.15-1.26-.59-1.73-.79-.86-2.08-.86-2.88,0-.16.18-.29.38-.38.6-.1-.22-.22-.42-.38-.6-.79-.86-2.08-.86-2.88,0-.45.48-.64,1.14-.59,1.77,0,.03,0,.05.01.08,0,.03,0,.05.01.08h0Z"/>
      <path class="cls-2" d="M48.75,20.75l.88-2.06c2.73.58,4.11,2.86,4.11,2.86,0,0-1.73.49-4.99-.8h0Z"/>
      <path class="cls-2" d="M42.65,21.17c0,.55-1.46,1.03-3.56,1.24v-3.49c0,1.15,3.56.88,3.56,2.25h0Z"/>
      <path class="cls-3" d="M46.64,24.71s1.73.88,3.84,1.07l3.26-4.23s-2.48.71-7.14-1.8c-4.81-2.59-7.51-1.96-7.51-.82s3.56.88,3.56,2.25c0,.74-2.65,1.35-5.92,1.36-3.28,0-5.93-.61-5.93-1.36,0-1.36,3.56-1.1,3.56-2.25s-2.7-1.78-7.51.82c-4.66,2.51-7.14,1.8-7.14,1.8l3.26,4.23c.91-.06,2.19-.33,3.88-1.09,1.54-.83,2.86-1.33,3.95-1.59v2.53c0,.75,2.69,1.36,6.01,1.36s5.84-.61,5.84-1.36v-2.49c1.06.27,2.48.76,3.95,1.55l.04.02h0Z"/>
      <polygon class="cls-2" points="24.2 24 24.2 22.07 23.73 22.18 23.73 24.47 24.84 24.24 24.84 23.87 24.2 24 24.2 24"/>
      <polygon class="cls-2" points="25.58 23.6 25.58 22.98 26.11 22.8 26.11 22.44 25.58 22.62 25.58 22.08 26.15 21.9 26.15 21.51 25.12 21.85 25.12 24.16 26.18 23.78 26.18 23.41 25.58 23.6 25.58 23.6"/>
      <polygon class="cls-2" points="27.39 20.94 27.39 21.85 26.93 22.07 26.93 21.15 26.49 21.36 26.49 23.65 26.93 23.44 26.93 22.49 27.39 22.26 27.39 23.23 27.83 23.02 27.83 20.73 27.39 20.94 27.39 20.94"/>
      <path class="cls-2" d="M28.75,21.35l-.08.03v-.69s.08-.03.11-.05c.2-.08.28.02.28.21,0,.21-.11.41-.31.49h0ZM29.43,21.71c-.03-.25-.11-.34-.28-.34v-.02c.25-.2.36-.47.36-.72,0-.2-.05-.33-.18-.39-.15-.08-.38-.02-.62.08-.18.08-.34.16-.49.26v2.26l.44-.2v-.92l.08-.02c.15-.07.21-.02.26.25.03.25.08.46.11.51l.46-.2c-.03-.07-.1-.33-.15-.56h0Z"/>
      <path class="cls-2" d="M44.77,20.25l-.51-.2-.31.62c-.03.08-.07.16-.11.25v-1.03l-.46-.18v2.3l.46.16v-.75l.1-.15.34,1.08.49.18-.52-1.5.52-.78h0Z"/>
      <path class="cls-2" d="M45.83,20.74v1.49c0,.34-.1.39-.23.34-.11-.07-.21-.21-.21-.54v-1.5l-.44-.2v1.42c0,.57.18.98.65,1.21.44.2.67-.02.67-.62v-1.41l-.44-.2h0Z"/>
      <path class="cls-2" d="M47.61,21.54v.51c0,.43.03.83.05,1.08-.07-.23-.18-.57-.25-.77l-.36-1.05-.42-.18v2.3l.41.16v-.52c0-.46-.02-.82-.03-1.06.05.23.16.57.25.8l.34,1.01.43.16v-2.29l-.41-.16h0Z"/>
      <path class="cls-2" d="M49.07,22.97c-.26-.23-.33-.31-.33-.46,0-.11.1-.21.29-.15.13.03.23.1.31.15l.07-.36c-.07-.05-.21-.13-.38-.18-.51-.13-.77.1-.77.47,0,.2.13.47.46.75.21.18.31.29.31.46s-.1.23-.33.18c-.13-.03-.29-.13-.39-.2l-.07.36c.08.07.26.16.46.21.47.13.8-.05.8-.47,0-.25-.11-.51-.44-.77h0Z"/>
      <polygon class="cls-2" points="49.62 22.15 49.62 22.56 50.06 22.62 50.06 24.5 50.55 24.58 50.55 22.7 51 22.77 51 22.36 49.62 22.15 49.62 22.15"/>
      <path class="cls-2" d="M34.89,23.57v1.49c0,.36-.11.44-.26.43-.15-.02-.26-.13-.26-.46v-1.49l-.54-.05v1.42c0,.57.21.92.8.96.52.03.8-.26.8-.85v-1.41l-.54-.05h0Z"/>
      <path class="cls-2" d="M37.07,23.64v.51c0,.42.05.82.07,1.06h-.02c-.08-.2-.21-.49-.29-.67l-.43-.9h-.51v2.29h.47v-.51c0-.47-.02-.82-.03-1.05h.02c.07.2.18.49.28.69l.42.87h.51v-2.29h-.49Z"/>
      <path class="cls-2" d="M38.67,25.52h-.08v-1.57s.07-.02.1-.02c.33-.03.47.25.47.7,0,.64-.23.87-.49.88h0ZM39.36,23.72c-.18-.11-.41-.16-.77-.15-.21.02-.41.05-.56.08v2.26c.11,0,.28,0,.46-.02.38-.02.65-.11.85-.28.25-.2.38-.54.38-1s-.11-.74-.36-.9h0Z"/>
      <polygon class="cls-3" points="264.25 73.45 263.43 73.45 263.43 0 264.25 0 264.25 73.45 264.25 73.45"/>
      <path class="cls-3" d="M317.44,21.21c-.37,1.26-1.05,3.14-1.44,3.95-.76.16-2.8.63-4.79.63-6.25,0-9.45-4.16-9.45-8.74,0-5.34,4.06-9.03,9.92-9.03,2.25,0,4.08.47,4.95.6.1,1.18.29,2.75.5,4.06l-.81.18c-.52-1.75-1.15-2.83-2.49-3.38-.68-.31-1.75-.5-2.75-.5-4.32,0-6.59,3.19-6.59,7.51,0,5.05,2.62,8.29,6.86,8.29,2.67,0,3.98-1.23,5.31-3.85l.78.26h0Z"/>
      <path class="cls-3" d="M324.76,14.48c-1.6,0-3.04,1.54-3.04,4.58,0,3.32,1.46,5.73,3.61,5.73,1.62,0,2.98-1.18,2.98-4.76,0-3.06-1.26-5.55-3.56-5.55h0ZM325.08,13.59c3.27,0,5.71,2.49,5.71,5.86,0,4.24-3.14,6.25-5.71,6.25-3.61,0-5.81-2.9-5.81-5.83,0-4.26,3.32-6.28,5.81-6.28h0Z"/>
      <path class="cls-3" d="M346.32,25.39v-.73c1.54-.16,1.73-.26,1.73-2.09v-4.37c0-1.86-.63-3.03-2.25-3.03-1,0-1.91.55-2.9,1.36.03.31.08.63.08,1.13v5.08c0,1.65.24,1.78,1.68,1.94v.73h-5.6v-.73c1.62-.16,1.86-.26,1.86-1.99v-4.5c0-1.94-.6-3.01-2.2-3.01-1.05,0-2.07.71-2.88,1.36v6.15c0,1.73.18,1.83,1.68,1.99v.73h-5.63v-.73c1.73-.16,1.88-.26,1.88-1.99v-5.42c0-1.67-.1-1.78-1.57-2.04v-.65c1.23-.18,2.46-.52,3.64-1.05v2.12c.55-.42,1.1-.86,1.94-1.36.65-.42,1.23-.68,2.07-.68,1.26,0,2.33.78,2.85,2.15.73-.58,1.41-1.02,2.07-1.47.58-.37,1.31-.68,2.07-.68,2.04,0,3.3,1.46,3.3,4.03v5.05c0,1.75.16,1.83,1.65,1.99v.73h-5.44Z"/>
      <path class="cls-3" d="M356.25,23.41c.6.6,1.62,1.02,2.49,1.02,2.28,0,3.74-1.91,3.74-4.84s-1.65-4.42-3.51-4.42c-.92,0-2.02.6-2.72,1.12v7.12h0ZM352.46,14.46c1.23-.18,2.59-.63,3.79-1.12v2.09c.08-.05,2.17-1.26,2.28-1.31.63-.34,1.18-.52,1.52-.52,2.88,0,4.63,2.41,4.63,5,0,3.98-3.14,6.49-6.57,7.12-.78-.03-1.49-.26-1.86-.47v3.53c0,1.94.21,2.09,2.22,2.28v.73h-6.2v-.73c1.7-.18,1.91-.31,1.91-2.07v-11.91c0-1.57-.05-1.67-1.73-1.91v-.71h0Z"/>
      <path class="cls-3" d="M378.75,24.79c-1.26.18-2.67.52-4,.92v-2.01c-1.41,1.18-2.56,2.01-4,2.01-1.75,0-3.27-1.07-3.27-3.92v-5.08c0-1.41-.21-1.57-.86-1.7l-.73-.13v-.68c1.12-.05,2.85-.31,3.74-.47-.08.84-.08,2.09-.08,3.82v3.56c0,2.3,1.2,2.96,2.38,2.96.97,0,1.94-.42,2.82-1.26v-6.1c0-1.41-.31-1.6-1.2-1.73l-.84-.1v-.68c1.67-.08,3.51-.37,4.11-.47v8.77c0,1.31.21,1.49,1.2,1.54l.73.03v.73h0Z"/>
      <path class="cls-3" d="M384.66,25.37c-.44.24-.86.34-1.12.34-1.68,0-2.56-1.02-2.56-3.11v-7.61h-1.8l-.1-.31.71-.76h1.2v-2.2c.5-.52,1.26-1.2,1.75-1.73l.39.05c-.05,1.1-.08,2.62-.08,3.87h2.98c.24.26.16.84-.16,1.07h-2.83v6.7c0,2.12.84,2.51,1.52,2.51.63,0,1.23-.24,1.6-.42l.24.68-1.73.92h0Z"/>
      <path class="cls-3" d="M391.61,14.59c-1.2,0-2.38,1.13-2.75,3.24,1.47,0,2.93,0,4.48-.08.47,0,.63-.13.63-.52.03-1.39-.89-2.64-2.36-2.64h0ZM396.12,23.17c-1.68,2.09-3.51,2.54-4.35,2.54-3.19,0-5.13-2.62-5.13-5.63,0-1.78.63-3.43,1.7-4.58,1.1-1.23,2.54-1.91,3.9-1.91,2.28,0,4,1.96,4,4.06-.03.52-.1.76-.52.86-.52.1-3.87.34-6.99.44-.08,3.51,2.07,4.94,3.92,4.94,1.07,0,2.07-.44,3.04-1.33l.42.6h0Z"/>
      <path class="cls-3" d="M403.3,25.39h-6.02v-.73c1.65-.16,1.81-.29,1.81-1.99v-5.44c0-1.73-.1-1.81-1.62-1.99v-.65c1.28-.21,2.46-.52,3.69-1.07v2.88c.92-1.36,2.02-2.8,3.32-2.8.97,0,1.52.6,1.52,1.26,0,.6-.42,1.18-.89,1.44-.26.16-.47.13-.68-.05-.39-.39-.71-.65-1.18-.65-.55,0-1.52.81-2.09,2.15v4.92c0,1.73.13,1.86,2.14,2.01v.73h0Z"/>
      <path class="cls-3" d="M310.82,43.75c-.44-1.73-1.18-3.43-3.64-3.43-2.04,0-2.75,1.49-2.75,2.85,0,1.81,1.15,2.72,3.32,3.85,3.14,1.62,4.5,2.83,4.5,5.31,0,2.75-2.38,4.84-5.76,4.84-1.57,0-2.93-.45-4-.86-.21-.73-.52-2.51-.71-3.92l.81-.21c.52,1.75,1.68,4.03,4.4,4.03,1.88,0,3.04-1.31,3.04-3.01,0-2.01-1.07-2.83-3.38-4.08-2.75-1.49-4.29-2.75-4.29-5.18s1.94-4.53,5.39-4.53c1.46,0,2.9.39,3.45.5.1.94.21,1.99.42,3.69l-.81.16h0Z"/>
      <path class="cls-3" d="M323.9,54.43c-1.15,1.52-2.9,2.67-4.48,2.67-3.32,0-5.28-2.69-5.28-5.49,0-2.07.89-3.79,2.64-5.13,1.39-1.07,2.96-1.49,3.98-1.49,1.18,0,2.04.37,2.43.71.37.29.42.47.42.76,0,.63-.65,1.18-.94,1.18-.13,0-.24-.05-.5-.26-.81-.73-1.7-1.1-2.64-1.1-1.73,0-3.24,1.47-3.24,4.19-.03,3.64,2.46,4.84,3.98,4.84,1.1,0,1.99-.29,3.19-1.44l.44.58h0Z"/>
      <path class="cls-3" d="M327.5,42.36c-.73,0-1.39-.65-1.39-1.39,0-.84.65-1.44,1.41-1.44s1.34.6,1.34,1.44c0,.73-.6,1.39-1.36,1.39h0ZM324.78,56.78v-.73c1.65-.16,1.83-.29,1.83-2.07v-5.39c0-1.62-.08-1.73-1.65-1.99v-.63c1.36-.24,2.59-.58,3.72-1.05v9.05c0,1.78.18,1.91,1.88,2.07v.73h-5.78Z"/>
      <path class="cls-3" d="M336.37,45.97c-1.2,0-2.38,1.13-2.75,3.24,1.47,0,2.93,0,4.48-.08.47,0,.63-.13.63-.52.03-1.39-.89-2.64-2.36-2.64h0ZM340.87,54.56c-1.68,2.09-3.51,2.54-4.35,2.54-3.19,0-5.13-2.62-5.13-5.63,0-1.78.63-3.43,1.7-4.58,1.1-1.23,2.54-1.91,3.9-1.91,2.28,0,4,1.96,4,4.06-.03.52-.1.76-.52.86-.52.1-3.87.34-6.99.44-.08,3.51,2.07,4.94,3.92,4.94,1.07,0,2.07-.44,3.04-1.33l.42.6h0Z"/>
      <path class="cls-3" d="M349.56,56.78v-.73c1.52-.16,1.67-.34,1.67-2.12v-4.32c0-1.83-.65-3.06-2.38-3.06-1.07,0-2.09.63-2.9,1.36v6.12c0,1.81.16,1.86,1.7,2.01v.73h-5.65v-.73c1.73-.18,1.88-.29,1.88-2.01v-5.39c0-1.7-.18-1.78-1.6-2.01v-.68c1.28-.21,2.56-.55,3.66-1.05v2.07c.52-.37,1.1-.76,1.78-1.2.73-.47,1.41-.78,2.17-.78,2.09,0,3.4,1.54,3.4,4.08v4.97c0,1.78.16,1.86,1.68,2.01v.73h-5.42Z"/>
      <path class="cls-3" d="M365.77,54.43c-1.15,1.52-2.9,2.67-4.47,2.67-3.32,0-5.29-2.69-5.29-5.49,0-2.07.89-3.79,2.64-5.13,1.39-1.07,2.96-1.49,3.98-1.49,1.18,0,2.04.37,2.43.71.37.29.42.47.42.76,0,.63-.65,1.18-.94,1.18-.13,0-.24-.05-.5-.26-.81-.73-1.7-1.1-2.64-1.1-1.73,0-3.24,1.47-3.24,4.19-.03,3.64,2.46,4.84,3.98,4.84,1.1,0,1.99-.29,3.19-1.44l.44.58h0Z"/>
      <path class="cls-3" d="M371.66,45.97c-1.2,0-2.38,1.13-2.75,3.24,1.46,0,2.93,0,4.47-.08.47,0,.63-.13.63-.52.03-1.39-.89-2.64-2.35-2.64h0ZM376.16,54.56c-1.68,2.09-3.51,2.54-4.34,2.54-3.19,0-5.13-2.62-5.13-5.63,0-1.78.63-3.43,1.7-4.58,1.1-1.23,2.54-1.91,3.9-1.91,2.28,0,4,1.96,4,4.06-.03.52-.1.76-.52.86-.52.1-3.87.34-6.99.44-.08,3.51,2.07,4.94,3.92,4.94,1.07,0,2.07-.44,3.04-1.33l.42.6h0Z"/>
    </g>
  </g>
</svg>