<svg xmlns="http://www.w3.org/2000/svg" width="406" height="74" viewBox="0 0 406 74" version="1.1"><path d="M 24.844 1.394 C 14.978 4.918, 8.138 10.919, 3.309 20.287 C 1.089 24.595, 0.552 27.150, 0.218 35 C -0.308 47.327, 1.862 53.577, 9.553 61.884 C 29.386 83.306, 64.516 74.758, 72.561 46.552 C 77.593 28.908, 67.426 8.419, 50.497 2.085 C 43.981 -0.353, 30.733 -0.710, 24.844 1.394 M 27 2.543 C 5.611 8.511, -4.939 32.795, 5.116 52.916 C 8.501 59.691, 13.620 64.714, 21.214 68.714 C 25.974 71.222, 27.494 71.499, 36.500 71.499 C 45.396 71.500, 47.121 71.195, 52.125 68.738 C 58.758 65.480, 66.265 57.831, 69.321 51.217 C 71.100 47.366, 71.500 44.664, 71.500 36.500 C 71.500 27.024, 71.322 26.172, 68.101 20.232 C 61.917 8.829, 52.209 2.488, 39.470 1.532 C 34.792 1.181, 30.691 1.513, 27 2.543 M 31.211 3.882 C 27.818 4.519, 27.514 5.248, 29.388 8.250 C 30.934 10.725, 31.801 10.427, 32.292 7.250 C 32.703 4.598, 32.745 4.580, 33.476 6.750 C 34.316 9.245, 36 9.800, 36 7.582 C 36 6.802, 36.273 5.452, 36.607 4.582 C 37.253 2.899, 36.772 2.836, 31.211 3.882 M 37.719 5.689 C 37.424 7.232, 37.654 8.786, 38.229 9.142 C 39.380 9.853, 46.188 11.076, 47.025 10.722 C 47.313 10.600, 48.213 11.056, 49.025 11.735 C 54.537 16.349, 56.803 17.863, 57.361 17.305 C 57.713 16.954, 58 17.642, 58 18.833 C 58 20.093, 58.628 21, 59.500 21 C 60.325 21, 61 20.339, 61 19.531 C 61 18.637, 61.586 18.288, 62.500 18.638 C 63.325 18.955, 64 18.732, 64 18.142 C 64 16.699, 60.478 14.889, 59.414 15.785 C 58.948 16.178, 59.110 15.784, 59.774 14.908 C 61.546 12.573, 59.988 11.706, 57.689 13.748 C 55.767 15.455, 55.752 15.442, 57.108 13.219 C 58.311 11.249, 58.296 10.805, 57 9.956 C 56.175 9.416, 54.746 9.154, 53.825 9.374 C 52.643 9.656, 52.326 9.314, 52.748 8.213 C 53.183 7.082, 52.905 6.822, 51.738 7.270 C 50.853 7.610, 49.903 7.350, 49.627 6.694 C 49.289 5.889, 48.620 6.127, 47.573 7.427 C 46.719 8.487, 45.679 8.988, 45.260 8.540 C 44.842 8.092, 45.063 7.525, 45.750 7.280 C 47.883 6.518, 47.129 5.249, 44.250 4.755 C 42.737 4.495, 40.770 3.968, 39.878 3.583 C 38.651 3.055, 38.125 3.568, 37.719 5.689 M 24.617 5.811 C 24.213 6.465, 22.994 7, 21.910 7 C 20.825 7, 19.678 7.675, 19.362 8.500 C 19.045 9.325, 18.214 10, 17.515 10 C 14.874 10, 14.103 12.413, 15.997 14.750 C 18.317 17.613, 19 17.587, 19 14.639 C 19 12.690, 19.417 12.357, 21.383 12.733 C 22.693 12.983, 24.070 12.696, 24.442 12.094 C 24.814 11.492, 25.991 11, 27.059 11 C 28.127 11, 29 10.550, 29 10 C 29 9.450, 28.619 9, 28.153 9 C 27.687 9, 26.866 8.015, 26.329 6.811 C 25.664 5.320, 25.117 5.001, 24.617 5.811 M 30.803 12.415 C 20.735 15.092, 13.042 23.567, 11.531 33.643 C 9.708 45.797, 19.229 58.759, 32 61.510 L 35.500 62.264 30.281 57.567 C 23.446 51.416, 19.194 42.886, 18.325 33.581 C 17.726 27.168, 17.812 26.714, 19.498 27.361 C 21.858 28.267, 51.129 28.271, 53.488 27.366 C 55.150 26.728, 55.252 27.234, 54.782 33.798 C 54.108 43.220, 50.600 50.337, 43.375 56.940 C 37.296 62.496, 38.153 63.469, 46 59.921 C 51.512 57.429, 56.526 52.759, 59.143 47.682 C 65.139 36.045, 60.499 21.154, 49 15.133 C 42.214 11.579, 36.918 10.788, 30.803 12.415 M 8.909 18.609 C 8.036 19.662, 8.042 20.346, 8.935 21.421 C 9.897 22.581, 9.760 22.750, 8.189 22.339 C 6.782 21.971, 6.116 22.463, 5.713 24.168 C 5.410 25.451, 4.867 27.438, 4.508 28.583 C 3.943 30.384, 4.270 30.667, 6.927 30.667 C 8.821 30.667, 10 30.155, 10 29.333 C 10 28.600, 9.325 28, 8.500 28 C 7.675 28, 7 27.592, 7 27.094 C 7 26.595, 7.895 26.421, 8.988 26.707 C 10.324 27.056, 11.207 26.616, 11.682 25.363 C 12.070 24.339, 12.976 22.905, 13.694 22.179 C 15.533 20.318, 15.331 19.661, 12.524 18.359 C 10.581 17.458, 9.821 17.511, 8.909 18.609 M 49.245 19.250 C 49.471 19.938, 50.746 20.626, 52.078 20.779 C 54.423 21.050, 54.439 21.010, 52.559 19.529 C 50.208 17.677, 48.685 17.549, 49.245 19.250 M 43 20.893 C 43 22.582, 49.562 25.772, 50.698 24.635 C 51.938 23.396, 49.995 21.334, 46.609 20.295 C 43.441 19.323, 43 19.396, 43 20.893 M 25.250 21.220 C 23.031 22.291, 22.101 25, 23.953 25 C 26.037 25, 30 22.601, 30 21.339 C 30 19.759, 28.365 19.718, 25.250 21.220 M 33 24.500 C 33 25.548, 34.056 26, 36.500 26 C 38.944 26, 40 25.548, 40 24.500 C 40 23.452, 38.944 23, 36.500 23 C 34.056 23, 33 23.452, 33 24.500 M 64.145 24.070 C 62.427 24.758, 61.984 25.484, 62.506 26.756 C 62.899 27.715, 63.459 30.449, 63.750 32.830 C 64.190 36.440, 64.588 37.080, 66.139 36.674 C 67.163 36.406, 68 36.595, 68 37.094 C 68 37.592, 67.100 38, 66 38 C 63.306 38, 63.461 39.848, 66.250 40.969 C 68.413 41.838, 68.393 41.876, 65.750 41.937 C 62.635 42.008, 61.912 44, 65 44 C 66.100 44, 67 44.480, 67 45.067 C 67 45.664, 66.155 45.867, 65.084 45.527 C 64.030 45.192, 62.899 45.355, 62.570 45.887 C 62.240 46.420, 62.877 47.144, 63.985 47.495 C 66.862 48.408, 66.482 49.815, 63.512 49.247 C 60.239 48.621, 58.855 51.690, 61.529 53.645 C 62.548 54.390, 62.936 55, 62.391 55 C 61.846 55, 60.867 54.468, 60.217 53.817 C 58.338 51.938, 57.531 53.755, 59.013 56.524 C 60.646 59.576, 62.009 59.283, 64 55.456 C 64.825 53.869, 66.024 51.999, 66.664 51.300 C 68.091 49.742, 70 41.177, 70 36.334 C 70 33.260, 69.724 32.839, 68.001 33.289 C 66.902 33.577, 65.750 33.404, 65.442 32.906 C 65.134 32.408, 65.734 32, 66.774 32 C 69.358 32, 69.794 31.371, 69.235 28.448 C 68.855 26.459, 68.318 26.061, 66.628 26.519 C 64.752 27.027, 64.707 26.966, 66.250 25.998 C 67.999 24.901, 68.666 22.944, 67.250 23.063 C 66.838 23.098, 65.440 23.551, 64.145 24.070 M 25.750 30.689 C 24.586 30.993, 24 32.127, 24 34.073 C 24 36.919, 24.139 37, 29 37 C 33.844 37, 34 36.910, 34 34.117 C 34 30.561, 31.003 29.317, 25.750 30.689 M 40.750 30.713 C 39.581 31.003, 39 32.118, 39 34.073 C 39 36.919, 39.139 37, 44 37 C 48.889 37, 49 36.933, 49 34 C 49 32.306, 48.456 30.968, 47.750 30.926 C 47.063 30.885, 45.600 30.723, 44.500 30.565 C 43.400 30.408, 41.712 30.475, 40.750 30.713 M 4 34.041 C 4 35.562, 4.450 36.041, 5.500 35.638 C 6.325 35.322, 7 35.499, 7 36.031 C 7 36.564, 6.080 37, 4.955 37 C 3.139 37, 2.984 37.422, 3.576 40.750 C 3.943 42.813, 4.638 44.927, 5.121 45.450 C 5.605 45.972, 6 47.435, 6 48.700 C 6 49.965, 6.450 51, 7 51 C 7.550 51, 8 51.942, 8 53.094 C 8 54.342, 8.803 55.397, 9.989 55.707 C 11.083 55.993, 11.713 56.655, 11.391 57.177 C 10.704 58.288, 13.801 62, 15.414 62 C 16.022 62, 17.108 61.057, 17.828 59.904 C 18.940 58.123, 18.881 57.527, 17.435 55.928 C 16.499 54.893, 15.343 54.288, 14.866 54.583 C 14.390 54.877, 14 54.177, 14 53.028 C 14 51.878, 13.328 50.679, 12.506 50.364 C 11.684 50.048, 11.210 49.470, 11.452 49.078 C 11.694 48.686, 11.215 46.402, 10.389 44.002 C 9.562 41.601, 9.023 38.032, 9.192 36.069 C 9.472 32.829, 9.246 32.471, 6.750 32.184 C 4.496 31.924, 4 32.260, 4 34.041 M 26.210 40.684 C 23.741 45.141, 24.985 50.647, 29.207 53.957 L 31.915 56.078 31.534 53.067 C 31.324 51.411, 30.781 49.481, 30.326 48.778 C 29.872 48.075, 29.032 45.475, 28.460 43 C 27.483 38.775, 27.346 38.634, 26.210 40.684 M 44.460 43.417 C 44.080 45.951, 43.371 48.271, 42.885 48.571 C 42.398 48.872, 41.939 50.554, 41.864 52.309 C 41.760 54.752, 41.624 54.960, 41.287 53.196 C 40.901 51.174, 40.347 50.930, 36.751 51.196 C 31.842 51.560, 31.232 52.754, 34.094 56.392 L 36.241 59.122 38.701 56.811 C 40.054 55.540, 41.247 54.725, 41.352 55 C 41.457 55.275, 42.831 54.562, 44.405 53.415 C 48.147 50.689, 49.551 43.444, 46.882 40.633 C 45.225 38.887, 45.122 39.005, 44.460 43.417 M 6.583 40.866 C 6.152 41.563, 6.070 42.403, 6.400 42.733 C 7.295 43.628, 8.271 42.312, 7.787 40.862 C 7.449 39.846, 7.213 39.846, 6.583 40.866 M 34.250 40.706 C 31.747 41.188, 31.533 41.796, 33.091 44 C 33.894 45.135, 34.276 45.194, 34.662 44.244 C 34.942 43.553, 35.604 43.255, 36.134 43.583 C 37.377 44.351, 35.241 47, 33.378 47 C 32.620 47, 32 47.450, 32 48 C 32 48.550, 33.998 49, 36.440 49 C 41.203 49, 41.508 48.329, 39.507 42.250 C 38.766 39.996, 38.436 39.900, 34.250 40.706 M 54.347 57.537 C 54.023 58.383, 54.569 59.972, 55.562 61.068 C 57.117 62.787, 57.561 62.867, 58.781 61.648 C 59.884 60.544, 59.946 59.768, 59.062 58.117 C 57.739 55.643, 55.194 55.331, 54.347 57.537 M 21.469 63.050 C 20.519 64.588, 21.820 65.580, 23.104 64.296 C 23.822 63.578, 23.839 63.019, 23.156 62.597 C 22.596 62.251, 21.837 62.455, 21.469 63.050 M 49.694 62.639 C 48.895 63.438, 49.798 65, 51.059 65 C 51.577 65, 52 64.325, 52 63.500 C 52 61.954, 50.820 61.513, 49.694 62.639 M 42.698 63.635 C 42.349 63.984, 41.037 64.322, 39.782 64.385 C 38.072 64.471, 37.421 65.189, 37.184 67.250 C 36.924 69.507, 37.259 70, 39.050 70 C 40.713 70, 41.113 69.541, 40.730 68.075 C 40.377 66.727, 40.641 66.309, 41.607 66.680 C 42.367 66.971, 42.740 67.612, 42.435 68.105 C 42.131 68.597, 42.557 69, 43.382 69 C 45.400 69, 46.019 67.788, 45.335 65.174 C 44.763 62.984, 43.870 62.463, 42.698 63.635 M 28.417 65.643 C 28.737 66.479, 29 67.577, 29 68.082 C 29 69.716, 30.839 69.054, 31.311 67.250 C 31.655 65.933, 31.797 66.057, 31.884 67.750 C 31.964 69.295, 32.627 70, 34 70 C 35.537 70, 36 69.333, 36 67.118 C 36 64.421, 35.737 64.232, 31.917 64.179 C 28.660 64.134, 27.951 64.431, 28.417 65.643" stroke="none" fill="#cbcfcf" fill-rule="evenodd"/><path d="M 263 37 C 263 61, 263.351 74, 264 74 C 264.649 74, 265 61, 265 37 C 265 13, 264.649 0, 264 0 C 263.351 0, 263 13, 263 37 M 27 2.543 C 5.611 8.511, -4.939 32.795, 5.116 52.916 C 8.501 59.691, 13.620 64.714, 21.214 68.714 C 25.974 71.222, 27.494 71.499, 36.500 71.499 C 45.396 71.500, 47.121 71.195, 52.125 68.738 C 58.758 65.480, 66.265 57.831, 69.321 51.217 C 71.100 47.366, 71.500 44.664, 71.500 36.500 C 71.500 27.024, 71.322 26.172, 68.101 20.232 C 61.917 8.829, 52.209 2.488, 39.470 1.532 C 34.792 1.181, 30.691 1.513, 27 2.543 M 31.211 3.882 C 27.818 4.519, 27.514 5.248, 29.388 8.250 C 30.934 10.725, 31.801 10.427, 32.292 7.250 C 32.703 4.598, 32.745 4.580, 33.476 6.750 C 34.316 9.245, 36 9.800, 36 7.582 C 36 6.802, 36.273 5.452, 36.607 4.582 C 37.253 2.899, 36.772 2.836, 31.211 3.882 M 37.719 5.689 C 37.424 7.232, 37.654 8.786, 38.229 9.142 C 39.380 9.853, 46.188 11.076, 47.025 10.722 C 47.313 10.600, 48.213 11.056, 49.025 11.735 C 54.537 16.349, 56.803 17.863, 57.361 17.305 C 57.713 16.954, 58 17.642, 58 18.833 C 58 20.093, 58.628 21, 59.500 21 C 60.325 21, 61 20.339, 61 19.531 C 61 18.637, 61.586 18.288, 62.500 18.638 C 63.325 18.955, 64 18.732, 64 18.142 C 64 16.699, 60.478 14.889, 59.414 15.785 C 58.948 16.178, 59.110 15.784, 59.774 14.908 C 61.546 12.573, 59.988 11.706, 57.689 13.748 C 55.767 15.455, 55.752 15.442, 57.108 13.219 C 58.311 11.249, 58.296 10.805, 57 9.956 C 56.175 9.416, 54.746 9.154, 53.825 9.374 C 52.643 9.656, 52.326 9.314, 52.748 8.213 C 53.183 7.082, 52.905 6.822, 51.738 7.270 C 50.853 7.610, 49.903 7.350, 49.627 6.694 C 49.289 5.889, 48.620 6.127, 47.573 7.427 C 46.719 8.487, 45.679 8.988, 45.260 8.540 C 44.842 8.092, 45.063 7.525, 45.750 7.280 C 47.883 6.518, 47.129 5.249, 44.250 4.755 C 42.737 4.495, 40.770 3.968, 39.878 3.583 C 38.651 3.055, 38.125 3.568, 37.719 5.689 M 24.617 5.811 C 24.213 6.465, 22.994 7, 21.910 7 C 20.825 7, 19.678 7.675, 19.362 8.500 C 19.045 9.325, 18.214 10, 17.515 10 C 14.874 10, 14.103 12.413, 15.997 14.750 C 18.317 17.613, 19 17.587, 19 14.639 C 19 12.690, 19.417 12.357, 21.383 12.733 C 22.693 12.983, 24.070 12.696, 24.442 12.094 C 24.814 11.492, 25.991 11, 27.059 11 C 28.127 11, 29 10.550, 29 10 C 29 9.450, 28.619 9, 28.153 9 C 27.687 9, 26.866 8.015, 26.329 6.811 C 25.664 5.320, 25.117 5.001, 24.617 5.811 M 303.589 11.077 C 302.131 12.810, 301 15.397, 301 17 C 301 18.603, 302.131 21.190, 303.589 22.923 C 305.880 25.646, 306.788 26, 311.472 26 C 316.067 26, 316.842 25.713, 317.335 23.826 C 318.169 20.637, 317.013 19.536, 315.339 21.927 C 312.297 26.269, 305 22.949, 305 17.223 C 305 13.068, 307.586 10, 311.088 10 C 312.810 10, 314.305 10.632, 314.638 11.500 C 314.955 12.325, 315.889 13, 316.714 13 C 317.671 13, 317.994 12.427, 317.607 11.418 C 317.273 10.548, 317 9.423, 317 8.918 C 317 8.413, 314.565 8, 311.589 8 C 306.774 8, 305.892 8.339, 303.589 11.077 M 79.022 10.750 C 79.034 11.733, 80.458 13.157, 82.272 14 C 85.417 15.461, 85.694 16.139, 93 40.241 C 100.361 64.523, 100.550 64.982, 103.177 64.991 C 105.759 65, 106.062 64.374, 111.656 47.500 C 114.847 37.875, 117.696 30, 117.988 30 C 118.281 30, 120.480 35.513, 122.876 42.250 C 131.294 65.924, 130.849 65, 133.834 65 C 136.302 65, 136.683 64.440, 138.427 58.250 C 144.169 37.873, 151.310 17.599, 153.527 15.382 C 156.441 12.468, 159.344 12.344, 162.021 15.021 C 163.934 16.934, 164.027 18.112, 163.771 37.271 L 163.500 57.500 160.250 58.930 C 158.298 59.790, 157 61.088, 157 62.180 C 157 63.847, 158.096 64, 170 64 C 182.085 64, 183 63.867, 183 62.108 C 183 60.880, 182.038 59.975, 180.256 59.528 C 175.624 58.365, 175 57.220, 175 49.878 L 175 43 179.874 43 C 192.725 43, 201.002 35.861, 200.998 24.782 C 200.996 18.486, 198.300 13.904, 193.038 11.250 C 188.762 9.094, 187.524 9, 163.288 9 C 138.667 9, 138 9.053, 138 11 C 138 12.100, 138.575 13, 139.277 13 C 139.980 13, 141.520 13.676, 142.698 14.501 L 144.842 16.003 141.922 27.133 C 140.316 33.254, 138.474 40.025, 137.828 42.179 L 136.655 46.096 130.013 27.798 C 123.968 11.143, 123.147 9.473, 120.875 9.202 C 118.472 8.915, 118.164 9.577, 112.600 27.030 C 109.422 36.999, 106.699 45.008, 106.549 44.828 C 106.398 44.647, 104.391 38.048, 102.088 30.162 C 98.812 18.942, 98.156 15.517, 99.073 14.412 C 99.718 13.635, 100.865 13, 101.622 13 C 102.380 13, 103 12.100, 103 11 C 103 9.111, 102.333 9, 91 9 C 80.230 9, 79.002 9.179, 79.022 10.750 M 202 10.793 C 202 11.953, 203.147 12.924, 205.250 13.543 L 208.500 14.500 208.500 36.436 L 208.500 58.373 205.250 59.215 C 202.967 59.807, 202 60.644, 202 62.029 C 202 63.889, 202.730 64, 215 64 C 226.995 64, 228 63.857, 228 62.145 C 228 60.909, 226.914 59.978, 224.750 59.357 L 221.500 58.425 221.500 36.463 L 221.500 14.500 224.750 13.543 C 226.853 12.924, 228 11.953, 228 10.793 C 228 9.161, 226.834 9, 215 9 C 203.166 9, 202 9.161, 202 10.793 M 380.673 11.056 C 379.297 13.021, 379.266 17.275, 380.581 23.750 C 381.077 26.192, 384.715 26.885, 386.687 24.913 C 387.470 24.130, 387.962 24.130, 388.446 24.913 C 389.436 26.515, 394.560 26.235, 396 24.500 C 397.284 22.953, 396.807 22.634, 393.690 22.958 C 391.767 23.158, 389 21.341, 389 19.878 C 389 19.395, 390.800 19, 393 19 C 397.359 19, 398.244 17.386, 395.429 14.571 C 391.935 11.078, 386 14.458, 386 19.941 C 386 21.559, 385.550 23.160, 385 23.500 C 384.389 23.878, 384 22.344, 384 19.559 C 384 16.173, 384.386 15, 385.500 15 C 386.325 15, 387 14.550, 387 14 C 387 13.450, 386.325 13, 385.500 13 C 384.675 13, 384 12.352, 384 11.559 C 384 9.125, 382.215 8.855, 380.673 11.056 M 30.803 12.415 C 20.735 15.092, 13.042 23.567, 11.531 33.643 C 9.708 45.797, 19.229 58.759, 32 61.510 L 35.500 62.264 30.281 57.567 C 23.446 51.416, 19.194 42.886, 18.325 33.581 C 17.726 27.168, 17.812 26.714, 19.498 27.361 C 21.858 28.267, 51.129 28.271, 53.488 27.366 C 55.150 26.728, 55.252 27.234, 54.782 33.798 C 54.108 43.220, 50.600 50.337, 43.375 56.940 C 37.296 62.496, 38.153 63.469, 46 59.921 C 51.512 57.429, 56.526 52.759, 59.143 47.682 C 65.139 36.045, 60.499 21.154, 49 15.133 C 42.214 11.579, 36.918 10.788, 30.803 12.415 M 176.750 14.088 C 175.251 14.954, 175 16.673, 175 26.050 L 175 37 179.045 37 C 186.416 37, 190.652 29.458, 188.088 20.899 C 186.479 15.529, 180.487 11.929, 176.750 14.088 M 321.223 14.557 C 319.673 15.642, 319 17.135, 319 19.485 C 319 23.609, 321.202 26, 325 26 C 328.771 26, 331 23.616, 331 19.584 C 331 13.877, 325.921 11.266, 321.223 14.557 M 333.354 13.715 C 332.715 13.928, 332.488 16.024, 332.777 19.033 C 333.094 22.334, 332.876 24, 332.127 24 C 331.507 24, 331 24.450, 331 25 C 331 25.550, 332.575 26, 334.500 26 C 336.425 26, 338 25.550, 338 25 C 338 24.450, 337.523 24, 336.940 24 C 336.326 24, 336.010 22.423, 336.190 20.258 C 336.416 17.530, 337.011 16.420, 338.387 16.159 C 340.085 15.836, 340.225 16.310, 339.784 20.900 C 339.298 25.956, 339.318 26, 342.147 26 C 344.969 26, 345.935 24.696, 344 23.500 C 343.450 23.160, 343 21.607, 343 20.048 C 343 16.953, 345.784 15.055, 347.155 17.216 C 348.292 19.008, 348.200 22.759, 347 23.500 C 345.059 24.700, 346.035 26, 348.877 26 C 351.714 26, 351.747 25.933, 351.249 21.250 C 350.454 13.790, 350.113 13.509, 341.774 13.432 C 337.723 13.395, 333.934 13.522, 333.354 13.715 M 352.897 14.176 C 351.822 14.928, 351.788 15.269, 352.750 15.659 C 354.281 16.281, 354.520 30, 353 30 C 352.450 30, 352 30.450, 352 31 C 352 31.550, 353.575 32, 355.500 32 C 357.425 32, 359 31.550, 359 31 C 359 30.450, 358.550 30, 358 30 C 357.450 30, 357 29.100, 357 28 C 357 26.736, 357.667 26, 358.811 26 C 363.860 26, 367.457 16.384, 363.250 14.135 C 360.959 12.910, 354.674 12.935, 352.897 14.176 M 366.208 13.676 C 365.343 14.023, 365.238 14.582, 365.890 15.367 C 366.425 16.012, 367.006 18.555, 367.181 21.020 L 367.500 25.500 372.719 25.705 C 377.692 25.900, 380.201 24.860, 378.016 23.510 C 377.457 23.165, 377 20.659, 377 17.941 C 377 12.953, 376.105 12.014, 373.143 13.890 C 372.197 14.490, 372.122 14.957, 372.893 15.434 C 373.502 15.810, 374 17.666, 374 19.559 C 374 22.333, 373.613 23, 372 23 C 370.267 23, 370 22.333, 370 18 C 370 13.043, 369.424 12.386, 366.208 13.676 M 398 14.110 C 396.872 14.894, 396.810 15.278, 397.750 15.659 C 399.235 16.262, 399.437 22.612, 398 23.500 C 395.917 24.787, 397.130 26, 400.500 26 C 402.425 26, 404 25.550, 404 25 C 404 24.450, 403.523 24, 402.940 24 C 402.326 24, 402.010 22.421, 402.190 20.250 C 402.438 17.249, 402.867 16.563, 404.336 16.813 C 405.640 17.036, 406.071 16.609, 405.827 15.338 C 405.427 13.264, 400.362 12.470, 398 14.110 M 322.950 16.560 C 321.301 18.548, 322.811 23.340, 325.235 23.807 C 327.421 24.228, 328.578 19.948, 327.050 17.093 C 325.713 14.596, 324.691 14.463, 322.950 16.560 M 357 19.441 C 357 23.485, 358.570 24.859, 360.726 22.703 C 362.842 20.586, 361.648 16, 358.981 16 C 357.390 16, 357 16.678, 357 19.441 M 8.909 18.609 C 8.036 19.662, 8.042 20.346, 8.935 21.421 C 9.897 22.581, 9.760 22.750, 8.189 22.339 C 6.782 21.971, 6.116 22.463, 5.713 24.168 C 5.410 25.451, 4.867 27.438, 4.508 28.583 C 3.943 30.384, 4.270 30.667, 6.927 30.667 C 8.821 30.667, 10 30.155, 10 29.333 C 10 28.600, 9.325 28, 8.500 28 C 7.675 28, 7 27.592, 7 27.094 C 7 26.595, 7.895 26.421, 8.988 26.707 C 10.324 27.056, 11.207 26.616, 11.682 25.363 C 12.070 24.339, 12.976 22.905, 13.694 22.179 C 15.533 20.318, 15.331 19.661, 12.524 18.359 C 10.581 17.458, 9.821 17.511, 8.909 18.609 M 49.245 19.250 C 49.471 19.938, 50.746 20.626, 52.078 20.779 C 54.423 21.050, 54.439 21.010, 52.559 19.529 C 50.208 17.677, 48.685 17.549, 49.245 19.250 M 43 20.893 C 43 22.582, 49.562 25.772, 50.698 24.635 C 51.938 23.396, 49.995 21.334, 46.609 20.295 C 43.441 19.323, 43 19.396, 43 20.893 M 25.250 21.220 C 23.031 22.291, 22.101 25, 23.953 25 C 26.037 25, 30 22.601, 30 21.339 C 30 19.759, 28.365 19.718, 25.250 21.220 M 33 24.500 C 33 25.548, 34.056 26, 36.500 26 C 38.944 26, 40 25.548, 40 24.500 C 40 23.452, 38.944 23, 36.500 23 C 34.056 23, 33 23.452, 33 24.500 M 64.145 24.070 C 62.427 24.758, 61.984 25.484, 62.506 26.756 C 62.899 27.715, 63.459 30.449, 63.750 32.830 C 64.190 36.440, 64.588 37.080, 66.139 36.674 C 67.163 36.406, 68 36.595, 68 37.094 C 68 37.592, 67.100 38, 66 38 C 63.306 38, 63.461 39.848, 66.250 40.969 C 68.413 41.838, 68.393 41.876, 65.750 41.937 C 62.635 42.008, 61.912 44, 65 44 C 66.100 44, 67 44.480, 67 45.067 C 67 45.664, 66.155 45.867, 65.084 45.527 C 64.030 45.192, 62.899 45.355, 62.570 45.887 C 62.240 46.420, 62.877 47.144, 63.985 47.495 C 66.862 48.408, 66.482 49.815, 63.512 49.247 C 60.239 48.621, 58.855 51.690, 61.529 53.645 C 62.548 54.390, 62.936 55, 62.391 55 C 61.846 55, 60.867 54.468, 60.217 53.817 C 58.338 51.938, 57.531 53.755, 59.013 56.524 C 60.646 59.576, 62.009 59.283, 64 55.456 C 64.825 53.869, 66.024 51.999, 66.664 51.300 C 68.091 49.742, 70 41.177, 70 36.334 C 70 33.260, 69.724 32.839, 68.001 33.289 C 66.902 33.577, 65.750 33.404, 65.442 32.906 C 65.134 32.408, 65.734 32, 66.774 32 C 69.358 32, 69.794 31.371, 69.235 28.448 C 68.855 26.459, 68.318 26.061, 66.628 26.519 C 64.752 27.027, 64.707 26.966, 66.250 25.998 C 67.999 24.901, 68.666 22.944, 67.250 23.063 C 66.838 23.098, 65.440 23.551, 64.145 24.070 M 25.750 30.689 C 24.586 30.993, 24 32.127, 24 34.073 C 24 36.919, 24.139 37, 29 37 C 33.844 37, 34 36.910, 34 34.117 C 34 30.561, 31.003 29.317, 25.750 30.689 M 40.750 30.713 C 39.581 31.003, 39 32.118, 39 34.073 C 39 36.919, 39.139 37, 44 37 C 48.889 37, 49 36.933, 49 34 C 49 32.306, 48.456 30.968, 47.750 30.926 C 47.063 30.885, 45.600 30.723, 44.500 30.565 C 43.400 30.408, 41.712 30.475, 40.750 30.713 M 4 34.041 C 4 35.562, 4.450 36.041, 5.500 35.638 C 6.325 35.322, 7 35.499, 7 36.031 C 7 36.564, 6.080 37, 4.955 37 C 3.139 37, 2.984 37.422, 3.576 40.750 C 3.943 42.813, 4.638 44.927, 5.121 45.450 C 5.605 45.972, 6 47.435, 6 48.700 C 6 49.965, 6.450 51, 7 51 C 7.550 51, 8 51.942, 8 53.094 C 8 54.342, 8.803 55.397, 9.989 55.707 C 11.083 55.993, 11.713 56.655, 11.391 57.177 C 10.704 58.288, 13.801 62, 15.414 62 C 16.022 62, 17.108 61.057, 17.828 59.904 C 18.940 58.123, 18.881 57.527, 17.435 55.928 C 16.499 54.893, 15.343 54.288, 14.866 54.583 C 14.390 54.877, 14 54.177, 14 53.028 C 14 51.878, 13.328 50.679, 12.506 50.364 C 11.684 50.048, 11.210 49.470, 11.452 49.078 C 11.694 48.686, 11.215 46.402, 10.389 44.002 C 9.562 41.601, 9.023 38.032, 9.192 36.069 C 9.472 32.829, 9.246 32.471, 6.750 32.184 C 4.496 31.924, 4 32.260, 4 34.041 M 26.210 40.684 C 23.741 45.141, 24.985 50.647, 29.207 53.957 L 31.915 56.078 31.534 53.067 C 31.324 51.411, 30.781 49.481, 30.326 48.778 C 29.872 48.075, 29.032 45.475, 28.460 43 C 27.483 38.775, 27.346 38.634, 26.210 40.684 M 44.460 43.417 C 44.080 45.951, 43.371 48.271, 42.885 48.571 C 42.398 48.872, 41.939 50.554, 41.864 52.309 C 41.760 54.752, 41.624 54.960, 41.287 53.196 C 40.901 51.174, 40.347 50.930, 36.751 51.196 C 31.842 51.560, 31.232 52.754, 34.094 56.392 L 36.241 59.122 38.701 56.811 C 40.054 55.540, 41.247 54.725, 41.352 55 C 41.457 55.275, 42.831 54.562, 44.405 53.415 C 48.147 50.689, 49.551 43.444, 46.882 40.633 C 45.225 38.887, 45.122 39.005, 44.460 43.417 M 303.200 40.200 C 302.540 40.860, 302 42.675, 302 44.234 C 302 46.412, 302.809 47.545, 305.500 49.133 C 308.983 51.188, 310.161 54.410, 307.750 55.289 C 307.063 55.540, 305.489 54.826, 304.254 53.702 C 301.650 51.333, 300.841 51.677, 301.659 54.805 C 302.902 59.557, 311.347 58.450, 312.623 53.368 C 313.206 51.042, 312.702 50.157, 308.992 46.993 C 306.419 44.799, 304.973 42.853, 305.401 42.160 C 306.416 40.517, 308.956 40.721, 309.638 42.500 C 310.546 44.866, 312 44.250, 312 41.500 C 312 39.272, 311.587 39, 308.200 39 C 306.110 39, 303.860 39.540, 303.200 40.200 M 326.500 40 C 326.101 40.646, 326.224 41.624, 326.774 42.174 C 327.441 42.841, 328.016 42.783, 328.500 42 C 328.899 41.354, 328.776 40.376, 328.226 39.826 C 327.559 39.159, 326.984 39.217, 326.500 40 M 6.583 40.866 C 6.152 41.563, 6.070 42.403, 6.400 42.733 C 7.295 43.628, 8.271 42.312, 7.787 40.862 C 7.449 39.846, 7.213 39.846, 6.583 40.866 M 34.250 40.706 C 31.747 41.188, 31.533 41.796, 33.091 44 C 33.894 45.135, 34.276 45.194, 34.662 44.244 C 34.942 43.553, 35.604 43.255, 36.134 43.583 C 37.377 44.351, 35.241 47, 33.378 47 C 32.620 47, 32 47.450, 32 48 C 32 48.550, 33.998 49, 36.440 49 C 41.203 49, 41.508 48.329, 39.507 42.250 C 38.766 39.996, 38.436 39.900, 34.250 40.706 M 318.750 44.880 C 313.630 46.439, 312.191 53.768, 316.456 56.563 C 317.807 57.448, 319.450 57.840, 320.108 57.433 C 320.766 57.026, 323.486 56.771, 326.152 56.865 C 328.888 56.962, 331 56.593, 331 56.018 C 331 55.458, 330.550 55, 330 55 C 329.450 55, 329 52.638, 329 49.750 L 329 44.500 324.500 44.500 C 322.025 44.500, 319.438 44.671, 318.750 44.880 M 333.635 46.073 C 328.196 50.350, 331.876 59.487, 338.201 57.411 C 339.465 56.996, 342.188 56.768, 344.250 56.905 C 347.778 57.138, 349.224 55.874, 347 54.500 C 346.450 54.160, 346 52.607, 346 51.048 C 346 47.953, 348.784 46.055, 350.155 48.216 C 351.309 50.036, 351.196 55, 350 55 C 349.450 55, 349 55.450, 349 56 C 349 56.550, 350.322 57, 351.937 57 C 354.754 57, 354.854 56.846, 354.372 53.250 C 353.213 44.591, 351.897 42.914, 347.928 45.039 C 346.786 45.650, 346 45.686, 346 45.129 C 346 44.611, 345.169 44.404, 344.154 44.670 C 342.597 45.077, 342.380 45.902, 342.769 49.946 C 343.050 52.874, 342.795 55.008, 342.115 55.429 C 341.472 55.827, 341 55.438, 341 54.509 C 341 53.280, 340.593 53.128, 339.276 53.866 C 338.182 54.478, 336.902 54.483, 335.776 53.880 C 333.242 52.524, 333.582 51, 336.418 51 C 341.817 51, 343.066 48.390, 339.169 45.250 C 337.109 43.590, 336.716 43.649, 333.635 46.073 M 361 44.793 C 355.701 46.446, 354.071 53.690, 358.365 56.504 C 360.163 57.681, 361.362 57.813, 363.365 57.051 C 364.814 56.500, 366 55.588, 366 55.025 C 366 54.461, 366.900 54.900, 368 56 C 369.100 57.100, 370.575 58, 371.277 58 C 373.299 58, 377.096 54.965, 376.428 53.883 C 376.039 53.254, 375.362 53.285, 374.538 53.969 C 373.007 55.239, 370.372 54.413, 369.609 52.423 C 369.220 51.409, 369.845 50.996, 371.781 50.985 C 377.189 50.954, 378.647 47.487, 374.243 45.130 C 371.464 43.643, 367.702 45.931, 366.411 49.896 C 365.811 51.736, 364.550 53.672, 363.608 54.199 C 361.207 55.543, 358.824 53.320, 359.199 50.086 C 359.461 47.834, 359.920 47.533, 362.750 47.754 C 364.977 47.928, 366 47.571, 366 46.620 C 366 45.069, 363.291 44.079, 361 44.793 M 317.537 47.796 C 316.464 48.870, 317.035 52.784, 318.436 53.947 C 319.502 54.832, 320.404 54.854, 321.936 54.034 C 323.620 53.133, 324 53.223, 324 54.524 C 324 55.401, 324.450 55.840, 325 55.500 C 325.550 55.160, 326 53.213, 326 51.174 C 326 47.538, 325.923 47.464, 322.037 47.362 C 319.858 47.305, 317.833 47.500, 317.537 47.796 M 334.500 48 C 334.160 48.550, 334.809 49, 335.941 49 C 337.073 49, 338 48.550, 338 48 C 338 47.450, 337.352 47, 336.559 47 C 335.766 47, 334.840 47.450, 334.500 48 M 370 48 C 370 48.550, 370.675 49, 371.500 49 C 372.325 49, 373 48.550, 373 48 C 373 47.450, 372.325 47, 371.500 47 C 370.675 47, 370 47.450, 370 48 M 54.347 57.537 C 54.023 58.383, 54.569 59.972, 55.562 61.068 C 57.117 62.787, 57.561 62.867, 58.781 61.648 C 59.884 60.544, 59.946 59.768, 59.062 58.117 C 57.739 55.643, 55.194 55.331, 54.347 57.537 M 21.469 63.050 C 20.519 64.588, 21.820 65.580, 23.104 64.296 C 23.822 63.578, 23.839 63.019, 23.156 62.597 C 22.596 62.251, 21.837 62.455, 21.469 63.050 M 49.694 62.639 C 48.895 63.438, 49.798 65, 51.059 65 C 51.577 65, 52 64.325, 52 63.500 C 52 61.954, 50.820 61.513, 49.694 62.639 M 42.698 63.635 C 42.349 63.984, 41.037 64.322, 39.782 64.385 C 38.072 64.471, 37.421 65.189, 37.184 67.250 C 36.924 69.507, 37.259 70, 39.050 70 C 40.713 70, 41.113 69.541, 40.730 68.075 C 40.377 66.727, 40.641 66.309, 41.607 66.680 C 42.367 66.971, 42.740 67.612, 42.435 68.105 C 42.131 68.597, 42.557 69, 43.382 69 C 45.400 69, 46.019 67.788, 45.335 65.174 C 44.763 62.984, 43.870 62.463, 42.698 63.635 M 28.417 65.643 C 28.737 66.479, 29 67.577, 29 68.082 C 29 69.716, 30.839 69.054, 31.311 67.250 C 31.655 65.933, 31.797 66.057, 31.884 67.750 C 31.964 69.295, 32.627 70, 34 70 C 35.537 70, 36 69.333, 36 67.118 C 36 64.421, 35.737 64.232, 31.917 64.179 C 28.660 64.134, 27.951 64.431, 28.417 65.643" stroke="none" fill="#ac1c2c" fill-rule="evenodd"/></svg>