<?xml version="1.0" standalone="no"?>
<!DOCTYPE svg PUBLIC "-//W3C//DTD SVG 20010904//EN"
 "http://www.w3.org/TR/2001/REC-SVG-20010904/DTD/svg10.dtd">
<svg version="1.0" xmlns="http://www.w3.org/2000/svg"
 width="300.000000pt" height="358.000000pt" viewBox="0 0 300.000000 358.000000"
 preserveAspectRatio="xMidYMid meet">
<metadata>
Created by potrace 1.10, written by Peter Selinger 2001-2011
</metadata>
<g transform="translate(0.000000,358.000000) scale(0.100000,-0.100000)"
fill="#000000" stroke="none">
<path d="M630 3255 c-18 -42 -31 -77 -29 -80 2 -2 26 1 52 7 27 5 50 8 53 6
18 -18 74 -449 84 -645 l10 -182 -31 -68 c-17 -37 -31 -69 -33 -70 -3 -4 -68
15 -328 94 -172 52 -224 64 -253 59 -31 -6 -35 -10 -29 -29 9 -32 57 -125 101
-198 l38 -64 110 -17 c61 -9 121 -19 135 -21 14 -3 51 -9 83 -13 53 -6 58 -9
54 -28 -36 -153 -38 -176 -22 -330 9 -83 24 -241 35 -351 11 -110 23 -222 26
-250 4 -27 6 -86 6 -129 l-2 -80 65 -101 c63 -100 64 -102 79 -211 37 -280 72
-514 77 -514 3 0 72 154 153 343 203 467 200 462 270 522 l58 50 44 -50 c72
-82 112 -143 191 -290 41 -77 77 -141 78 -143 2 -2 40 24 86 58 l83 60 126
238 c126 236 127 237 144 347 10 61 26 161 37 224 10 62 19 125 19 140 0 22
-121 358 -132 365 -2 1 -28 14 -58 28 -35 16 -49 28 -40 31 8 3 69 22 135 42
l120 37 96 95 c87 85 98 101 113 154 18 66 21 115 7 124 -5 3 -34 -5 -63 -19
-161 -72 -240 -104 -408 -162 l-185 -64 -17 23 c-9 12 -24 38 -33 57 l-16 35
116 285 c63 157 121 299 127 315 16 43 31 58 101 101 34 21 138 85 230 142
l168 104 177 -70 c166 -66 277 -98 287 -83 2 4 -25 41 -59 82 -56 67 -71 78
-132 101 -95 36 -93 36 -239 52 l-130 14 -155 -30 -155 -30 -75 -61 c-80 -65
-169 -138 -341 -281 l-106 -88 -99 -224 -98 -224 -113 0 c-62 0 -113 2 -113 5
0 3 7 49 16 102 8 53 12 108 9 122 -7 29 -37 131 -95 321 -21 69 -46 151 -55
182 -13 46 -27 68 -68 107 -108 103 -105 101 -183 101 l-71 0 -33 -75z m216
13 c97 -85 105 -94 119 -143 8 -28 46 -156 85 -285 l72 -235 -12 -85 c-19
-135 -15 -128 -64 -123 -23 3 -79 -2 -125 -12 -45 -9 -89 -14 -96 -11 -11 4
-14 28 -13 103 1 110 -7 213 -28 353 -19 128 -18 140 14 176 15 18 37 45 49
60 l21 29 4 -120 c3 -119 3 -121 -29 -183 -39 -74 -43 -94 -7 -34 14 23 26 42
28 42 2 0 -5 -37 -14 -82 -22 -108 -33 -185 -26 -177 7 6 10 21 20 80 11 70
36 192 39 196 2 2 18 -32 35 -74 17 -43 44 -108 61 -146 26 -57 30 -76 26
-130 -2 -34 -2 -51 1 -37 13 70 28 100 65 125 22 14 39 28 39 31 0 6 -13 -1
-53 -29 -16 -10 -30 -18 -32 -16 -1 2 -6 58 -9 124 -11 222 -18 285 -29 293
-7 4 -33 42 -59 85 l-47 78 24 11 c14 6 25 16 25 21 0 5 -11 2 -25 -7 -29 -19
-31 -16 -60 72 -9 29 -19 51 -22 49 -3 -4 21 -86 41 -137 3 -9 -7 -29 -25 -50
-17 -19 -38 -47 -47 -62 -9 -15 -19 -28 -23 -28 -4 0 -13 33 -19 73 -7 39 -15
90 -19 112 -4 22 -11 39 -16 37 -36 -9 -77 -14 -81 -9 -3 3 4 28 17 56 l21 51
63 0 c59 0 65 -2 111 -42z m1689 22 c80 -9 130 -20 184 -43 74 -30 124 -71
116 -94 -2 -7 1 -10 8 -8 7 3 20 -7 31 -21 l19 -26 -40 7 c-22 3 -107 33 -189
67 -82 33 -163 66 -181 72 -18 7 -41 20 -53 31 -11 10 -23 16 -26 12 -3 -3 4
-10 15 -17 30 -15 26 -28 -14 -47 -19 -9 -35 -20 -35 -23 0 -4 -12 -7 -27 -7
-26 0 -237 -79 -418 -156 -44 -18 -110 -56 -148 -83 -37 -27 -91 -61 -120 -77
-34 -18 -42 -25 -23 -21 26 6 20 -6 -86 -162 -63 -93 -118 -176 -123 -184 -7
-13 -6 -13 8 0 17 16 36 44 163 233 62 92 99 136 133 159 25 18 55 40 65 50
37 34 38 18 2 -32 -20 -28 -36 -53 -36 -56 0 -3 -13 -24 -29 -47 -31 -46 -57
-87 -180 -283 l-82 -131 -51 -6 c-29 -4 -54 -5 -56 -2 -3 2 3 16 12 29 9 14
16 30 16 36 0 6 34 88 76 183 75 170 94 199 169 256 18 14 119 97 225 185 124
102 205 162 228 168 73 21 278 56 307 53 17 -2 80 -9 140 -15z m-197 -113 c-9
-7 -96 -61 -193 -121 -101 -62 -180 -118 -186 -130 -4 -11 -63 -156 -130 -321
-66 -165 -123 -302 -124 -304 -2 -1 -19 8 -37 22 -18 14 -55 32 -83 41 -27 9
-63 22 -78 28 l-28 11 43 42 c24 23 66 66 93 96 244 264 291 317 308 339 32
40 -210 -210 -298 -309 -44 -49 -83 -90 -87 -90 -4 -1 8 23 27 52 19 28 54 84
78 122 144 231 222 348 236 352 27 9 245 94 266 103 63 29 191 79 200 79 6 0
2 -5 -7 -12z m-1434 -117 c6 -11 27 -46 47 -77 l37 -58 10 -175 c6 -96 9 -176
8 -178 -2 -1 -18 35 -36 80 -19 46 -44 106 -56 133 -18 41 -23 75 -28 179 -3
71 -2 126 1 122 3 -3 11 -15 17 -26z m1526 -687 c0 -10 -6 -44 -14 -75 -12
-53 -20 -64 -112 -152 -54 -53 -103 -96 -109 -96 -5 0 -66 -18 -135 -41 -123
-40 -125 -40 -138 -20 -8 11 -25 32 -38 48 -13 15 -24 31 -24 34 0 3 42 25 93
49 50 24 142 67 202 96 68 32 139 75 185 113 41 33 78 60 83 61 4 0 7 -8 7
-17z m-1117 -5 c9 1 17 -2 17 -5 0 -15 -32 -129 -38 -134 -4 -4 -68 -10 -142
-13 -74 -4 -162 -9 -195 -11 -68 -6 -65 -4 75 48 181 68 260 100 257 104 -6 5
-258 -84 -332 -117 -34 -15 -97 -40 -102 -40 -3 0 12 19 33 43 22 24 46 52 54
63 8 11 22 28 30 38 9 11 10 17 3 15 -11 -4 -115 -127 -132 -156 -7 -13 -14
-14 -40 -5 -17 6 -31 7 -31 3 0 -5 10 -12 23 -15 20 -6 18 -10 -33 -56 -30
-27 -50 -50 -44 -50 5 0 23 14 39 30 48 50 47 34 -4 -47 -52 -84 -94 -163 -87
-163 4 0 128 205 154 254 9 19 10 19 15 0 3 -10 11 -48 18 -84 12 -68 12 -70
22 -110 4 -14 8 -38 11 -55 2 -16 9 -54 15 -84 13 -65 13 -64 2 -56 -9 5 -72
19 -145 32 -16 2 -40 9 -53 14 -13 5 -32 9 -41 9 -41 -1 40 -28 133 -45 55
-10 103 -21 107 -24 5 -4 -1 -38 -13 -76 -11 -39 -27 -97 -35 -130 -9 -33 -18
-67 -21 -75 -4 -8 -8 -26 -10 -40 -2 -14 -8 -28 -12 -33 -7 -7 -17 15 -75 163
-30 77 -85 198 -86 188 0 -8 83 -226 106 -275 8 -17 14 -34 14 -38 0 -4 7 -22
16 -41 15 -32 15 -39 0 -87 -24 -80 -66 -251 -62 -255 2 -2 13 30 25 70 12 40
28 94 36 119 8 26 15 56 15 68 0 11 5 21 10 21 6 0 10 -6 10 -12 0 -7 11 -35
25 -63 13 -27 25 -57 25 -66 0 -16 -23 -72 -81 -196 -16 -34 -29 -67 -29 -72
0 -5 -10 -17 -22 -26 -21 -16 -22 -16 -2 -11 17 5 23 -2 42 -56 20 -57 22 -53
5 12 -3 14 22 -16 56 -67 34 -51 67 -95 73 -99 14 -9 10 -3 -61 106 -30 47
-62 92 -70 100 -13 13 -7 15 57 18 44 2 72 7 72 14 0 7 -22 9 -70 4 -38 -3
-70 -4 -70 -1 0 2 16 37 35 76 19 40 35 76 35 79 0 4 7 25 16 46 12 28 18 34
24 24 6 -12 24 -108 21 -117 0 -2 6 -22 13 -45 7 -24 14 -94 15 -156 1 -63 6
-124 11 -135 6 -14 7 18 5 85 -2 63 0 110 6 113 5 4 50 -17 99 -46 50 -28 93
-50 96 -47 6 7 -27 28 -100 63 -33 16 -54 31 -48 33 6 2 56 -6 111 -17 115
-24 111 -24 111 -12 0 5 -21 12 -47 15 -27 4 -55 9 -63 11 -29 6 -95 17 -124
21 -38 5 -40 8 -26 33 6 12 8 25 5 30 -3 5 6 51 21 103 35 127 50 183 69 250
11 43 21 58 38 63 12 4 57 25 100 46 43 22 83 37 88 33 7 -4 9 -26 5 -58 -3
-28 -8 -96 -11 -151 -7 -143 -15 -252 -21 -310 -4 -35 -3 -47 5 -40 6 6 13 51
16 100 7 129 13 234 21 362 l6 112 42 5 c90 11 196 22 196 20 0 -4 -66 -150
-131 -290 -11 -22 -19 -43 -19 -46 0 -4 -15 -39 -34 -80 -18 -40 -36 -80 -39
-88 -3 -8 -13 -33 -22 -55 -9 -22 -12 -35 -7 -30 6 6 29 53 52 105 45 102 82
184 107 240 9 19 17 37 18 40 0 3 12 30 27 62 14 31 32 72 39 92 12 34 29 49
29 25 0 -5 8 -29 19 -52 10 -23 29 -66 41 -94 13 -29 26 -51 28 -48 5 4 -24
82 -66 174 l-24 54 73 73 c40 40 74 72 76 71 1 -2 -2 -32 -8 -68 -12 -70 -14
-93 -25 -219 -7 -93 0 -108 10 -20 3 30 11 91 17 135 7 44 12 95 11 113 0 54
14 36 32 -40 9 -40 26 -97 38 -127 l21 -54 -63 -57 c-35 -32 -70 -56 -77 -53
-8 3 -11 0 -8 -9 7 -17 -198 -219 -435 -430 -62 -55 -180 -137 -247 -171 -28
-15 -35 -15 -87 0 -44 12 -58 21 -62 39 -4 13 -11 24 -16 24 -6 0 -7 7 -4 16
3 8 2 13 -3 9 -5 -3 -28 24 -50 60 -39 62 -42 70 -40 133 2 64 -8 178 -52 583
-11 103 -20 202 -20 220 -1 86 0 120 1 137 4 32 30 147 39 167 5 11 37 83 71
161 l63 141 71 15 c55 12 110 15 241 11 94 -3 178 -5 188 -5z m256 -70 c47
-45 87 -85 89 -88 2 -5 -106 -120 -113 -120 -2 0 -10 42 -20 93 -9 50 -20 103
-25 117 -4 14 -11 34 -14 44 -12 35 -15 11 -5 -34 6 -25 12 -52 14 -60 2 -8
11 -46 20 -84 9 -37 14 -70 12 -72 -1 -2 -19 7 -38 20 -18 13 -67 42 -108 66
l-74 43 30 26 c49 42 120 125 97 113 -12 -6 -41 -34 -64 -62 -23 -28 -45 -49
-47 -46 -3 2 1 29 8 60 13 61 16 63 98 65 l54 1 86 -82z m8 52 c65 -20 125
-71 155 -131 14 -30 64 -101 109 -158 l82 -103 4 -100 c3 -79 1 -98 -9 -92
-11 6 -11 5 0 -8 10 -13 1 -45 -50 -188 l-63 -172 -23 78 c-12 44 -31 107 -42
141 l-19 62 35 78 c20 43 42 93 50 112 l14 34 42 -62 c22 -34 43 -59 45 -57 3
2 -14 33 -37 68 -38 56 -40 64 -25 73 10 5 27 18 39 28 17 15 14 15 -15 -2
-43 -25 -51 -19 -69 48 -6 23 -13 41 -16 39 -2 -3 3 -32 11 -66 16 -61 16 -61
-13 -124 -15 -35 -33 -74 -40 -88 -9 -22 -11 -22 -11 -5 0 11 4 38 9 60 11 47
25 202 17 195 -8 -8 -33 -186 -38 -273 -1 -21 -5 -39 -8 -40 -3 -1 -29 21 -57
49 l-51 51 75 123 c42 68 78 117 80 110 3 -9 8 -6 16 8 l11 21 33 -25 c27 -21
30 -29 21 -45 -6 -11 -9 -25 -7 -31 2 -6 10 3 17 20 13 31 12 33 -15 55 -42
32 -76 67 -107 109 -33 45 -34 52 -4 38 19 -10 20 -9 5 2 -9 7 -24 18 -34 23
-14 9 -15 15 -5 35 10 21 10 22 -1 10 -7 -9 -18 -15 -24 -15 -6 0 -44 31 -85
69 -41 37 -67 66 -58 63 10 -3 34 -11 56 -17z m783 17 c0 -11 -140 -103 -192
-126 -35 -16 -121 -57 -193 -91 l-130 -61 -28 32 -29 31 159 55 c87 30 169 58
183 63 14 4 70 28 125 54 105 48 105 48 105 43z m-1978 -98 c149 -75 208 -109
296 -174 1 -1 -2 -14 -9 -27 l-11 -25 -116 19 c-65 10 -151 24 -194 30 l-76
11 -45 81 c-57 104 -77 146 -77 163 0 29 57 9 232 -78z m51 21 c54 -18 142
-44 197 -59 l99 -26 -21 -47 -20 -48 -46 33 c-25 17 -53 38 -62 44 -8 7 -71
40 -139 73 -115 55 -156 78 -121 66 8 -2 59 -19 113 -36z m847 -86 c0 -4 -8
-14 -17 -23 -10 -9 -47 -52 -83 -96 -72 -88 -100 -122 -115 -139 -38 -41 -127
-157 -123 -161 5 -5 59 57 243 283 59 73 108 131 109 130 1 -2 0 -66 -2 -144
l-3 -141 -92 -35 c-51 -19 -128 -51 -173 -71 -45 -19 -86 -32 -92 -28 -5 3
-12 20 -15 36 -3 17 -13 66 -22 110 -9 44 -19 89 -21 100 -2 11 -11 49 -19 84
-19 74 -14 82 50 79 51 -2 299 12 304 18 7 7 71 5 71 -2z m175 -84 c76 -41 83
-48 59 -56 -10 -4 -21 -10 -24 -13 -5 -6 -145 -102 -167 -115 -10 -6 -13 24
-13 133 l0 140 43 -28 c23 -16 69 -43 102 -61z m257 27 c15 -23 33 -49 39 -58
10 -14 6 -25 -22 -65 -20 -27 -52 -80 -73 -117 -21 -37 -40 -66 -42 -64 -3 2
0 26 6 53 16 69 19 83 25 129 4 22 10 56 15 75 6 19 10 47 10 63 0 37 10 34
42 -16z m-62 -23 c-6 -27 -13 -60 -15 -74 -15 -103 -45 -240 -52 -240 -2 0
-63 23 -135 52 l-130 52 28 23 c16 13 34 23 41 23 6 0 13 4 15 8 2 5 32 28 67
51 44 30 66 40 71 32 4 -7 13 -51 20 -99 11 -81 29 -141 30 -102 0 8 -9 62
-19 120 l-19 105 51 52 c28 29 53 51 54 49 2 -2 -1 -25 -7 -52z m351 -206 c27
-13 48 -26 49 -29 0 -3 -8 -14 -18 -25 -10 -10 -31 -37 -47 -58 -25 -33 -26
-37 -8 -26 12 8 34 33 49 57 15 24 30 40 34 36 12 -15 113 -284 108 -289 -3
-3 -18 6 -34 19 -37 30 -122 90 -151 106 -43 22 -23 2 36 -38 32 -22 65 -46
72 -53 8 -7 31 -22 52 -33 45 -24 45 -24 12 -233 -47 -286 -44 -277 -168 -510
-63 -116 -116 -215 -119 -218 -4 -3 -11 21 -18 53 -14 71 -66 293 -91 388 -10
38 -17 71 -16 72 1 1 45 -7 97 -18 164 -34 241 -49 253 -49 23 0 -4 13 -45 21
-24 5 -54 11 -68 14 -14 3 -34 7 -45 9 -87 18 -180 38 -182 40 -2 2 287 270
296 274 4 1 12 -39 19 -90 7 -51 14 -102 16 -113 3 -11 5 -26 5 -32 1 -7 5
-13 9 -13 5 0 5 24 0 53 -4 28 -10 75 -13 102 -4 28 -10 62 -15 77 -8 24 -4
31 23 53 64 52 79 65 70 65 -10 0 -50 -27 -77 -52 -11 -10 -22 -18 -25 -18 -3
0 -20 37 -38 83 -50 129 -64 160 -69 154 -5 -5 9 -43 67 -180 20 -48 25 -69
16 -72 -16 -5 -68 -17 -89 -21 -22 -5 -115 -43 -105 -43 18 -2 143 33 155 42
7 5 15 7 18 5 5 -6 -14 -24 -176 -173 -41 -38 -79 -75 -85 -81 -9 -11 -88 -27
-128 -26 -9 1 -15 -4 -11 -9 4 -6 28 -7 62 -3 51 6 55 5 48 -12 -8 -20 -34
-139 -42 -189 -3 -16 -9 -46 -14 -65 -5 -19 -12 -55 -15 -80 -4 -25 -10 -47
-15 -50 -13 -8 -14 -33 -2 -60 6 -14 11 -19 11 -13 1 9 20 4 59 -13 78 -35
134 -55 128 -45 -3 4 -46 25 -96 46 -95 41 -100 48 -80 101 6 14 12 41 14 58
6 45 56 290 61 294 3 3 7 -16 29 -123 5 -23 30 -127 47 -195 6 -25 17 -70 24
-100 7 -30 16 -62 19 -71 5 -12 -12 -29 -64 -67 -39 -29 -74 -52 -79 -52 -5 0
-12 12 -16 28 -3 15 -12 34 -20 42 -7 8 -36 60 -65 115 -28 55 -79 134 -113
175 -34 41 -68 83 -76 93 -12 17 3 35 192 220 l205 202 58 165 c32 91 61 169
64 173 4 5 5 58 2 118 -3 60 -1 109 3 109 5 0 30 -10 56 -22z m-719 -35 c-14
-27 -55 -117 -101 -223 -98 -224 -115 -259 -122 -255 -4 3 -10 17 -14 32 -3
16 -31 90 -61 166 -30 76 -54 141 -54 145 0 4 66 34 148 66 81 32 158 65 172
72 34 18 42 17 32 -3z m108 -13 c25 -10 79 -31 120 -48 l74 -29 -101 -104
c-56 -57 -117 -122 -137 -143 -20 -22 -37 -38 -38 -35 -2 2 -2 91 0 197 3 178
4 193 20 187 9 -4 37 -15 62 -25z m-100 -188 l-5 -194 -103 -49 c-57 -27 -102
-43 -99 -36 17 42 115 260 156 350 17 37 31 69 31 71 0 9 21 59 23 55 1 -2 0
-91 -3 -197z m410 -2 c0 -7 -132 -141 -135 -138 -1 2 1 28 6 58 18 116 22 155
15 149 -7 -7 -22 -88 -32 -174 -3 -27 -6 -51 -7 -52 -1 -1 -33 -4 -70 -8 -37
-3 -88 -10 -113 -14 -25 -5 -44 -5 -42 -1 5 15 252 265 268 271 10 5 31 -9 63
-39 26 -26 47 -49 47 -52z m-720 -105 c23 -60 49 -126 57 -145 9 -19 16 -39
15 -45 -4 -36 -11 -66 -25 -110 -9 -27 -19 -65 -22 -84 -3 -19 -8 -38 -11 -43
-5 -7 -26 -85 -49 -182 -6 -27 -15 -32 -16 -10 -1 32 -5 55 -24 141 l-18 82
76 82 c43 45 75 84 72 87 -2 2 -36 -29 -74 -69 -82 -86 -76 -97 -60 121 15
203 15 198 18 265 3 68 0 72 61 -90z m-85 -45 c-7 -80 -13 -154 -12 -165 0
-11 -1 -49 -2 -85 l-2 -65 -21 45 c-12 25 -25 55 -31 67 -11 25 -8 49 22 153
27 96 27 96 41 153 7 26 14 46 16 45 1 -2 -3 -69 -11 -148z m327 -738 c-40
-100 -167 -391 -169 -388 -9 9 133 373 151 388 26 22 27 22 18 0z m-155 -289
c-46 -131 -90 -255 -97 -276 -26 -83 -17 -23 25 153 24 102 49 213 55 246 11
55 17 65 54 91 22 17 43 29 44 27 2 -1 -34 -110 -81 -241z m-31 143 c-3 -14
-15 -66 -27 -118 -11 -51 -27 -120 -34 -153 -8 -33 -20 -91 -26 -130 -13 -75
-34 -118 -24 -50 6 41 25 347 25 400 0 24 7 34 38 51 49 29 55 29 48 0z m-144
-8 l39 -12 -7 -179 c-8 -192 -9 -222 -13 -264 -2 -20 -67 403 -71 460 0 10 6
9 52 -5z"/>
<path d="M789 3268 c0 -7 -2 -20 -3 -28 -2 -8 -6 -51 -9 -95 -4 -58 -3 -70 3
-45 12 46 24 180 16 180 -3 0 -6 -6 -7 -12z"/>
<path d="M2152 3255 c3 -3 63 -7 134 -10 90 -3 116 -1 84 5 -49 9 -227 13
-218 5z"/>
<path d="M2600 3229 c44 -10 126 -9 108 2 -7 5 -42 8 -78 8 -58 -1 -61 -2 -30
-10z"/>
<path d="M2354 2288 c-26 -24 -64 -60 -82 -80 -38 -43 -58 -48 -67 -18 -3 11
-11 20 -16 20 -6 0 -3 -10 5 -22 19 -26 20 -38 6 -38 -16 0 -274 -101 -285
-112 -15 -14 42 2 105 30 126 56 133 52 20 -14 -44 -25 -83 -50 -86 -56 -7
-10 50 21 131 71 22 14 81 47 130 73 50 27 79 46 65 42 -18 -5 -3 15 55 69 86
82 99 104 19 35z"/>
<path d="M1240 1408 c-61 -98 -111 -176 -209 -331 -35 -54 -61 -101 -58 -104
3 -3 27 29 54 72 26 42 67 105 90 141 90 140 165 266 160 270 -2 3 -19 -19
-37 -48z"/>
<path d="M963 850 c18 -45 77 -139 77 -123 0 12 -66 132 -82 148 -5 6 -3 -6 5
-25z"/>
<path d="M206 2261 c6 -6 33 -20 60 -30 58 -22 220 -88 249 -101 34 -15 96
-32 101 -28 2 3 -14 11 -36 18 -34 11 -39 17 -34 34 6 20 5 20 -8 2 -13 -16
-17 -17 -39 -5 -13 7 -26 14 -29 14 -13 4 -67 26 -82 35 -10 6 -22 10 -28 10
-5 0 -33 11 -62 24 -70 31 -107 42 -92 27z"/>
<path d="M1561 1084 c-1 -12 10 -75 23 -140 13 -66 27 -137 31 -159 4 -22 10
-34 12 -27 3 7 -3 54 -12 105 -10 51 -19 103 -21 117 -9 50 -32 124 -33 104z"/>
</g>
</svg>
